SplineFontDB: 3.0
FontName: Experiment-Sinhala
FullName: Experiment-Sinhala
FamilyName: Experiment-Sinhala
Weight: Regular
Copyright: Copyright (c) 2015, Pathum Egodawatta
UComments: "2015-9-29: Created with FontForge (http://fontforge.org)"
Version: 0.001
ItalicAngle: 0
UnderlinePosition: -99
UnderlineWidth: 49
Ascent: 750
Descent: 250
InvalidEm: 0
LayerCount: 3
Layer: 0 0 "Back" 1
Layer: 1 0 "Fore" 0
Layer: 2 0 "Back 3" 1
PreferredKerning: 4
XUID: [1021 779 -1439063335 14876943]
FSType: 0
OS2Version: 0
OS2_WeightWidthSlopeOnly: 0
OS2_UseTypoMetrics: 1
CreationTime: 1443542790
ModificationTime: 1465471559
PfmFamily: 17
TTFWeight: 400
TTFWidth: 5
LineGap: 122
VLineGap: 0
OS2TypoAscent: 879
OS2TypoAOffset: 0
OS2TypoDescent: -250
OS2TypoDOffset: 0
OS2TypoLinegap: 122
OS2WinAscent: 879
OS2WinAOffset: 0
OS2WinDescent: 49
OS2WinDOffset: 0
HheadAscent: 779
HheadAOffset: 0
HheadDescent: -27
HheadDOffset: 0
OS2Vendor: 'PfEd'
Lookup: 1 0 0 "'ss01' Style Set 1 in Sinhala lookup 22" { "'ss01' Style Set 1 in Sinhala lookup 22-1"  } ['ss01' ('sinh' <'dflt' > ) ]
Lookup: 1 0 0 "'ss02' Style Set 2 in Sinhala lookup 23" { "'ss02' Style Set 2 in Sinhala lookup 23-1"  } ['ss02' ('DFLT' <'dflt' > 'sinh' <'dflt' > ) ]
Lookup: 4 0 0 "'abvs' Above Base Substitutions in Sinhala lookup 0" { "'abvs' Above Base Substitutions in Sinhala lookup 0-1"  "'abvs' Above Base Substitutions in Sinhala lookup 0-2"  } ['abvs' ('DFLT' <'dflt' > 'sinh' <'dflt' > ) ]
Lookup: 4 0 0 "si_akhands" { "si_akhands subtable"  } ['akhn' ('sinh' <'dflt' > ) ]
Lookup: 4 0 0 "si_reph" { "si_reph subtable"  } ['rphf' ('sinh' <'dflt' > ) ]
Lookup: 4 0 0 "si_halant_1" { "si_halant_1 subtable"  } ['abvs' ('sinh' <'dflt' > ) ]
Lookup: 4 0 0 "si_halant_2" { "si_halant_2 subtable"  } ['abvs' ('sinh' <'dflt' > ) ]
Lookup: 4 0 0 "si_halant_3" { "si_halant_3 subtable"  } ['abvs' ('sinh' <'dflt' > ) ]
Lookup: 4 0 0 "si_abvs_1" { "si_abvs_1 subtable"  } ['abvs' ('sinh' <'dflt' > ) ]

StartChar: si_Tta
Encoding: 0 3495 0
GlifName: si_T_ta
Width: 831
VWidth: 16
Flags: HMW
LayerCount: 3
Back
SplineSet
375.064453125 334 m 1
 349.064453125 346 315.064453125 352 282.064453125 350 c 0
 211.991210938 345.8515625 138.9296875 292.790039062 138.064453125 208 c 0
 136.977539062 108.803710938 221.56640625 42.294921875 389.064453125 43 c 4
 578.850585938 43.794921875 672.34375 185.697265625 678.064453125 327 c 0
 686.772460938 540.58984375 591.08984375 673.365234375 380.064453125 676 c 0
 244.897460938 677.537109375 143.064453125 595 140.064453125 595 c 1
 107.064453125 648 l 0
 157.918945312 685.638671875 268.47265625 734.567382812 382.064453125 734 c 0
 609.788085938 732.85546875 750.565429688 561.63671875 750.064453125 332 c 0
 749.6171875 105.602539062 606.963867188 -56.892578125 383.064453125 -59 c 0
 177.45703125 -60.677734375 60.400390625 38.0029296875 57.064453125 176 c 0
 53.775390625 320.966796875 176.049804688 394.418945312 287.064453125 398 c 0
 349.064453125 400 389.064453125 379 389.064453125 379 c 1
 375.064453125 334 l 1
EndSplineSet
Fore
SplineSet
50 208 m 0
 50 366.491210938 179 449 294 449 c 0
 351 449 388 430 388 430 c 1
 390 414 379 388 374 382 c 1
 351 392 323 398 294 398 c 0
 210 398 122 347.975585938 122 240 c 0
 122 138.056629834 226 56 390 56 c 0
 605.897460938 56 709.801757812 205.455737705 716 364 c 0
 723.217773438 555.63671875 608.040039062 704 375 704 c 0
 242 704 167 641 164 641 c 1
 152 653 140 673 146 701 c 1
 197 738 286 766 379 766 c 0
 611.942382812 766 787.157226562 603.014648438 781 357 c 0
 774.836914062 119.23 637.206054688 -46 402 -46 c 0
 190 -46 50 64.3591182146 50 208 c 0
EndSplineSet
Layer: 2
SplineSet
396.189453125 272 m 5
 250.189453125 288 147.189453125 252 149.189453125 158 c 4
 150.189453125 94 203.189453125 42 343.189453125 43 c 4
 512.189453125 44 620.88671875 173.225585938 629.189453125 326 c 4
 639.189453125 510 535.885742188 659.0234375 342.189453125 648 c 4
 219.189453125 641 126.189453125 580 123.189453125 580 c 5
 100.189453125 627 l 5
 140.189453125 651 245.189453125 706 373.189453125 706 c 4
 590.189453125 705 710.189453125 537 700.189453125 321 c 4
 690.291992188 107.228515625 567.189453125 -56 321.189453125 -58 c 4
 185.189453125 -59 66.189453125 8 66.189453125 137 c 4
 66.189453125 291 225.189453125 335 347.189453125 328 c 5
 357.189453125 388 324.189453125 438 232.189453125 438 c 5
 206.189453125 357 l 5
 155.189453125 350 120.189453125 379 129.189453125 425 c 4
 139.189453125 481 197.189453125 500 244.189453125 500 c 4
 320.189453125 500 403.189453125 469 404.189453125 359 c 4
 404.189453125 323 396.189453125 272 396.189453125 272 c 5
EndSplineSet
EndChar

StartChar: si_Pa
Encoding: 1 3508 1
GlifName: si_P_a
Width: 841
VWidth: 6
Flags: HMW
LayerCount: 3
Back
SplineSet
525.01953125 352 m 1
 477.01953125 333 l 1
 469.01953125 358 462.01953125 384 462.01953125 426 c 0
 463.01953125 512 544.01953125 556 605.01953125 556 c 0
 688.01953125 556 740.01953125 507 740.01953125 427 c 0
 740.01953125 349 643.01953125 309 643.01953125 309 c 1
 627.01953125 326 l 1
 661.071289062 347.129882812 675.903320312 377.10546875 676.01953125 417 c 0
 676.154296875 463 642.01953125 494 583.01953125 494 c 0
 536.01953125 494 500.01953125 462 500.01953125 419 c 0
 500.01953125 367 525.01953125 352 525.01953125 352 c 1
144.01953125 209 m 0
 143.01953125 124 228.01953125 45 413.01953125 45 c 0
 588.01953125 45 688.470703125 127.008789062 690.01953125 216 c 0
 691.794921875 318.00390625 574.01953125 348 477.01953125 333 c 1
 497.01953125 373 l 1
 642.01953125 402 765.01953125 331 761.01953125 193 c 0
 756.01953125 29 589.01953125 -59 408.01953125 -59 c 0
 214.01953125 -59 63.01953125 33 65.01953125 180 c 0
 67.01953125 339 233.01953125 394 341.01953125 384 c 1
 317.01953125 345 l 1
 324.01953125 365 337.392578125 386.33203125 333.01953125 415 c 0
 324.01953125 474 264.01953125 505 196.01953125 490 c 0
 229.01953125 511 l 1
 174.01953125 409 l 1
 133.01953125 411 106.620117188 436.013671875 108.01953125 471 c 0
 110.01953125 521 167.01953125 557 227.01953125 557 c 0
 297.01953125 557 369.01953125 517 371.01953125 439 c 0
 372.01953125 402 366.01953125 370 357.01953125 333 c 1
 233.01953125 351 145.01953125 287 144.01953125 209 c 0
EndSplineSet
Fore
SplineSet
50 207 m 0
 50 362 179.44140625 420.776367188 285 421 c 0
 327 421.088867188 354 411 362 410 c 1
 328 374 l 1
 339.875 393.170733384 347 413.999091322 347 447 c 0
 347 506.636363636 289.191416903 529 241 529 c 0
 193.533333333 529 166.333333333 498.625 161 484 c 1
 160.5390625 501.506544682 153.777614522 523.139389752 212 546 c 1
 167 431 l 1
 120.636363636 433 99 460 99 494 c 0
 99 544 140.875 594 233 594 c 0
 325.348927747 594 387 535 387 451 c 0
 387 416.235955056 375.22265625 379.426966292 367 360 c 1
 353 365 327 371 297 371 c 0
 170.353515625 371 111 312.331700943 111 237 c 0
 111 144.63559322 204.929915704 64.9586573263 415 64 c 4
 639.0078125 62.9769627305 731 149.953279756 731 243 c 0
 731 331.915384615 640.561523438 370.015384615 569 371 c 0
 520.249023438 371.681640625 497.903320312 363 480 357 c 1
 495 408 l 1
 520.013671875 415 547.301757812 420 578 420 c 0
 697.532226562 420 788 347.146484375 788 235 c 0
 788 59.7658556273 616.790039062 -32 414 -32 c 4
 209.698242188 -32 50 61.9692844972 50 207 c 0
462 448 m 0
 463.127801584 535.983560975 540.439019465 592.874541321 624 592 c 0
 706.018554688 591.141601562 771 542 771 469 c 0
 771 375.408203125 671 347 671 347 c 1
 668 364 l 1
 688.245117188 385.461914062 705 404.274414062 705 447 c 0
 705 492.40234375 660.526367188 531 598 531 c 0
 534.571289062 531 502 490.052734375 502 442 c 0
 502 400 519 386 519 386 c 1
 480 357 l 1
 470 380.516853933 461.487304688 407.104119119 462 448 c 0
EndSplineSet
EndChar

StartChar: si_Va
Encoding: 2 3520 2
GlifName: si_V_a
Width: 821
VWidth: 16
Flags: HMW
LayerCount: 3
Back
SplineSet
50.5 182 m 4
 50.5 339 211.885742188 381 335.5 381 c 4
 344.5 381 353.5 381 361.5 380 c 5
 361.5 450 301.5 486 229.5 486 c 5
 173.5 405 l 5
 148.5 405 116.5 423 115.5 462 c 4
 114.5 518 171.5 551 230.5 551 c 4
 308.5 551 404.5 502 404.5 393 c 4
 404.5 349 396.5 325 396.5 325 c 5
 378.5 327 357.5 328 339.5 328 c 4
 217.6171875 328 110.5 292 110.5 205 c 4
 110.5 128 220.5 54 390.5 55 c 4
 595.872070312 56.009765625 708.5 200.36328125 708.5 380 c 4
 708.5 587.150390625 580.7578125 712 369.5 712 c 4
 244.5 712 156.5 651 154.5 651 c 5
 143.5 658.5 134.5 685.8125 138.5 713 c 5
 180.5 741 264.5 770 376.5 770 c 4
 599.797851562 770 770.5 623 770.5 368 c 4
 770.5 130 638.323242188 -44 382.5 -44 c 4
 201.5 -44 50.5 55 50.5 182 c 4
EndSplineSet
Fore
SplineSet
337 326 m 0
 372.454545455 325.78671875 395.246753247 347.6 402 350 c 1
 368 329 l 1
 374.875 344.629032258 379 359.095351044 379 386 c 0
 379 451.006493506 319.555324929 480 270 480 c 0
 223.72 480 197.2 448.95 192 434 c 1
 191.5390625 451.506544682 184.777614522 473.139389752 243 496 c 1
 194 385 l 1
 149.681818182 386.904761905 129 414.652945924 129 445 c 0
 129 494.5 170.875 544 263 544 c 0
 350.011653167 544 425 482.088424733 425 389 c 0
 425 356.186046512 416.2 324.337209302 407 306 c 1
 393 315.090909091 306.997813809 326.180481901 337 326 c 0
62.5 166 m 0
 62.5 320.633165829 222.753210664 362 345.5 362 c 0
 361.423076923 362 377.346153846 362 391.5 360 c 1
 414.5 354 l 0
 414.5 322.941176471 406.5 306 406.5 306 c 1
 388.5 308 367.5 309 349.5 309 c 0
 228.681666212 309 122.5 275.048780487 122.5 193 c 0
 122.5 117.726520681 218.213262093 62.3185567404 390.5 63 c 0
 595.872848615 63.812308278 708.5 204.337836538 708.5 379 c 0
 708.5 585.526443665 582.64191556 710 374.5 710 c 4
 258.802325582 710 177.35116279 652 175.5 652 c 5
 164.5 659.5 155.5 686.8125 159.5 714 c 5
 198.676470588 740.526315789 277.029411765 768 381.5 768 c 4
 601.964122481 768 770.5 621.365671642 770.5 367 c 0
 770.5 124.393676328 639.685889176 -36 386.5 -36 c 0
 200.102409639 -36 62.5 42.6330671271 62.5 166 c 0
EndSplineSet
EndChar

StartChar: si_Ra
Encoding: 4 3515 4
GlifName: si_R_a
Width: 741
VWidth: 25
Flags: HMW
LayerCount: 3
Back
SplineSet
49.1494140625 234.995117188 m 4
 41.912109375 502.370117188 297.024414062 576.115234375 458.014648438 782.920898438 c 5
 486.267578125 815.903320312 499.883789062 851.296875 505.278320312 881.994140625 c 5
 506.27734375 882.022460938 507.278320312 882.025390625 508.276367188 882.077148438 c 4
 534.514648438 883.240234375 564.791992188 870.858398438 575.643554688 834.6796875 c 5
 568.684570312 716.600585938 366.39453125 607.34375 209.80859375 492.642578125 c 4
 157.881835938 450.416015625 105.239257812 399.869140625 109.318359375 261.872070312 c 4
 113.23046875 123.791992188 233.255859375 43.3017578125 370.413085938 46.927734375 c 4
 545.068359375 51.544921875 624.807617188 176.129882812 621.427734375 293.99609375 c 4
 617.112304688 450.813476562 484.953125 512.368164062 359.489257812 506.223632812 c 4
 188.293945312 497.045898438 106.918945312 375.260742188 109.318359375 261.872070312 c 5
 106.030273438 319.2421875 95.5166015625 354.133789062 123.619140625 426.223632812 c 5
 122.30078125 429.655273438 217.080078125 559.73046875 386.87890625 564.586914062 c 4
 521.356445312 568.432617188 690.69140625 480.84375 694.926757812 287.030273438 c 4
 698.6484375 113.483398438 587.271484375 -43.158203125 377.080078125 -49.0908203125 c 4
 176.489257812 -54.7529296875 53.453125 79.8271484375 49.1494140625 234.995117188 c 4
EndSplineSet
Fore
SplineSet
48.1494140625 234.995117188 m 0
 40.203125 502.370117188 320.275390625 576.115234375 497.014648438 782.920898438 c 1
 525.267578125 815.903320312 537.883789062 851.296875 544.278320312 881.994140625 c 1
 545.27734375 882.022460938 546.278320312 882.025390625 547.276367188 882.077148438 c 0
 573.514648438 883.240234375 603.791992188 870.858398438 614.643554688 834.6796875 c 1
 569.922851562 706.600585938 382.514648438 607.34375 208.80859375 492.642578125 c 0
 155.331632832 449.501111834 101.020134191 397.856172844 105.318359375 256.872070312 c 0
 109.440237565 125.88548209 231.866574853 40.249422201 380.413085938 43.927734375 c 4
 546.21150762 48.0899690963 627.713160983 174.618568989 624.427734375 293.99609375 c 0
 620.063264631 454.507286583 487.953512129 517.513671875 362.489257812 511.223632812 c 0
 186.503699652 501.670606666 102.851101273 374.901252389 105.318359375 256.872070312 c 1
 101.340502884 315.987534983 88.6212860749 351.940629391 122.619140625 426.223632812 c 1
 121.30078125 429.655273438 216.080078125 559.73046875 385.87890625 564.586914062 c 0
 519.046875 568.474609375 686.783548216 479.939543582 690.926757812 284.030273438 c 0
 694.507900717 112.483398438 580.229749982 -46.4872916655 385.080078125 -52.0908203125 c 0
 184.902231666 -58.0209725561 52.5712395976 78.1884765625 48.1494140625 234.995117188 c 0
EndSplineSet
EndChar

StartChar: si_Ca
Encoding: 5 3488 5
GlifName: si_C_a
Width: 877
VWidth: 16
Flags: HMW
LayerCount: 3
Back
SplineSet
55.318359375 327 m 5
 476.318359375 333 l 1
 471.318359375 283 l 1
 148.318359375 283 l 1
 54.318359375 271 l 5
 55.318359375 327 l 5
EndSplineSet
Refer: 2 3520 N 1 0 0 1 85.3183 0 2
Fore
SplineSet
285.3671875 325.6328125 m 1
 223.532786273 309.983380688 178.06640625 260.563861792 178.06640625 201 c 0
 178.06640625 109.597664543 287.306935087 55.1861157274 446.06640625 56 c 0
 651.438175247 57.052843346 764.06640625 199.126923077 764.06640625 376 c 0
 764.06640625 583.150390625 636.32421875 708 425.06640625 708 c 0
 300.06640625 708 212.06640625 647 210.06640625 647 c 1
 199.06640625 654.5 190.06640625 681.8125 194.06640625 709 c 1
 236.06640625 737 320.06640625 766 432.06640625 766 c 0
 655.364257812 766 826.06640625 619 826.06640625 364 c 0
 826.06640625 128.888349515 693.889648438 -43 438.06640625 -43 c 0
 243.794333438 -43 118.06640625 52.4955752212 118.06640625 175 c 0
 118.06640625 276.119223874 182.511877098 328.48177101 259.051757812 352.4609375 c 5
 285.3671875 325.6328125 l 1
382.56640625 340 m 0
 418.020507812 339.787109375 440.813476562 361.599609375 447.56640625 364 c 1
 413.56640625 343 l 1
 420.44140625 358.903097588 424.56640625 373.623697917 424.56640625 401 c 0
 424.56640625 466.006835938 365.122070312 495 315.56640625 495 c 0
 269.286132812 495 242.766601562 463.950195312 237.56640625 449 c 1
 237.10546875 466.506835938 230.34375 488.139648438 288.56640625 511 c 1
 239.56640625 400 l 1
 195.248046875 401.904296875 174.56640625 429.653320312 174.56640625 460 c 0
 174.56640625 509.5 216.44140625 559 308.56640625 559 c 0
 395.578125 559 470.56640625 497.088867188 470.56640625 404 c 0
 470.56640625 370.791180346 461.766601562 338.557840738 452.56640625 320 c 1
 438.56640625 329.090820312 352.563235492 340.180159516 382.56640625 340 c 0
42.5888671875 306 m 1
 40.5888671875 328 42.5888671875 350 46.5888671875 363 c 1
 447.588867188 363 l 1
 452.588867188 320 l 1
 173.588867188 320 l 1
 42.5888671875 306 l 1
EndSplineSet
Layer: 2
SplineSet
475.860351562 225.029296875 m 5
 474.834960938 225.029296875 439.971679688 225.541992188 396.905273438 225.541992188 c 4
 320.879882812 225.541992188 219.512695312 217.26953125 219.512695312 152.739257812 c 5
 221.619140625 117.782226562 273.106445312 54.419921875 414.849609375 53.2763671875 c 4
 565.068359375 52.064453125 632.232421875 170.841796875 632.232421875 336.284179688 c 5
 632.232421875 521.017578125 566.094726562 628.779296875 396.905273438 636.2109375 c 5
 309.747070312 632.109375 159.52734375 569.047851562 156.451171875 569.047851562 c 5
 140.044921875 610.576171875 l 4
 177.471679688 637.236328125 307.696289062 696.196289062 397.930664062 695.68359375 c 4
 608.135742188 694.658203125 714.263671875 548.540039062 714.263671875 331.157226562 c 4
 714.263671875 112.749023438 627.10546875 -37.470703125 410.748046875 -37.470703125 c 4
 254.375976562 -37.470703125 141.0703125 25.078125 141.0703125 147.099609375 c 4
 141.0703125 277.32421875 288.7265625 289.116210938 288.7265625 289.116210938 c 5
 402.544921875 292.192382812 l 5
 475.860351562 225.029296875 l 5
402.544921875 290.141601562 m 5
 394.854492188 372.172851562 l 5
 394.854492188 372.172851562 371.783203125 416.264648438 286.67578125 416.264648438 c 4
 280.5234375 356.279296875 l 5
 211.309570312 355.25390625 l 5
 204.131835938 365.5078125 199.517578125 392.680664062 199.517578125 409.599609375 c 4
 199.517578125 459.84375 257.452148438 479.326171875 304.620117188 479.326171875 c 4
 395.879882812 479.326171875 470.733398438 437.28515625 478.936523438 328.081054688 c 4
 475.860351562 225.029296875 l 5
 402.544921875 290.141601562 l 5
EndSplineSet
EndChar

StartChar: si_Sa
Encoding: 6 3523 6
GlifName: si_S_a
Width: 949
VWidth: 6
Flags: HMW
LayerCount: 3
Back
SplineSet
70.5888671875 379 m 1xf8
 448.588867188 381 l 1
 450.588867188 336 l 1
 154.588867188 335 l 1
 69.5888671875 322 l 1
 70.5888671875 379 l 1xf8
578.588867188 373 m 1
 611.588867188 384 l 1
 711.080078125 410.330078125 896.588867188 380.840820312 896.588867188 186 c 0
 896.588867188 64 821.966796875 -45 690.588867188 -45 c 0
 585.588867188 -45 518.588867188 22 503.588867188 126 c 1
 501.588867188 123 540.588867188 129 538.588867188 126 c 1
 520.708007812 25 452.336914062 -43.1982421875 335.588867188 -44 c 0
 203.059570312 -44.91015625 130.76171875 54.9951171875 132.588867188 154 c 0
 134.75390625 268 228.944335938 346 263.588867188 347 c 1
 357.588867188 338 l 1
 271.450195312 324.103515625 193.443359375 266.251953125 194.588867188 183 c 0
 195.48828125 112.950195312 247.111328125 64.845703125 335.588867188 62 c 0
 402.745117188 59.83984375 500.588867188 88.2900390625 503.588867188 214 c 1
 538.588867188 215 l 1
 541.588867188 100.411132812 615.583007812 64.4326171875 695.588867188 64 c 0
 775.395507812 63.599609375 830.989257812 113.7890625 832.588867188 195 c 0xfa
 834.973632812 310.975585938 736.89453125 383.813476562 573.588867188 328 c 1
 568.588867188 350.166992188 563.98046875 374.670898438 563.588867188 398 c 0
 561.588867188 500 634.588867188 568 718.588867188 570 c 0
 785.5703125 571.594726562 861.588867188 532 861.588867188 452 c 0
 861.588867188 356 768.588867188 330 768.588867188 330 c 1
 752.588867188 337 l 1
 752.588867188 337 791.588867188 374.990234375 791.588867188 424 c 0xfc
 791.588867188 465 751.46875 513.047851562 687.588867188 509 c 0
 651.583984375 506.71875 608.588867188 472 603.588867188 411 c 0
 599.81640625 364.98046875 619.588867188 353 619.588867188 353 c 1
 578.588867188 373 l 1
419.588867188 364 m 1
 422.588867188 398 422.588867188 417 410.588867188 445 c 0
 396.588867188 480 341.588867188 508 291.588867188 503 c 0
 240.588867188 419 l 1
 210.588867188 422 186.588867188 439 186.588867188 476 c 0
 186.588867188 543 258.588867188 568 311.588867188 568 c 0
 391.588867188 568 464.881835938 518.05078125 467.588867188 433 c 0
 469.155273438 383.791015625 459.588867188 358.083007812 450.588867188 337 c 1
 419.588867188 364 l 1
EndSplineSet
Fore
SplineSet
367 376 m 0
 402.454545455 375.78671875 425.246753247 397.6 432 400 c 1
 398 379 l 1
 409.875 396.548387097 417 412.791271347 417 443 c 0
 417 503.165584416 358.10068892 530 309 530 c 0
 262.72 530 236.2 498.95 231 484 c 1
 230.5390625 501.506544682 223.777614522 523.139389752 282 546 c 1
 237 431 l 1
 189.954545455 433.031746032 168 462.629808986 168 495 c 0
 168 544.5 209.875 594 302 594 c 0
 390.922622084 594 457 535 457 451 c 0
 457 413.441860465 445.222222222 376.988372093 437 356 c 1
 423 365.090909091 336.997813809 376.180481901 367 376 c 0
552 448 m 0
 553.127801584 535.983560975 630.439019465 592.874541321 714 592 c 0
 796.018554688 591.141601562 861 542 861 469 c 0
 861 377.709640753 770 350 770 350 c 1
 758 364 l 1
 778.245117188 385.461914062 795 404.274414062 795 447 c 0
 795 492.40234375 750.526367188 531 688 531 c 0
 624.571289062 531 592 490.052734375 592 442 c 0
 592 400 609 389 609 389 c 1
 570 362 l 1
 560 385 551.487304688 408.002929688 552 448 c 0
26.5888671875 342 m 1
 24.5888671875 364 26.5888671875 386 30.5888671875 399 c 1
 431.588867188 399 l 1
 436.588867188 356 l 1
 157.588867188 356 l 1
 26.5888671875 342 l 1
96.5888671875 171 m 0
 96.5888671875 297.122070312 201.65438445 368.076433097 252.588867188 377 c 1
 300.588867188 361 l 1
 223.904530867 350.39970424 161.588867188 284.688292203 161.588867188 202 c 0
 161.588867188 132.347874045 206.66015625 65 312.588867188 65 c 0
 398.778320312 65 473.905273438 107.565632902 478.588867188 236 c 1
 491.588867188 241 504.588867188 242 517.588867188 240 c 1
 520.588867188 119.981445312 584.950195312 64 687.588867188 64 c 0
 780.840820312 64 834.588867188 129.294921875 834.588867188 225 c 0
 834.588867188 315 758.123046875 378 659.588867188 378 c 0
 632.713867188 378 599.151367188 376 569.588867188 362 c 1
 564.588867188 386 555.588867188 406 555.588867188 432 c 1
 570.588867188 403 l 1
 598.818359375 413.833984375 626.33203125 424 670.588867188 424 c 0
 775.946289062 424 898.588867188 355.416992188 898.588867188 216 c 0
 898.588867188 89.810546875 834.830078125 -31 683.588867188 -31 c 0
 564.681640625 -31 486.202148438 42.01171875 481.588867188 151 c 1
 481.588867188 150 482.588867188 150 484.588867188 150 c 0
 491.588867188 150 506.588867188 152 513.588867188 152 c 0
 515.588867188 152 516.758623694 151.985045142 516.588867188 151 c 0
 498.569335938 46.4381653503 430.618164062 -29 312.588867188 -29 c 0
 153.62109375 -29 96.5888671875 71.0995900371 96.5888671875 171 c 0
EndSplineSet
EndChar

StartChar: si_Ka
Encoding: 7 3482 7
GlifName: si_K_a
Width: 1082
VWidth: 6
Flags: HMW
LayerCount: 3
Back
SplineSet
76.8154296875 465 m 4
 76.8154296875 523.90234375 123.360351562 576 205.815429688 576 c 4
 302.877929688 576 347.716796875 494.41796875 318.815429688 418 c 4
 303.08984375 376.420898438 291.354492188 381.439453125 284.815429688 371 c 4
 243.815429688 360 l 5
 268.130859375 379.963867188 282.815429688 419.892578125 282.815429688 446 c 4
 282.815429688 488.567382812 253.567382812 510.017578125 227.815429688 510.045898438 c 4
 205.5625 510.0703125 192.64453125 497.591796875 185.815429688 486 c 5
 164.815429688 391 l 5
 98.9677734375 389.791992188 76.8154296875 431.401367188 76.8154296875 465 c 4
1045.81542969 267 m 4
 1045.81542969 117 975.4375 -31 807.815429688 -31 c 4
 743.674804688 -31 704.815429688 -10 704.815429688 -8 c 5
 697.815429688 5.052734375 710.815429688 43.2978515625 722.815429688 52 c 5
 734.501953125 43 762.26953125 23 815.815429688 23 c 4
 939.088867188 23 973.815429688 159 968.815429688 246 c 4
 958.04296875 433.443359375 769.805664062 502.794921875 629.815429688 497 c 4
 515.85546875 492.282226562 425.880859375 449.84765625 344.815429688 393 c 4
 343.815429688 386 l 4
 248.204561782 307.922991507 160.536132812 239.3203125 71.8154296875 93 c 5
 71.8154296875 93 39.2958984375 107.072265625 44.8154296875 136 c 5
 133.6640625 268.981445312 224.124822443 351.926906151 308.815429688 424 c 4
 312.815429688 425 l 4
 372.64453125 491.192382812 505.232421875 572.087890625 637.815429688 585 c 4
 878.759765625 608.46484375 1045.81542969 456.926757812 1045.81542969 267 c 4
77.8154296875 109 m 5
 77.8154296875 155 l 5
 100.1484375 167.665039062 108.482421875 176 130.815429688 176 c 4
 199.325195312 176 186.979492188 69 296.815429688 69 c 4
 352.55078125 69 405.874023438 113.2578125 406.815429688 208 c 5
 417.815429688 212 432.815429688 216 441.815429688 213 c 5
 442.877929688 116.71875 485.925209388 65.2978515625 553.815429688 67 c 4
 605.548828125 68.390625 644.815429688 112.572265625 644.815429688 185 c 4
 644.815429688 259.396484375 602.4453125 351 442.815429688 362 c 4
 367.251461124 367.207067997 290.612304688 347.100585938 250.815429688 325 c 5
 306.815429688 382 l 5
 319.10546875 385.70703125 385.049473493 413.557110857 467.815429688 409 c 4
 597.166015625 401.877929688 716.815429688 324.202148438 716.815429688 182 c 4
 716.815429688 56.859375 643.99609375 -24 549.815429688 -24 c 4
 455.753965435 -24 428.06640625 27.7373046875 418.815429688 69 c 5
 430.815429688 69 l 5
 425.395507812 30.4306640625 371.180664062 -22.4970703125 299.815429688 -23 c 4
 151.979492188 -24.0419921875 183.743164062 138 111.815429688 138 c 4
 97.947265625 138 91.1728515625 129.400390625 77.8154296875 109 c 5
EndSplineSet
Fore
SplineSet
948.779296875 248 m 0
 941.389539472 393.184905463 795.110665077 496.970259962 621.779296875 492 c 0
 532.187997032 489.268629808 438.354080424 467.345153996 353.779296875 396 c 0
 337.478515625 383.06640625 348.065987328 388.657207037 333.779296875 377 c 0
 233.925781251 299.593356919 150.110976725 186.324882075 83.779296875 57 c 1
 83.779296875 57 49.623046875 72 58.779296875 99 c 1
 118.314453125 227.679916244 221.230457953 350.232425935 309.779296875 426 c 0
 311.217915892 427.23096671 314.474172041 425.628302918 315.779296875 427 c 0
 406.299605969 522.137599572 526.96388422 581 661.779296875 581 c 0
 866.409179685 581 1023.15066529 432.784927104 1021.77929688 252 c 0
 1020.77929688 120.171875 959.401367184 -21 801.779296875 -21 c 0
 737.638671875 -21 702.779296875 0 702.779296875 2 c 1
 695.779296875 13.9465704449 708.779296875 48.0353217691 720.779296875 56 c 1
 732.465820312 48.5517241379 753.23708312 31.5232008101 800.779296875 32 c 0
 913.051757812 33.1259765625 954.122823994 143.016921754 948.779296875 248 c 0
542.815429688 -19 m 0
 461.280013021 -20.263671875 416.116341145 37.7373046875 416.815429688 89 c 1
 426.815429688 89 l 1
 431.6780729 28.84375 373.552734375 -18.26953125 306 -17.9140625 c 0
 166.184570312 -17.177734375 187.454754258 133.469803248 95.779296875 87 c 1
 94.779296875 116 l 1
 103.986545139 124 121.938476563 138 152.779296875 138 c 0
 211.165642195 138 235.155273438 78.384765625 301 76.4013671875 c 0
 345.208007812 75.0703125 405.787577542 101.732421875 406.815429688 197 c 1
 417.815429688 201 432.815429688 205 441.815429688 202 c 1
 442.768015894 115.71875 489.491143588 74 545.815429688 74 c 0
 602.368105833 74 649.779296875 115.46484375 649.779296875 200 c 0
 649.779296875 310.060240964 556.197207323 374 459.779296875 374 c 0
 366.779296875 374 306.779296875 345.266601562 273.779296875 325 c 1
 313.779296875 373 l 1
 326.779296875 378 378.779296875 420 478.779296875 420 c 0
 590.547589558 420 713.779296875 337.77317068 713.779296875 189 c 0
 713.779296875 92.1324573864 651.0059188 -17.3232160474 542.815429688 -19 c 0
69.779296875 455 m 0
 69.779296875 516.485351562 116.779296875 574 203.779296875 574 c 0
 294.600585938 574 337.779127769 501.230505698 321.779296875 428 c 0
 308.829101562 368.727539062 269.1640625 365.881835938 263.779296875 351 c 0
 249.779296875 350 l 1
 269.231445312 369.963867188 281.779296875 409.892578125 281.779296875 436 c 0
 281.779296875 479.202148438 248.27734344 504.005631995 218.779296875 504.045898438 c 0
 203.755859375 504.06640625 183.770507812 497.665039062 175.779296875 484 c 1
 154.779296875 379 l 1
 89.697265625 377.70703125 69.779296875 419.03515625 69.779296875 455 c 0
EndSplineSet
Layer: 2
SplineSet
948.779296875 251 m 4
 941.527372632 406.191178794 795.110665077 496.970259962 621.779296875 492 c 4
 532.187997032 489.268629808 438.354080424 467.345153996 353.779296875 396 c 4
 337.478515625 383.06640625 348.065987328 388.657207037 333.779296875 377 c 4
 233.925781251 299.593356919 150.110976725 186.324882075 83.779296875 57 c 5
 83.779296875 57 49.623046875 72 58.779296875 99 c 5
 118.314453125 227.679916244 221.230457953 350.232425935 309.779296875 426 c 4
 311.217915892 427.23096671 314.488484682 425.614825787 315.779296875 427 c 4
 406.299605969 524.137599572 526.96388422 581 661.779296875 581 c 4
 866.409179685 581 1023.1201514 437.784688467 1021.77929688 257 c 4
 1020.77929688 122.172033734 959.401367184 -21 801.779296875 -21 c 4
 737.638671875 -21 702.779296875 0 702.779296875 2 c 5
 695.779296875 13.9465704449 708.779296875 48.0353217691 720.779296875 56 c 5
 732.465820312 48.5517241379 753.23708312 31.5232008101 800.779296875 32 c 4
 913.051757812 33.1259765625 953.779296875 144 948.779296875 251 c 4
542.815429688 -19 m 4
 461.280013021 -20.263671875 416.116341145 37.7373046875 416.815429688 89 c 5
 426.815429688 89 l 5
 431.6780729 28.84375 371.552991488 -14.2697398199 304 -13.9140625 c 4
 164.184339364 -13.177910653 187.454754258 133.469803248 95.779296875 87 c 5
 94.779296875 116 l 5
 103.986545139 124 121.938476563 138 152.779296875 138 c 4
 211.165642195 138 240.15523178 79.3843304658 306 77.4013671875 c 4
 350.208160987 76.0700061362 405.787577542 101.732421875 406.815429688 197 c 5
 417.815429688 201 432.815429688 205 441.815429688 202 c 5
 442.768015894 115.71875 489.491143588 74 545.815429688 74 c 4
 602.368105833 74 649.779296875 115.46484375 649.779296875 200 c 4
 649.779296875 310.060240964 556.197207323 374 459.779296875 374 c 4
 366.779296875 374 306.779296875 345.266601562 273.779296875 325 c 5
 313.779296875 373 l 5
 326.779296875 378 378.779296875 420 478.779296875 420 c 4
 590.547589558 420 713.779296875 337.77317068 713.779296875 189 c 4
 713.779296875 92.1324573864 651.0059188 -17.3232160474 542.815429688 -19 c 4
69.779296875 455 m 4
 69.779296875 516.485351562 116.779296875 574 203.779296875 574 c 4
 294.600585938 574 337.779127769 501.230505698 321.779296875 428 c 4
 308.829101562 368.727539062 269.1640625 365.881835938 263.779296875 351 c 4
 249.779296875 350 l 5
 269.231445312 369.963867188 281.779296875 409.892578125 281.779296875 436 c 4
 281.779296875 479.202148438 248.27734344 504.005631995 218.779296875 504.045898438 c 4
 203.755859375 504.06640625 183.770507812 497.665039062 175.779296875 484 c 5
 154.779296875 379 l 5
 89.697265625 377.70703125 69.779296875 419.03515625 69.779296875 455 c 4
EndSplineSet
EndChar

StartChar: si_Ta
Encoding: 8 3501 8
GlifName: si_T_a
Width: 1082
VWidth: 6
Flags: HMW
LayerCount: 3
Back
SplineSet
946.779296875 248 m 0
 942.58203125 403.303710938 795.094726562 497.498046875 621.779296875 492 c 4
 528.510742188 489.041015625 434.084960938 460.513671875 342.779296875 388 c 0
 326.478515625 375.06640625 336.779296875 381 322.779296875 369 c 0
 227.319335938 292.077148438 164.192382812 192.516601562 80.779296875 64 c 1
 80.779296875 64 46.623046875 79 55.779296875 106 c 1
 135.779296875 227.43359375 211.779296875 340.395507812 311.779296875 427 c 0
 313.60546875 427.5 316.45822486 426.643654746 317.779296875 428 c 0
 411.776367188 524.506835938 527.743164062 581 661.779296875 581 c 4
 866.409179688 581 1022.77929688 445 1022.77929688 267 c 0
 1021.77929688 106.747070312 937.401367188 -31 759.779296875 -31 c 0
 695.638671875 -31 662.779296875 -12 662.779296875 -10 c 1
 655.779296875 3.052734375 668.779296875 41.2978515625 680.779296875 50 c 1
 692.465820312 41 717.233398438 23 770.779296875 23 c 0
 894.052734375 23 949.779296875 137 946.779296875 248 c 0
102.779296875 107 m 1
 101.779296875 138 l 1
 110.3515625 146 130.065429688 163 161.779296875 163 c 0
 246.09375 163 245.037109375 65 417.779296875 65 c 0
 539.620117188 65 609.779296875 131.637695312 609.779296875 213 c 0
 609.779296875 319 503.779296875 354 432.779296875 354 c 0
 349.779296875 354 295.779296875 337.266601562 262.779296875 317 c 1
 302.779296875 365 l 1
 315.779296875 370 352.779296875 399 442.779296875 399 c 0
 540.779296875 399 673.779296875 343 673.779296875 205 c 0
 673.779296875 105.537109375 588.232421875 -22.392578125 426.779296875 -23 c 0
 329.71875 -23.365234375 255.40625 -3.6396484375 210.779296875 78 c 0
 184.908203125 125.536132812 132.779296875 133 102.779296875 107 c 1
69.779296875 455 m 0
 69.779296875 516.485351562 116.779296875 574 203.779296875 574 c 0
 294.600585938 574 337.779296875 501.23046875 321.779296875 428 c 0
 308.829101562 368.727539062 269.1640625 365.881835938 263.779296875 351 c 0
 249.779296875 350 l 1
 269.231445312 369.963867188 281.779296875 409.892578125 281.779296875 436 c 0
 281.779296875 479.202148438 248.27734375 504.005859375 218.779296875 504.045898438 c 0
 203.755859375 504.06640625 183.770507812 497.665039062 175.779296875 484 c 1
 154.779296875 379 l 1
 89.697265625 377.70703125 69.779296875 419.03515625 69.779296875 455 c 0
EndSplineSet
Fore
SplineSet
313.010742188 360 m 1
 227.55078125 283.077148438 164.192382812 171.516601562 90.779296875 53 c 1
 90.779296875 53 56.623046875 68 65.779296875 95 c 1
 131.779296875 216.43359375 208.010742188 330.395507812 308.010742188 417 c 1
 396.594726562 525 542.264648438 583 663.010742188 583 c 0
 835.939453125 583 1016.01074219 461.682617188 1016.01074219 269 c 0
 1016.01074219 107.747070312 926.6328125 -25 749.010742188 -25 c 0
 684.870117188 -25 646.010742188 -4 646.010742188 -2 c 1
 639.010742188 11.052734375 652.010742188 49.2978515625 664.010742188 58 c 1
 675.697265625 49 703.46484375 29 757.010742188 29 c 0
 880.284179688 29 941.010742188 124.598632812 941.010742188 247 c 0
 941.010742188 390.329101562 792.5 492 641.010742188 492 c 0
 537.526367188 492 426.993164062 469.2890625 313.010742188 360 c 1
112.779296875 93 m 1
 101.779296875 116 l 1
 110.3515625 124 134.065429688 142 165.779296875 142 c 0
 250.09375 142 245.037109375 73 417.779296875 73 c 4
 537.620117188 73 613.779296875 139.729806784 613.779296875 220 c 0
 613.779296875 316 503.779296875 354 432.779296875 354 c 0
 349.779296875 354 295.779296875 337.266601562 262.779296875 317 c 1
 302.779296875 365 l 1
 315.779296875 370 352.779296875 399 442.779296875 399 c 0
 540.779296875 399 673.779296875 348 673.779296875 210 c 0
 673.779296875 110.537109375 585.231874293 -16.2037861764 423.779296875 -17 c 0
 349.71875 -17.365234375 272.40625 1.3603515625 227.779296875 56 c 0
 193.543945312 97.916015625 142.779296875 119 112.779296875 93 c 1
69.779296875 455 m 0
 69.779296875 516.485351562 116.779296875 574 203.779296875 574 c 0
 294.600585938 574 337.779296875 501.23046875 321.779296875 428 c 0
 308.829101562 368.727539062 269.1640625 365.881835938 263.779296875 351 c 0
 249.779296875 350 l 1
 269.231445312 369.963867188 281.779296875 409.892578125 281.779296875 436 c 0
 281.779296875 479.202148438 248.27734375 504.005859375 218.779296875 504.045898438 c 0
 203.755859375 504.06640625 183.770507812 497.665039062 175.779296875 484 c 1
 154.779296875 379 l 1
 89.697265625 377.70703125 69.779296875 419.03515625 69.779296875 455 c 0
EndSplineSet
Layer: 2
SplineSet
669.584960938 -22.5302734375 m 13
 682.9140625 34.111328125 l 4
 691.938476562 34.099609375 711.234375 26.2783203125 739.82421875 26.2783203125 c 4
 847.490234375 26.2783203125 891.118164062 139.078125 890.0859375 238.608398438 c 4
 888.633789062 378.5703125 768.811523438 462.880859375 638.823242188 464.584960938 c 4
 534.375976562 465.955078125 447.108398438 437.892578125 361.455078125 382.830078125 c 5
 230.166015625 288.540039062 178.1875 235.71875 75.37109375 73.0078125 c 5
 75.37109375 73.0078125 33.708984375 94.48828125 38.9697265625 103.76953125 c 4
 104.018554688 218.547851562 202.794921875 315.069335938 300.95703125 406.313476562 c 5
 308.596679688 412.305664062 316.290039062 418.155273438 324.028320312 423.856445312 c 5
 409.30078125 496.668945312 533.755859375 555.073242188 647.026367188 556.157226562 c 4
 817.088867188 557.784179688 977.591796875 460.306640625 980.91796875 271.93359375 c 4
 984.28515625 81.2705078125 872.900390625 -24.0751953125 742.900390625 -31.71484375 c 4
 701.884765625 -34.125 677.095703125 -22.5107421875 669.584960938 -22.5302734375 c 13
266.606445312 365.756835938 m 5
 303.38671875 440.026367188 262.775390625 496.55859375 220.463867188 497.6015625 c 4
 177.392578125 498.662109375 151.947265625 465.461914062 147.661132812 431.381835938 c 5
 177.397460938 376.010742188 l 5
 163.655273438 352.084960938 140.049804688 339.463867188 118.4375 340.846679688 c 4
 92.7265625 342.491210938 69.8369140625 363.958007812 69.7314453125 409.791015625 c 4
 69.5693359375 480.055664062 123.043945312 565.857421875 234.819335938 558.985351562 c 4
 321.787109375 553.638671875 350.463867188 473.038085938 323.008789062 408.823242188 c 4
 307.817382812 373.291992188 319.66796875 391.560546875 306.596679688 374.985351562 c 5
 266.606445312 365.756835938 l 5
171.7578125 228.354492188 m 5
 159.6328125 101.243164062 275.901367188 60.1318359375 388.627929688 57.626953125 c 4
 551.694335938 54.0029296875 602.209960938 113.750976562 602.421875 200.668945312 c 4
 602.66015625 299.25 514.118164062 339.16015625 420.927734375 343.477539062 c 4
 348.9140625 346.815429688 277.142578125 318.712890625 245.073242188 301.157226562 c 5
 302.495117188 365.244140625 l 5
 315.46875 369.670898438 388.150390625 394.450195312 449.638671875 393.487304688 c 4
 560.000976562 391.759765625 699.952148438 347.966796875 689.580078125 178.110351562 c 4
 683.192382812 73.5126953125 614.102539062 -40.947265625 375.297851562 -40.982421875 c 4
 224.361328125 -41.00390625 111.159179688 57.7041015625 139.458007812 189.90234375 c 5
 171.7578125 228.354492188 l 5
EndSplineSet
EndChar

StartChar: si_Na
Encoding: 9 3505 9
GlifName: si_N_a
Width: 1064
VWidth: 6
Flags: HMW
LayerCount: 3
Back
SplineSet
116.779296875 455 m 4
 116.779296875 516.485351562 163.779296875 574 250.779296875 574 c 4
 341.600585938 574 384.779296875 501.23046875 368.779296875 428 c 4
 355.829101562 368.727539062 316.1640625 366.881835938 310.779296875 352 c 4
 296.779296875 351 l 5
 316.231445312 370.963867188 328.779296875 409.892578125 328.779296875 436 c 4
 328.779296875 479.202148438 295.27734375 504.005859375 265.779296875 504.045898438 c 4
 250.755859375 504.06640625 230.770507812 497.665039062 222.779296875 484 c 5
 201.779296875 379 l 5
 136.697265625 377.70703125 116.779296875 419.03515625 116.779296875 455 c 4
97.0107421875 166 m 5
 97.0107421875 222 l 5
 105.010742188 206 123.010742188 200 139.010742188 200 c 4
 199.010742188 200 275.010742188 322.375 340.010742188 409 c 4
 362.010742188 417 l 5
 450.594726562 525 566.264648438 579 687.010742188 579 c 4
 859.939453125 579 1024.01074219 463.682617188 1024.01074219 271 c 4
 1024.01074219 109.747070312 940.6328125 -31 763.010742188 -31 c 4
 698.870117188 -31 660.010742188 -10 660.010742188 -8 c 5
 653.010742188 5.052734375 666.010742188 43.2978515625 678.010742188 52 c 5
 689.697265625 43 717.46484375 23 771.010742188 23 c 4
 894.284179688 23 949.010742188 134.598632812 949.010742188 249 c 4
 949.010742188 392.329101562 816.5 488 665.010742188 488 c 4
 561.526367188 488 480.993164062 469.2890625 367.010742188 360 c 5
 354.010742188 360 l 5
 292.010742188 269.611328125 226.010742188 157 149.010742188 157 c 4
 132.010742188 157 115.010742188 157 97.0107421875 166 c 5
55.0107421875 234 m 5
 66.0107421875 240 92.0107421875 236 100.010742188 233 c 5
 97.03125 92.451171875 271.748046875 63 375.010742188 63 c 4
 482.947265625 63 583.010742188 121.63671875 583.010742188 221 c 4
 583.010742188 292.137695312 533.361328125 350 436.010742188 350 c 4
 376.010742188 350 352.010742188 345.022460938 313.010742188 324 c 5
 337.010742188 357 l 5
 350.010742188 361 387.010742188 394 469.010742188 394 c 4
 572.010742188 394 653.010742188 317 653.010742188 215 c 4
 653.010742188 110 602.010742188 -25 372.010742188 -25 c 4
 196.010742188 -25 53.0107421875 88.466796875 55.0107421875 234 c 5
EndSplineSet
Fore
SplineSet
106.779296875 455 m 4
 106.779296875 516.485351562 153.779296875 574 240.779296875 574 c 4
 331.600585938 574 374.779296875 501.23046875 358.779296875 428 c 4
 345.829101562 368.727539062 306.1640625 366.881835938 300.779296875 352 c 4
 286.779296875 351 l 5
 306.231445312 370.963867188 318.779296875 409.892578125 318.779296875 436 c 4
 318.779296875 479.202148438 285.27734375 504.005859375 255.779296875 504.045898438 c 4
 240.755859375 504.06640625 220.770507812 497.665039062 212.779296875 484 c 5
 191.779296875 379 l 5
 126.697265625 377.70703125 106.779296875 419.03515625 106.779296875 455 c 4
87.0107421875 166 m 5
 87.0107421875 222 l 5
 95.0107421875 206 113.010742188 200 129.010742188 200 c 4
 189.010742188 200 265.010742188 322.375 330.010742188 409 c 4
 352.010742188 417 l 5
 440.594726562 525 556.264648438 579 677.010742188 579 c 4
 849.939453125 579 1014.01074219 463.682617188 1014.01074219 271 c 4
 1014.01074219 109.747070312 930.6328125 -31 753.010742188 -31 c 4
 688.870117188 -31 650.010742188 -10 650.010742188 -8 c 5
 643.010742188 5.052734375 656.010742188 43.2978515625 668.010742188 52 c 5
 679.697265625 43 707.46484375 23 761.010742188 23 c 4
 884.284179688 23 939.010742188 134.598632812 939.010742188 249 c 4
 939.010742188 392.329101562 806.5 488 655.010742188 488 c 4
 551.526367188 488 470.993164062 469.2890625 357.010742188 360 c 5
 344.010742188 360 l 5
 282.010742188 269.611328125 216.010742188 157 139.010742188 157 c 4
 122.010742188 157 105.010742188 157 87.0107421875 166 c 5
45.0107421875 234 m 5
 56.0107421875 240 82.0107421875 236 90.0107421875 233 c 5
 87.03125 92.451171875 261.748046875 63 365.010742188 63 c 4
 472.947265625 63 573.010742188 121.63671875 573.010742188 221 c 4
 573.010742188 292.137695312 523.361328125 350 426.010742188 350 c 4
 366.010742188 350 342.010742188 345.022460938 303.010742188 324 c 5
 327.010742188 357 l 5
 340.010742188 361 377.010742188 394 459.010742188 394 c 4
 562.010742188 394 643.010742188 317 643.010742188 215 c 4
 643.010742188 110 592.010742188 -25 362.010742188 -25 c 4
 186.010742188 -25 43.0107421875 88.466796875 45.0107421875 234 c 5
EndSplineSet
Layer: 2
SplineSet
950.779296875 247 m 4
 946.58203125 402.303710938 801.094726562 497.498046875 627.779296875 492 c 4
 534.510742188 489.041015625 434.084960938 460.513671875 342.779296875 388 c 4
 326.478515625 375.06640625 336.779296875 381 322.779296875 369 c 4
 227.319335938 292.077148438 164.192382812 192.516601562 80.779296875 64 c 5
 80.779296875 64 46.623046875 79 55.779296875 106 c 5
 135.779296875 227.43359375 211.779296875 340.395507812 311.779296875 427 c 4
 313.60546875 427.5 315.953125 427.5 317.779296875 428 c 4
 423.776367188 518.506835938 538.743164062 581 680.779296875 581 c 4
 889.409179688 581 1026.77929688 444 1026.77929688 266 c 4
 1025.77929688 105.747070312 937.401367188 -31 759.779296875 -31 c 4
 695.638671875 -31 656.779296875 -10 656.779296875 -8 c 5
 649.779296875 5.052734375 662.779296875 43.2978515625 674.779296875 52 c 5
 686.465820312 43 714.233398438 23 767.779296875 23 c 4
 891.052734375 23 953.779296875 136 950.779296875 247 c 4
102.779296875 107 m 5
 101.779296875 138 l 5
 110.3515625 146 130.065429688 163 161.779296875 163 c 4
 246.09375 163 245.037109375 65 417.779296875 65 c 4
 535.620117188 65 608.779296875 131.637695312 608.779296875 213 c 4
 608.779296875 319 503.779296875 354 432.779296875 354 c 4
 349.779296875 354 295.779296875 337.266601562 262.779296875 317 c 5
 302.779296875 365 l 5
 315.779296875 370 352.779296875 399 442.779296875 399 c 4
 540.779296875 399 673.779296875 352 673.779296875 201 c 4
 673.779296875 95.537109375 587.232421875 -27.392578125 425.779296875 -28 c 4
 328.71875 -28.365234375 255.40625 -3.6396484375 210.779296875 78 c 4
 184.908203125 125.536132812 132.779296875 133 102.779296875 107 c 5
69.779296875 455 m 4
 69.779296875 516.485351562 116.779296875 574 203.779296875 574 c 4
 294.600585938 574 337.779296875 501.23046875 321.779296875 428 c 4
 308.829101562 368.727539062 269.1640625 365.881835938 263.779296875 351 c 4
 249.779296875 350 l 5
 269.231445312 369.963867188 281.779296875 409.892578125 281.779296875 436 c 4
 281.779296875 479.202148438 248.27734375 504.005859375 218.779296875 504.045898438 c 4
 203.755859375 504.06640625 183.770507812 497.665039062 175.779296875 484 c 5
 154.779296875 379 l 5
 89.697265625 377.70703125 69.779296875 419.03515625 69.779296875 455 c 4
EndSplineSet
EndChar

StartChar: anusvara
Encoding: 10 3458 10
GlifName: anusvara
Width: 588
VWidth: 30
Flags: HMW
LayerCount: 3
Back
SplineSet
123.5 225 m 0
 123.5 135 168.549804688 67.998046875 286.5 67 c 0
 376.546875 66.23828125 441.599609375 143.999023438 442.5 224 c 4
 443.625 323.993164062 374.5 393 267.5 387 c 0
 197.609375 383.081054688 123.5 318 123.5 225 c 0
58.5 194 m 0
 58.5 345 176.5 443 297.5 443 c 0
 448.5 443 526.5 335 526.5 214 c 0
 526.5 93 439.5 -25 288.5 -25 c 0
 137.5 -25 58.5 73 58.5 194 c 0
EndSplineSet
Fore
SplineSet
123.5 245 m 0
 123.5 155 186.5 87 294.5 87 c 4
 400.5 87 457.5 171 457.5 252 c 0
 457.5 347 394.5 414 292.5 414 c 0
 210.5 414 123.5 353 123.5 245 c 0
58.5 227 m 0
 58.5 378 174.5 473 295.5 473 c 0
 446.5 473 529.5 368 529.5 247 c 0
 529.5 126 449.5 8 298.5 8 c 0
 147.5 8 58.5 106 58.5 227 c 0
EndSplineSet
EndChar

StartChar: si_A
Encoding: 12 3461 12
GlifName: si_A_
Width: 807
VWidth: 13
Flags: HMW
LayerCount: 3
Back
SplineSet
367.5 -57.5380859375 m 0
 157.125 -57.1875 55.9326171875 37.0244140625 57.5 157 c 0
 59.3642578125 305.000976562 186.697265625 381 326.5 383 c 0
 360.412109375 383.546875 388.7578125 381.401367188 405.884765625 378.52734375 c 1
 407.005859375 468.180664062 344.208007812 504.435546875 274.5 497 c 1
 218.5 408 l 1
 172.5 411 144.5 448 153.5 484 c 0
 169.5 546 228.5 567 291.5 567 c 0
 363.5 567 435.5 527 449.5 443 c 0
 458.595703125 388.426757812 442.5 334 442.5 334 c 1
 333.383789062 352.869140625 192.282226562 312.513671875 178.5 179 c 0
 168.026367188 81.240234375 243.85546875 4.236328125 411.5 4.8173828125 c 0
 533.46875 5.240234375 606.026367188 50.912109375 668.5 88.599609375 c 1
 699.5 47 l 1
 627.854492188 -10.3515625 515.1953125 -57.7841796875 367.5 -57.5380859375 c 0
509.5 406.842773438 m 1
 511.14453125 463.158203125 500.286132812 528.805664062 568.5 568 c 1
 597.5 546.889648438 l 1
 597.01171875 491.823242188 729.5 455.326171875 729.5 386 c 0
 729.5 313.143554688 637.5 241.561523438 548.5 234 c 1
 539.5 274 l 1
 596.5 284 655.5 321.561523438 655.5 378 c 0
 655.5 426 569.89453125 468.649414062 569.5 507.856445312 c 1
 557.618164062 493.653320312 562.1328125 470 562.1328125 421.313476562 c 0
 559.5 -378 l 1
 509.5 -378 l 1
 509.5 406.842773438 l 1
441.965820312 371.448242188 m 1
 442.803710938 371.296875 443.647460938 371.146484375 444.5 371 c 1
 444.5 371.776367188 443.55859375 371.853515625 441.965820312 371.448242188 c 1
EndSplineSet
Fore
SplineSet
50.5 174 m 0
 50.5 342 226.5 413 368.5 413 c 0
 397.5 413 421.5 411 436.5 409 c 1
 437.5 492 368.5 538 304.5 538 c 0
 299.5 538 295.5 538 290.5 537 c 1
 234.5 448 l 1
 194.5 451 167.5 479 167.5 510 c 0
 167.5 572.72265625 230.852539062 609 291.5 609 c 0
 404.5 609 477.5 544 477.5 438 c 0
 477.5 398 467.5 364 467.5 364 c 1
 450.5 367 433.5 368 415.5 368 c 0
 304.5 368 151.5 319 151.5 186 c 0
 151.5 81.2158203125 271.5 19 446.5 19 c 0
 586.5 19 674.5 60 728.5 103 c 1
 744.5 98 754.5 70 754.5 53 c 1
 693.5 16 600.5 -43 413.5 -43 c 0
 201.5 -43 50.5 44.1875 50.5 174 c 0
544.5 -348 m 1
 544.5 488 l 2
 544.5 537 546.5 588 603.5 621 c 1
 632.5 600 l 1
 632.5 545 774.5 468 774.5 399 c 0
 774.5 326 692.5 265 583.5 267 c 1
 583.5 321 l 1
 650.5 311 700.5 335 700.5 391 c 0
 700.5 459 619.5 481 597.5 551 c 9
 597.5 -348 l 1
 579.220703125 -351.837890625 560.25390625 -353.73828125 544.5 -348 c 1
EndSplineSet
EndChar

StartChar: si_I
Encoding: 16 3465 16
GlifName: si_I_
Width: 847
VWidth: 16
Flags: HMW
LayerCount: 3
Fore
SplineSet
269.5 -290 m 1
 291.648952033 -305.043569712 344.322145892 -329.978392583 438.5 -330 c 0
 559.148187225 -330.027719351 625.666069949 -254.44718415 623.5 -166 c 4
 621.532582617 -92.1808764724 542.846158173 -47.1511845389 470.5 -50 c 1
 380.5 -39 l 1
 411.5 -83 l 1
 498.309460791 -85.2024165574 564.217027001 -115.86608193 563.5 -169 c 0
 562.807013767 -216.762639137 525.975182306 -257.00395341 438.5 -257 c 0
 374.594129504 -256.996953063 328.078358907 -239.793990385 301.5 -224 c 1
 282.24 -239.928515625 264.998750001 -268.488125 269.5 -290 c 1
54.5 295 m 0
 54.5 132.071289062 170.318968064 51.8177668173 312.5 51 c 0
 476.0078125 50.0595703125 536.403417647 159.415309531 538.5 250 c 0
 540.4921875 336.07421875 484.462678305 393.079815144 409.5 394 c 0
 332.649414062 394.943359375 288.5 341.065429688 288.5 287 c 0
 288.5 228 336.421878377 184.619517294 405.5 184 c 0
 492.28515625 183.221679688 515.491210938 253 516.5 260 c 1
 504.5 282 l 2
 504.5 282 473.0546875 229 417.5 229 c 0
 373.294921875 229 338.5 249 338.5 285 c 0
 338.5 314.176757812 362.966796875 339 401.5 339 c 0
 447.196289062 339 489.5 299.435546875 489.5 242 c 0
 489.5 187.603515625 434.106263916 112.953120937 317.5 112 c 0
 193.12741997 110.983398438 116.5 182.193359375 116.5 293 c 0
 116.5 445.653320312 257.480183243 529 413.5 529 c 0
 594.702148438 529 724.211080326 418.6369717 725.5 272 c 0
 727.174804688 81.4619140625 543.193359375 -37 387.5 -25 c 1
 367.5 -48.8364648437 367.5 -68.5270703125 367.5 -82 c 1
 631.23828125 -102.490853659 796.5 78.5236280488 796.5 294 c 0
 796.5 502.240234375 635.79210337 623.971108592 423.5 623 c 0
 222.18423781 622.079101562 54.5 485.228515625 54.5 295 c 0
EndSplineSet
EndChar

StartChar: si_Ii
Encoding: 17 3466 17
GlifName: si_I_i
Width: 761
VWidth: 25
Flags: HMW
LayerCount: 3
Back
SplineSet
531.826171875 611 m 0xb0
 531.826171875 642 556.826171875 667 587.826171875 667 c 0
 618.826171875 667 643.826171875 642 643.826171875 611 c 0
 643.826171875 580 618.826171875 555 587.826171875 555 c 0
 556.826171875 555 531.826171875 580 531.826171875 611 c 0xb0
219.826171875 701 m 4
 219.826171875 733 245.826171875 759 277.826171875 759 c 4
 309.826171875 759 335.826171875 733 335.826171875 701 c 4
 335.826171875 669 309.826171875 643 277.826171875 643 c 4x70
 245.826171875 643 219.826171875 669 219.826171875 701 c 4
EndSplineSet
Refer: 4 3515 N 1 0 0 1 4.82588 0 2
Fore
SplineSet
598.461914062 641 m 0
 598.461914062 672 623.461914062 697 654.461914062 697 c 0
 685.461914062 697 710.461914062 672 710.461914062 641 c 0
 710.461914062 610 685.461914062 585 654.461914062 585 c 0
 623.461914062 585 598.461914062 610 598.461914062 641 c 0
196.461914062 741 m 0
 196.461914062 773 222.461914062 799 254.461914062 799 c 0
 286.461914062 799 312.461914062 773 312.461914062 741 c 0
 312.461914062 709 286.461914062 683 254.461914062 683 c 0
 222.461914062 683 196.461914062 709 196.461914062 741 c 0
EndSplineSet
Refer: 4 3515 N 1 0 0 1 4.82588 0 2
EndChar

StartChar: si_U
Encoding: 18 3467 18
GlifName: si_U_
Width: 765
VWidth: 13
Flags: HMW
LayerCount: 3
Back
SplineSet
175.98046875 82 m 4
 157.182617188 -47.7998046875 221.953125 -212.974609375 404.98046875 -236.380859375 c 4
 539.891601562 -252.205078125 621.569335938 -209.567382812 694.98046875 -151 c 5
 728.98046875 -208 l 5
 679.203125 -243.866210938 572.854492188 -301.940429688 420.98046875 -296.19140625 c 4
 143.431640625 -285.490234375 48.8974609375 -102.7421875 59.98046875 34 c 4
 82.591796875 311.194335938 334.971679688 369.895507812 489.98046875 371 c 4
 551.983398438 371.436523438 587.98046875 367.727539062 616.98046875 365 c 5
 616.98046875 370 592.813476562 346 591.98046875 351 c 5
 604.551757812 478 475.194335938 499 396.98046875 481 c 5
 340.98046875 402 l 5
 294.98046875 405 273.067382812 445.533203125 283.98046875 481 c 4
 299.98046875 533 360.98046875 561 443.98046875 561 c 4
 526.266601562 561 620.014648438 506.793945312 633.98046875 423 c 4
 643.076171875 368.426757812 630.98046875 318 630.98046875 318 c 5
 630.98046875 316 l 5
 415.614257812 336.892578125 209.44921875 299.200195312 175.98046875 82 c 4
EndSplineSet
Fore
SplineSet
31.98046875 55 m 0
 31.98046875 288.49609375 218.583984375 390.010742188 382.98046875 404 c 0
 441.737304688 409 577.845703125 403.75 620.98046875 395 c 1
 620.98046875 399.286132812 599.41796875 378.713867188 597.98046875 383 c 1
 598.98046875 388 598.98046875 393 598.98046875 398 c 0
 598.98046875 488 517.770507812 523 448.98046875 523 c 0
 434.504882812 523 428.409179688 521 416.98046875 517 c 1
 370.98046875 431 l 1
 326.647460938 433.229492188 300.98046875 465.557617188 300.98046875 499 c 0
 300.98046875 559.174804688 356.282226562 599 441.98046875 599 c 0
 552.630859375 599 640.98046875 528.779296875 640.98046875 413 c 0
 640.98046875 375.482421875 633.98046875 349 633.98046875 349 c 1
 633.98046875 347 l 1
 591.791992188 355.5 467.694335938 360.979492188 415.98046875 356 c 0
 242.34375 339.280273438 133.98046875 238.263671875 133.98046875 73 c 0
 133.98046875 -86.71484375 241.423828125 -209 440.98046875 -209 c 0
 579.228515625 -209 666.8984375 -154.942382812 712.98046875 -121 c 1
 724.829101562 -126.326171875 733.677734375 -149.760742188 732.98046875 -170 c 1
 702.973632812 -204.9140625 592.337890625 -271 434.98046875 -271 c 0
 132.78125 -271 31.98046875 -91.197265625 31.98046875 55 c 0
EndSplineSet
EndChar

StartChar: si_E
Encoding: 22 3473 22
GlifName: si_E_
Width: 880
VWidth: 16
Flags: HMW
LayerCount: 3
Back
SplineSet
416.014648438 669.124023438 m 1xde
 506.198242188 678 l 1
 505.041015625 653.400390625 527.561523438 575.997070312 567.198242188 559 c 0
 643.301757812 526.365234375 676.364257812 606.057617188 733.198242188 558 c 1
 762.198242188 526 l 1
 693.333984375 554.92578125 638.614257812 470.92578125 536.198242188 505.301757812 c 0
 456.154296875 532.168945312 459.620117188 669.104492188 416.014648438 669.124023438 c 1xde
109.198242188 317 m 5
 498.198242188 316 l 5
 493.198242188 275 l 5
 192.198242188 270 l 5
 108.198242188 252 l 5
 109.198242188 317 l 5
494.703125 661.212890625 m 0
 444.348632812 668.377929688 410.638671875 662.286132812 394.198242188 661 c 1
 395.198242188 741 l 1xee
 727.112304688 740.212890625 879.198242188 516.80859375 879.198242188 311 c 0
 879.198242188 91.0390625 750.948242188 -56.3564453125 528.198242188 -61 c 0
 308.821289062 -65.5732421875 205.432617188 17.80078125 202.198242188 121 c 0
 197.794921875 261.4765625 341.720703125 302.262695312 455.198242188 306 c 1
 455.198242188 394 413.889648438 438 321.198242188 438 c 1
 295.198242188 357 l 1
 248.834960938 350 217.466796875 378.897460938 225.198242188 425 c 0
 234.58984375 481 289.059570312 500 333.198242188 500 c 0
 399.198242188 500 496.678710938 462.978515625 501.198242188 359 c 0
 502.58203125 327.161132812 493.198242188 282 493.198242188 282 c 1
 365.448242188 299.456054688 274.602539062 246.993164062 275.198242188 162 c 0
 275.717773438 86.0546875 383.846679688 38.986328125 522.198242188 40 c 0
 707.676757812 41.3388671875 817.198242188 144.6484375 817.198242188 346 c 0
 817.198242188 538.337890625 628.466796875 642.180664062 494.703125 661.212890625 c 0
EndSplineSet
Fore
SplineSet
431.198242188 378 m 0
 440.198242188 378 430.198242188 399 438.198242188 398 c 1
 438.198242188 468 368.198242188 527 296.198242188 527 c 1
 240.198242188 446 l 1
 215.198242188 446 183.198242188 464 182.198242188 503 c 0
 181.198242188 559 238.198242188 592 297.198242188 592 c 0
 395.198242188 592 481.198242188 520 481.198242188 411 c 0
 481.198242188 377 478.198242188 369 478.198242188 369 c 1
 460.198242188 371 449.198242188 378 431.198242188 378 c 0
51.1982421875 417 m 1
 471.198242188 414 l 1
 476.198242188 368 l 1
 177.198242188 368 l 1
 53.1982421875 350 l 1
 42.1982421875 365.12890625 35.1982421875 396.467773438 51.1982421875 417 c 1
337.198242188 402 m 1
 344.467773438 402 331.736328125 402 338.198242188 401 c 1
 336.198242188 371 l 1
 248.701660156 371.591796875 177.198242188 318.694335938 177.198242188 233 c 0
 177.198242188 135.144531251 283.534083406 69 455.198242188 69 c 0
 683.451406745 69 775.319484277 234.577129895 777.198242188 390 c 0
 780.198242188 639 569.198242188 768 383.198242188 796 c 1
 377.198242188 810 375.198242188 844 388.198242188 854 c 1
 679.198242188 804 838.198242188 611 838.198242188 381 c 0
 838.198242188 141.088452088 694.974522511 -31 469.198242188 -31 c 0
 225.372807635 -31 112.198242188 84.2556494226 112.198242188 206 c 0
 112.198242188 333.670584004 210.189799248 400.761544709 337.198242188 402 c 1
383.198242188 797 m 1
 422.198242188 818 l 1
 510.198242188 786 491.63671875 685.697265625 524.198242188 626 c 0
 554.198242188 571 637.198242188 562 730.198242188 603 c 1
 753.198242188 566 l 1
 680.198242188 519 523.240234375 491.522460938 470.198242188 596 c 0
 437.198242188 661 445.198242188 761 383.198242188 797 c 1
EndSplineSet
EndChar

StartChar: si_Os
Encoding: 25 3476 25
GlifName: si_O_s
Width: 880
VWidth: 16
Flags: HMW
LayerCount: 3
Back
SplineSet
101.129882812 261.502929688 m 5
 101.494140625 82.853515625 237.510742188 -58 466.560546875 -58 c 4
 691.010742188 -58 836.515625 95.5927734375 836.515625 334 c 4
 836.515625 548.2265625 697.345703125 732.00390625 457.786132812 732.00390625 c 4
 317.512695312 732.00390625 205.560546875 652 205.560546875 652 c 5
 233.560546875 602 l 5
 236.500976562 602 328.623046875 679.03515625 451.2421875 679.03515625 c 4
 686.908203125 679.03515625 780.721679688 514.502929688 773.834960938 329 c 4
 768.310546875 180.20703125 684.151367188 42.5888671875 461.390625 43.9912109375 c 4
 295.059570312 45.0390625 160.913085938 137.694335938 158.943359375 287.059570312 c 4
 157.73046875 379.075195312 188.096679688 444.005859375 236.413085938 444.005859375 c 4
 260.384765625 444.005859375 271.36328125 424.258789062 272.560546875 375 c 4
 274.204101562 310.588867188 290.455078125 262.171875 322.560546875 234.584960938 c 4
 360.061523438 200.767578125 412.428710938 186.986328125 463.046875 186.986328125 c 4
 577.661132812 186.986328125 630.5625 275.466796875 630.5625 360.115234375 c 4
 630.5625 436.70703125 578.365234375 504 482.560546875 504 c 4
 408.2890625 504 365.553710938 451.715820312 365.553710938 398.010742188 c 4
 365.553710938 337.249023438 412.490234375 311.997070312 454.8671875 311.997070312 c 4
 514.861328125 311.997070312 546.68359375 359.837890625 546.68359375 409.515625 c 4
 546.68359375 433.040039062 536.111328125 458.829101562 520.560546875 473.561523438 c 5
 494.560546875 474.561523438 l 5
 506.016601562 456.45703125 511.55859375 438.291015625 511.55859375 415.853515625 c 4
 511.55859375 388.53125 494.09375 357.55859375 458.842773438 357.55859375 c 4
 424.778320312 357.55859375 412.551757812 383.942382812 412.551757812 402.051757812 c 4
 412.551757812 436.8359375 434.823242188 463.909179688 469 469.001953125 c 4
 544.576171875 480.262695312 594.217773438 426.975585938 592.611328125 358.48046875 c 4
 591.166992188 296.900390625 547.69140625 253.766601562 462.630859375 252.998046875 c 4
 402.264648438 252.452148438 316.544921875 276.978515625 315.379882812 381 c 4
 314.5703125 453.213867188 286.75390625 482.034179688 242.166015625 482.034179688 c 4
 174.69921875 482.034179688 100.573242188 417.208984375 101.129882812 261.502929688 c 5
EndSplineSet
Fore
SplineSet
221.5 509 m 0
 265.5 508 293.907226562 482.004882812 294.5 417 c 0
 295.567382812 300 385.442382812 276.19921875 449.5 277 c 0
 529.516601562 278 581.5390625 325.022460938 582.5 392 c 0
 583.487304688 460.834960938 527.840820312 515.209960938 458.5 501 c 0
 417.938476562 496.15625 398.5 461.90625 398.5 435 c 0
 398.5 410 411.5 388 445.5 388 c 0
 480.5 388 497.5 419 497.5 446 c 0
 497.5 475 487.5 494 477.5 505 c 1
 507.5 514 l 1
 523.5 499 533.5 471 533.5 440 c 0
 533.5 390 498.5 339 438.5 339 c 0
 383.5 339 340.5 376 340.5 431 c 0
 340.5 501 394.334960938 548 467.5 548 c 0
 572.27734375 548 631.5 468 631.5 388 c 0
 631.5 303.03515625 573.184570312 208 445.5 208 c 4
 328.530273438 208 255.076171875 274.772460938 252.5 401 c 0
 251.5 450 239.5 465 214.5 465 c 0
 155.465820312 464 105.5 370.149414062 105.5 265 c 0
 105.5 122.756835938 189.947265625 57 284.5 57 c 0
 348.5 57 414.5 93 417.5 172 c 1
 427.5 176 442.5 180 454.5 176 c 1
 461.5 91 521.5 54 581.5 54 c 0
 724.258789062 54 769.5 230.1015625 769.5 347 c 0
 769.5 530.599609375 660.5859375 707 388.5 707 c 0
 246.5 707 175.5 639 172.5 639 c 1
 156.5 646 143.5 668 147.5 699 c 1
 147.5 699 233.049804688 765 388.5 765 c 0
 688.396484375 765 834.5 550.474609375 834.5 339 c 0
 834.5 194.41015625 782.877929688 -42 585.5 -42 c 0
 483.265625 -42 421.715820312 21 416.5 111 c 1
 451.5 111 l 1
 435.5 32 388.5 -39 279.5 -39 c 0
 92.265625 -39 45.5 138.428710938 45.5 242 c 0
 45.5 420.043945312 143.48046875 509 221.5 509 c 0
EndSplineSet
EndChar

StartChar: si_Kha
Encoding: 28 3483 28
GlifName: si_K_ha
Width: 881
VWidth: 6
Flags: HMW
LayerCount: 3
Back
SplineSet
723.413085938 336.353515625 m 4
 723.413085938 539.126953125 620.087890625 671.095703125 373.258789062 671.095703125 c 4
 249.685546875 671.095703125 153.548828125 603 151.979492188 603 c 5
 123.979492188 660 l 5
 123.979492188 660 232.758789062 733.059570312 385.76171875 733.059570312 c 4
 598.852539062 733.059570312 796.610351562 586.017578125 796.610351562 332.138671875 c 4
 796.610351562 115.98046875 709.265625 -51.8984375 536.439453125 -51.8984375 c 4
 496.9921875 -51.8984375 481.506835938 -36.3955078125 463.383789062 -36.3955078125 c 4
 439.877929688 -36.3955078125 415.65234375 -59.044921875 399.979492188 -93.9130859375 c 5
 361.868164062 -77 l 5
 411.849609375 0.8115234375 461.010742188 84.2724609375 455.01171875 178.049804688 c 4
 448.727539062 276.287109375 356.224609375 329.544921875 281.233398438 329.544921875 c 4
 178.399414062 329.544921875 88.16796875 262.353515625 88.16796875 129.487304688 c 4
 88.16796875 46.1943359375 124.700195312 -8.2998046875 197.135742188 -8.2998046875 c 4
 238.4296875 -8.2998046875 257.390625 25.0712890625 257.390625 52.2392578125 c 4
 257.390625 85.287109375 237.307617188 110.944335938 205.625 110.944335938 c 4
 180.188476562 110.944335938 156.887695312 91.3330078125 156.887695312 54.2900390625 c 4
 156.887695312 26.85546875 173.249023438 -6.75 215.868164062 -12.09375 c 5
 215.868164062 -23.3828125 l 5
 147.317382812 -21.287109375 114.334960938 15.962890625 114.334960938 56.8916015625 c 4
 114.334960938 114.103515625 154.5703125 169.70703125 220.010742188 169.70703125 c 4
 276.162109375 169.70703125 319.755859375 127.157226562 319.755859375 61.1015625 c 4
 319.755859375 9.072265625 280.594726562 -58.7978515625 199.71484375 -58.7978515625 c 4
 80.0966796875 -58.7978515625 35.5 58.337890625 35.5 151.438476562 c 4
 35.5 326.481445312 152.651367188 422.469726562 294.504882812 424.913085938 c 4
 378.247070312 426.35546875 516.897460938 370.383789062 516.897460938 194.314453125 c 4
 516.897460938 113.931640625 487.899414062 68.451171875 466.9765625 30 c 5
 466.176757812 78 l 5
 477.926757812 58.0712890625 510.106445312 46.37890625 539.439453125 46.37890625 c 4
 663.794921875 46.37890625 723.413085938 172.436523438 723.413085938 336.353515625 c 4
EndSplineSet
Fore
SplineSet
820.5 345 m 0
 820.5 126 722.5 -25 556.5 -25 c 0
 491.5 -25 434.5 7 430.5 48 c 1
 459.5 34 l 1
 447.5 12 437.5 -4 403.5 -62 c 1
 373.5 -41 l 1
 408.260742188 19 480.84765625 146 475.5 238 c 0
 469.327148438 338.579101562 391.5 397 295.5 397 c 0
 183.21484375 397 100.5 315.661132812 100.5 184 c 0
 100.5 84.40625 155.807617188 16.80859375 228.5 19 c 0
 268.118164062 20.1943359375 288.5 50.2001953125 288.5 79 c 0
 288.5 108.64453125 268.192382812 130 240.5 130 c 0
 208.1328125 130 180.5 110.385742188 180.5 63 c 0
 180.5 39.2724609375 190.534179688 12.3935546875 217.5 8 c 1
 193.5 -3 l 1
 169.163085938 -0.849609375 141.5 30.1748046875 141.5 75 c 0
 141.5 143.201171875 191.97265625 186 245.5 186 c 0
 297.745117188 186 343.5 148.959960938 343.5 87 c 0
 343.5 33.109375 300.852539062 -27 227.5 -27 c 0
 105.661132812 -27 50.5 90.2099609375 50.5 186 c 0
 50.5 372.166015625 168.9609375 485.158203125 313.5 486 c 0
 417.5 487 536.5 420 536.5 254 c 0
 536.5 174 493.5 98 466.5 60 c 1
 476.5 123 l 1
 489.5 90 509.5 71 559.5 71 c 0
 660.5 71 749.5 180 751.5 343 c 0
 754.613706068 548.19140625 617.910477454 704 380.5 704 c 0
 260.26274713 704 153.5 634 153.5 634 c 1
 142.010742188 644.227539062 130.334960938 669.014648438 136.5 703 c 1
 136.5 703 236.431994452 766 404.5 766 c 0
 622.692925348 766 820.5 606.782226562 820.5 345 c 0
EndSplineSet
EndChar

StartChar: si_Ga
Encoding: 29 3484 29
GlifName: si_G_a
Width: 986
VWidth: 6
Flags: HMW
LayerCount: 3
Back
SplineSet
721.264648438 15.6123046875 m 4
 828.19921875 27.6982421875 883.127929688 96.9677734375 883.127929688 219.600585938 c 4
 883.127929688 341.538085938 815.637695312 439.272460938 680.442382812 437.533203125 c 4
 587.182617188 436.399414062 500.857421875 377.801757812 475.3828125 264.823242188 c 5
 425.115234375 248.01171875 l 5
 439.701171875 440.625976562 555.479492188 535.514648438 679.184570312 542.603515625 c 4
 857.247070312 552.603515625 947.375 411.889648438 947.375 267.375 c 4
 947.375 101.1640625 869.936523438 -54.5166015625 690.916015625 -55.814453125 c 4
 640.5078125 -56.1796875 604.995117188 -45.9150390625 587.1875 -36.138671875 c 5
 605.95703125 38.328125 l 5
 626.625 22.771484375 679.408203125 10.5341796875 721.264648438 15.6123046875 c 4
141.479492188 245.841796875 m 4
 140.65234375 150.483398438 202.159179688 56.111328125 351.504882812 50.5908203125 c 4
 437.080078125 47.0771484375 522.391601562 79.8349609375 524.504882812 150 c 4
 525.690429688 200.606445312 491.821289062 247 425.504882812 247 c 5
 466.504882812 281 l 5
 508.504882812 279.932617188 578.157226562 240.7421875 578.504882812 152 c 4
 579.01171875 44.1220703125 505.098632812 -57.0576171875 340.103515625 -55.0048828125 c 4
 182.208984375 -53.0400390625 80.5 61.9140625 80.5 221.564453125 c 4
 80.5 428.865234375 228.793945312 526 363.504882812 538 c 4
 371.384765625 461.879882812 l 4
 276.420898438 461.879882812 142.939453125 422.454101562 141.479492188 245.841796875 c 4
EndSplineSet
Fore
SplineSet
395.5 269 m 5
 401.491210938 467.4453125 519.18359375 577 668.5 577 c 4
 840.514648438 577 935.5 440.494140625 935.5 298 c 4
 935.5 123.552734375 848.756835938 -29 668.5 -29 c 4
 626.037109375 -29 587.611328125 -19.5712890625 572.5 -11 c 5
 565.5 -3.94140625 561.5 31.3525390625 581.5 49 c 5
 596.0859375 40.1943359375 628.245117188 27.1416015625 675.5 28 c 4
 820.645507812 30.703125 866.5 152.2578125 866.5 269 c 4
 866.5 418.08203125 761.776367188 487 654.5 487 c 4
 546.365234375 487 444.879882812 428.76953125 438.5 263 c 5
 426.772460938 261.799804688 405.227539062 263.200195312 395.5 269 c 5
50.5 252 m 4
 50.5 456.634765625 217.5625 572.083984375 347.5 574 c 5
 355.5 555 349.5 520 343.5 511 c 5
 251.840820312 511 113.9375 447.711914062 109.5 279 c 4
 106.514648438 162.1953125 180.770507812 75.2666015625 316.5 72 c 4
 440.700195312 69.01171875 510.5 133.153320312 510.5 199 c 4
 510.5 256.887695312 479.375 287 420.5 287 c 5
 431.5 332 l 5
 506.631835938 333.567382812 562.5 280.876953125 562.5 198 c 4
 562.5 86.869140625 476.3828125 -25 318.5 -25 c 4
 146.354492188 -25 50.5 91.1943359375 50.5 252 c 4
EndSplineSet
EndChar

StartChar: si_Gha
Encoding: 30 3485 30
GlifName: si_G_ha
Width: 915
VWidth: 6
Flags: HMW
LayerCount: 3
Back
SplineSet
48.67578125 379 m 1xe8
 426.67578125 381 l 1
 428.67578125 336 l 1
 132.67578125 335 l 1
 47.67578125 322 l 1
 48.67578125 379 l 1xe8
556.67578125 373 m 1
 589.67578125 384 l 1
 689.166992188 410.330078125 874.67578125 380.840820312 874.67578125 186 c 0
 874.67578125 64 800.053710938 -45 668.67578125 -45 c 0
 563.67578125 -45 530.67578125 13 515.67578125 117 c 1
 515.103515625 116.142578125 549.67578125 147 543.67578125 165 c 24
 537.67578125 183 496.302734375 183.658203125 493.67578125 184 c 1
 491.002929688 184.34765625 447.67578125 184 436.67578125 162 c 24
 428.67578125 145 471.181640625 117.758789062 470.67578125 117 c 1
 452.794921875 16 430.423828125 -43.1982421875 313.67578125 -44 c 0
 181.146484375 -44.91015625 108.848632812 54.9951171875 110.67578125 154 c 0
 112.840820312 268 207.03125 346 241.67578125 347 c 1
 335.67578125 338 l 1
 249.537109375 324.103515625 171.530273438 266.251953125 172.67578125 183 c 0
 173.575195312 112.950195312 225.278320312 66.7216796875 313.67578125 62 c 0
 355.251953125 59.779296875 418.887695312 74.7744140625 424.67578125 107.828125 c 1
 423.876953125 132.467773438 379.798828125 139.845703125 380.67578125 171 c 0
 381.706054688 207.595703125 425.680664062 243.372070312 497.67578125 242 c 0
 564.6796875 240.72265625 599.67578125 210 599.67578125 174 c 0
 599.67578125 142.715820312 559.938476562 129.123046875 557.67578125 112.466796875 c 1
 561.1328125 84.8037109375 630.530273438 64.2333984375 673.67578125 64 c 0
 753.482421875 63.599609375 809.076171875 113.7890625 810.67578125 195 c 0xf2
 813.060546875 310.975585938 714.981445312 383.813476562 551.67578125 328 c 1
 546.67578125 350.166992188 542.067382812 374.670898438 541.67578125 398 c 0
 539.67578125 500 612.67578125 568 696.67578125 570 c 0
 763.657226562 571.594726562 839.67578125 532 839.67578125 452 c 0
 839.67578125 356 746.67578125 330 746.67578125 330 c 1
 730.67578125 337 l 1
 730.67578125 337 769.67578125 374.990234375 769.67578125 424 c 0xe4
 769.67578125 465 729.555664062 513.047851562 665.67578125 509 c 0
 629.670898438 506.71875 586.67578125 472 581.67578125 411 c 0
 577.903320312 364.98046875 597.67578125 353 597.67578125 353 c 1
 556.67578125 373 l 1
397.67578125 364 m 1xe8
 400.67578125 398 400.67578125 417 388.67578125 445 c 0
 374.67578125 480 319.67578125 508 269.67578125 503 c 0
 218.67578125 419 l 1
 188.67578125 422 164.67578125 439 164.67578125 476 c 0
 164.67578125 543 236.67578125 568 289.67578125 568 c 0
 369.67578125 568 442.96875 518.05078125 445.67578125 433 c 0
 447.2421875 383.791015625 437.67578125 358.083007812 428.67578125 337 c 1
 397.67578125 364 l 1xe8
EndSplineSet
Fore
SplineSet
47.67578125 352 m 1
 41.67578125 365 34.67578125 387 47.67578125 410 c 1
 426.67578125 410 l 1
 426.67578125 366 l 1
 132.67578125 366 l 1
 47.67578125 352 l 1
110.67578125 180 m 0
 110.67578125 293 209.67578125 377 245.67578125 377 c 2
 335.67578125 377 l 1
 249.67578125 363 172.67578125 307 172.67578125 215 c 0
 172.67578125 143 228.67578125 92 321.67578125 92 c 0
 362.67578125 92 419.67578125 117 424.67578125 148 c 1
 403.67578125 162 380.67578125 175 380.67578125 205 c 0
 380.67578125 242 423.67578125 272 493.67578125 272 c 0
 562.67578125 272 599.67578125 240 599.67578125 203 c 0
 599.67578125 172 569.67578125 159 557.67578125 152 c 1
 560.67578125 124 631.67578125 94 674.67578125 94 c 0
 755.67578125 94 810.67578125 145 810.67578125 229 c 0
 810.67578125 316 753.67578125 377 655.67578125 377 c 0
 624.67578125 377 589.67578125 371 551.67578125 358 c 1
 546.67578125 382 541.67578125 406 541.67578125 432 c 0
 541.67578125 533 606.67578125 596 704.67578125 596 c 0
 780.67578125 596 839.67578125 551 839.67578125 482 c 0
 839.67578125 386 746.67578125 360 746.67578125 360 c 1
 730.67578125 369 l 1
 730.67578125 369 769.67578125 405 769.67578125 454 c 0
 769.67578125 493 739.67578125 539 679.67578125 539 c 0
 634.67578125 539 577.67578125 500 577.67578125 430 c 0
 577.67578125 393 587.67578125 383 587.67578125 383 c 1
 556.67578125 403 l 1
 589.67578125 414 l 1
 609.67578125 419 632.67578125 422 656.67578125 422 c 0
 755.67578125 422 874.67578125 372 874.67578125 216 c 0
 874.67578125 94 799.67578125 -5 668.67578125 -5 c 0
 563.67578125 -5 530.67578125 53 515.67578125 157 c 1
 515.67578125 157 544.67578125 185 544.67578125 203 c 0
 544.67578125 226 495.67578125 227 491.67578125 227 c 0
 485.615234375 227 435.67578125 224.66796875 435.67578125 200 c 0
 435.67578125 183 470.67578125 158 470.67578125 157 c 0
 453.67578125 56 406.67578125 -5 301.67578125 -5 c 0
 171.67578125 -5 110.67578125 83 110.67578125 180 c 0
164.67578125 506 m 0
 164.67578125 573 236.67578125 598 289.67578125 598 c 0
 374.67578125 598 445.67578125 546 445.67578125 453 c 0
 445.67578125 410 436.67578125 387 428.67578125 367 c 1
 402.67578125 394 l 1
 403.67578125 405 404.67578125 415 404.67578125 424 c 0
 404.67578125 492 342.67578125 539 272.67578125 539 c 1
 218.67578125 449 l 1
 188.67578125 452 164.67578125 469 164.67578125 506 c 0
EndSplineSet
EndChar

StartChar: si_Nga
Encoding: 31 3486 31
GlifName: si_N_ga
Width: 829
VWidth: 16
Flags: HMW
LayerCount: 3
Back
SplineSet
409.598632812 474 m 25x9e
 259.598632812 490 l 17
 124.598632812 448 63.9638671875 383.963867188 58.5986328125 238 c 0
 55.849609375 163.2109375 98.607421875 56.189453125 146.598632812 18.7021484375 c 0
 105.598632812 -30.3115234375 l 0
 37.9404296875 20.875 -9.4013671875 137.236328125 -3.4013671875 245 c 0
 9.662109375 479.63671875 219.598632812 599 408.598632812 539 c 1
 409.598632812 474 l 25x9e
EndSplineSet
Refer: 29 3484 N 1 0 0 1 72.5989 0 2
Fore
SplineSet
52.5 171 m 0
 52.5 381 269.5 410 397.5 381 c 1
 388.5 340 l 1
 292.5 360 123.5 332 123.5 206 c 0
 123.5 140 166.5 91 244.5 91 c 0
 316.5 91 378.5 131 378.5 225 c 1
 385.5 229 410.5 233 417.5 228 c 1
 417.5 133 473.5 91 552.5 91 c 4
 636.5 91 705.5 187 705.5 360 c 0
 705.5 567 588.5 715 371.5 715 c 0
 282.5 715 211.5 685 170.5 660 c 1
 157.5 669 148.5 705 159.5 728 c 1
 216.5 755 275.5 769 372.5 769 c 0
 599.5 769 776.5 605 776.5 347 c 0
 776.5 181 721.5 -12 552.5 -12 c 0
 476.5 -12 416.5 19 394.5 81 c 1
 371.5 13 301.5 -12 242.5 -12 c 0
 144.5 -12 52.5 50 52.5 171 c 0
116.5 472 m 0
 116.5 539 188.5 564 241.5 564 c 0
 331.5 564 401.5 509 401.5 409 c 0
 401.5 375 395.5 359 389.5 340 c 1
 356.5 362 l 1
 358.5 373 359.5 383 359.5 393 c 0
 359.5 457 313.5 498 239.5 498 c 0
 233.5 498 227.5 498 220.5 497 c 1
 170.5 415 l 1
 140.5 418 116.5 435 116.5 472 c 0
EndSplineSet
EndChar

StartChar: si_Nnga
Encoding: 32 3487 32
GlifName: si_N_nga
Width: 1088
VWidth: 6
Flags: HMW
LayerCount: 3
Back
SplineSet
588.53125 474 m 25x9e
 438.53125 490 l 17
 303.53125 448 242.896484375 383.963867188 237.53125 238 c 0
 234.782226562 163.2109375 277.540039062 56.189453125 325.53125 18.7021484375 c 0
 284.53125 -30.3115234375 l 0
 216.873046875 20.875 169.53125 137.236328125 175.53125 245 c 0
 188.594726562 479.63671875 398.53125 599 587.53125 539 c 1
 588.53125 474 l 25x9e
EndSplineSet
Refer: 29 3484 N 1 0 0 1 251.532 0 2
Fore
SplineSet
511.01953125 282 m 1
 507.111328125 475.291015625 628.360351562 582 770.01953125 582 c 0
 949.6875 582 1045.01953125 443.978515625 1045.01953125 303 c 0
 1045.01953125 138.014648438 968.96875 -22 779.01953125 -22 c 0
 739.546875 -22 705.713867188 -11.5234375 692.01953125 -2 c 1
 685.01953125 5.05859375 681.01953125 40.3525390625 701.01953125 58 c 1
 715.916015625 47.5166015625 759.775390625 32.3076171875 797.01953125 33 c 0
 930.06640625 35.853515625 973.01953125 184.767578125 973.01953125 272 c 0
 973.01953125 418.383789062 875.000976562 494 758.01953125 494 c 0
 655.391601562 494 561.07421875 432.58984375 555.01953125 272 c 1
 543.01953125 270 523.01953125 265 511.01953125 282 c 1
182.01953125 273 m 0
 182.01953125 471.915039062 340.08203125 578.137695312 470.01953125 580 c 1
 478.01953125 561 472.01953125 537 466.01953125 528 c 1
 376.319335938 528 244.431714081 446.348207837 240.01953125 290 c 4
 237.048828125 184.731445312 298.025390625 84.0654296875 433.01953125 78 c 0
 542.90625 73.08984375 623.01953125 126.442382812 623.01953125 207 c 0
 623.01953125 264.887695312 591.89453125 295 533.01953125 295 c 1
 544.01953125 340 l 1
 625.151367188 341.567382812 675.01953125 288.876953125 675.01953125 206 c 0
 675.01953125 91.869140625 592.431640625 -17 441.01953125 -17 c 4
 282.450195312 -17 182.01953125 116.969726562 182.01953125 273 c 0
43.01953125 262 m 0
 40.291015625 423.28125 187.931640625 613.482421875 471.01953125 582 c 0
 463.01953125 533 l 1
 351.01953125 538 l 1
 211.849609375 532.524414062 95.0947265625 406.453125 97.01953125 268 c 0
 99.0966796875 121.28515625 208.942382812 18.5458984375 397.01953125 19 c 1
 429.01953125 -17 l 5
 96.486328125 -13.986328125 45.0751953125 147.447265625 43.01953125 262 c 0
EndSplineSet
EndChar

StartChar: si_Cha
Encoding: 33 3489 33
GlifName: si_C_ha
Width: 855
VWidth: 6
Flags: HMW
LayerCount: 3
Back
SplineSet
556.430664062 219 m 4xfe
 476.349609375 219.434570312 453.028320312 292.774414062 451.171875 352 c 4
 445.061523438 546.953125 623.774414062 725.752929688 825.430664062 771 c 5
 852.430664062 708 l 5
 626.057617188 678.284179688 514.469726562 515.27734375 501.7265625 414 c 4
 490.171875 322.166992188 506.509765625 262.995117188 559.430664062 264 c 4
 610.26171875 264.965820312 635.258789062 301.474609375 635.430664062 387 c 4
 635.515625 432.637695312 610.376953125 513 513.430664062 513 c 4
 466.430664062 513 429.430664062 472.893554688 429.430664062 419 c 4
 429.430664062 367 454.430664062 352 454.430664062 352 c 5
 406.430664062 333 l 5
 398.430664062 358 391.009765625 384.001953125 391.430664062 426 c 4
 392.361328125 518.771484375 468.666992188 563 525.430664062 563 c 4
 635.119140625 563 689.430664062 482.127929688 689.430664062 397 c 4
 689.430664062 266.061523438 620.8671875 218.650390625 556.430664062 219 c 4xfe
83.4306640625 209 m 0
 82.4306640625 124 167.430664062 45 352.430664062 45 c 0
 527.430664062 45 627.881835938 127.008789062 629.430664062 216 c 0
 631.206054688 318.00390625 503.430664062 348 406.430664062 333 c 1
 426.430664062 373 l 1
 571.430664062 402 704.637695312 330.994140625 700.430664062 193 c 0xfd
 695.430664062 29 528.430664062 -59 347.430664062 -59 c 0
 153.430664062 -59 2.58203125 32.998046875 4.4306640625 180 c 0
 6.4306640625 339 172.430664062 394 280.430664062 384 c 1
 256.430664062 345 l 1
 263.430664062 365 276.803710938 386.33203125 272.430664062 415 c 0
 263.430664062 474 203.430664062 505 135.430664062 490 c 0
 168.430664062 511 l 1
 113.430664062 409 l 1
 72.4306640625 411 46.03125 436.013671875 47.4306640625 471 c 0
 49.4306640625 521 106.430664062 557 166.430664062 557 c 0
 236.430664062 557 308.323242188 516.997070312 310.430664062 439 c 0
 311.430664062 402 305.430664062 370 296.430664062 333 c 1
 172.430664062 351 84.3486328125 287.000976562 83.4306640625 209 c 0
EndSplineSet
Fore
SplineSet
50 200 m 0
 50 366 190.44140625 420.689453125 296 421 c 0
 325 421.088867188 353 413 361 412 c 1
 327 379 l 1
 333 396 342 415 342 438 c 0
 342 495 280.736328125 529 223 529 c 0
 212 529 200 528 189 525 c 1
 222 546 l 1
 167 437 l 1
 127 439 97 469 97 503 c 0
 97 555 139 592 215 592 c 0
 304.350585938 592 382 535 382 451 c 0
 382 417 377 394 367 365 c 1
 353 369 330 374 297 374 c 0
 170.353515625 374 111 313.456054688 111 237 c 0
 111 142.5 204.9296875 60.9306640625 415 60 c 0
 639.0078125 58.9541015625 728 146.874023438 728 242 c 0
 728 332.3046875 638.561523438 376 572 376 c 0
 519.244140625 376 497.903320312 367 480 362 c 1
 495 408 l 1
 520.013671875 415 547.301757812 421 578 421 c 0
 704.532226562 421 791 344.146484375 791 232 c 0
 791 49.140625 612.790039062 -36 410 -36 c 0
 205.698242188 -36 50 52.5419921875 50 200 c 0
474.430664062 442 m 0
 475.430664062 534 561.430664062 592 628.430664062 592 c 0
 734.430664062 592 781.430664062 519 781.430664062 437 c 0
 781.430664062 306 715.430664062 228 621.430664062 228 c 0
 505.430664062 228 473.203046067 340.992729712 471.430664062 400 c 4
 464.064810403 645.228690229 622.430664062 809.118503119 773.430664062 861 c 5
 788.369374764 856.056818182 816.594525606 839.181818182 816.430664062 801 c 5
 643.190811664 745.807960706 527.965719413 596.984455959 513.430664062 451 c 0
 506.007879088 359.071663004 548.42578125 274.3203125 621.430664062 275 c 0
 699.43359375 275.725585938 718.430664062 348 718.430664062 424 c 0
 718.430664062 477 679.430664062 540 612.430664062 540 c 0
 559.430664062 540 511.430664062 496 511.430664062 446 c 0
 511.430664062 394 518.430664062 379 518.430664062 379 c 1
 480.430664062 363 l 1
 472.430664062 388 473.974609375 400.002929688 474.430664062 442 c 0
EndSplineSet
EndChar

StartChar: si_Ja
Encoding: 34 3490 34
GlifName: si_J_a
Width: 841
VWidth: 6
Flags: HMW
LayerCount: 3
Back
SplineSet
627.404296875 458 m 9xf8
 678.404296875 479 l 25
 678.404296875 479 679.749023438 453.623046875 680.404296875 432 c 0
 681.404296875 399 671.547851562 345.145507812 602.404296875 346 c 0
 520.208984375 347.015625 501.69921875 411.631835938 500.813476562 474 c 0
 498.874023438 610.606445312 602.540039062 725.743164062 751.404296875 771 c 1
 774.404296875 684 l 21
 659.669921875 682.305664062 535.416015625 606.845703125 545.700195312 461 c 0
 549.08203125 413.044921875 571.504882812 386.447265625 604.404296875 385 c 4
 652.76171875 382.873046875 638.551757812 447.357421875 627.404296875 458 c 9xf8
487.404296875 352 m 1
 432.404296875 333 l 1
 424.404296875 358 417.404296875 384 417.404296875 426 c 0
 418.404296875 512 500.404296875 553 561.404296875 553 c 0
 644.404296875 553 705.404296875 507 705.404296875 427 c 0
 705.404296875 349 608.404296875 309 608.404296875 309 c 1
 592.404296875 326 l 1
 626.456054688 347.129882812 641.288085938 377.10546875 641.404296875 417 c 0
 641.538085938 463 598.404296875 494 539.404296875 494 c 0
 492.404296875 494 459.404296875 452 459.404296875 409 c 0
 459.404296875 357 487.404296875 352 487.404296875 352 c 1
109.404296875 209 m 0
 108.404296875 124 193.404296875 45 378.404296875 45 c 0
 553.404296875 45 653.85546875 127.008789062 655.404296875 216 c 0
 657.1796875 318.00390625 529.404296875 348 432.404296875 333 c 1
 452.404296875 373 l 1
 597.404296875 402 730.404296875 331 726.404296875 193 c 0xf4
 721.404296875 29 554.404296875 -59 373.404296875 -59 c 0
 179.404296875 -59 28.404296875 33 30.404296875 180 c 0
 32.404296875 339 198.404296875 394 306.404296875 384 c 1
 277.404296875 345 l 1
 284.404296875 365 297.77734375 386.33203125 293.404296875 415 c 0
 284.404296875 474 229.404296875 505 161.404296875 490 c 0
 194.404296875 511 l 1
 139.404296875 409 l 1
 98.404296875 411 72.0048828125 436.013671875 73.404296875 471 c 0
 75.404296875 521 132.404296875 557 192.404296875 557 c 0
 262.404296875 557 334.404296875 517 336.404296875 439 c 0
 337.404296875 402 331.404296875 370 322.404296875 333 c 1
 198.404296875 351 110.404296875 287 109.404296875 209 c 0
EndSplineSet
Fore
SplineSet
543 393 m 0
 546 652 685 818 856 878 c 1
 875 873 899 844 893 816 c 1
 717 756 614 612 595 451 c 0
 592.78125 432.196289062 591.159179688 413.733398438 592.525390625 396 c 0
 543 393 l 0
EndSplineSet
Refer: 1 3508 N 1 0 0 1 -9.59567 0 2
EndChar

StartChar: si_Ttha
Encoding: 39 3496 39
GlifName: si_T_tha
Width: 858
VWidth: 16
Flags: HMW
LayerCount: 3
Back
SplineSet
462.158203125 305 m 1
 479.842773438 392.088867188 423.509765625 448.735351562 326.158203125 440 c 1
 276.158203125 358 l 1
 246.158203125 361 222.158203125 378 222.158203125 415 c 0
 222.158203125 482 294.158203125 507 347.158203125 507 c 0
 427.158203125 507 502.814453125 457.983398438 507.158203125 373 c 0
 509.724609375 322.791015625 503.158203125 304.083007812 496.158203125 282 c 1
 462.158203125 305 l 1
494.600585938 293 m 1
 468.600585938 305 430.625976562 291.521484375 397.600585938 290 c 0
 301.790039062 285.69921875 221.788085938 248.908203125 220.600585938 161 c 0
 219.958007812 113.450195312 262.443359375 71.2998046875 340.158203125 71 c 0
 406.189453125 70.7548828125 462.600585938 111.124023438 462.600585938 205 c 1
 469.604492188 205.030273438 494.456054688 205.259765625 501.158203125 205.6796875 c 1
 501.158203125 108.375 565.352539062 71.36328125 620.158203125 71 c 0
 701.009765625 70.4794921875 752.059570312 143.420898438 756.600585938 317 c 0
 762.427734375 552.506835938 614.084960938 660.170898438 469.600585938 663 c 0
 328.174804688 665.685546875 238.720703125 574 235.600585938 574 c 1
 202.600585938 625 l 0
 252.57421875 663.076171875 341.837890625 712.578125 460.600585938 712 c 0
 681 710.90234375 831.422851562 549.208007812 832.600585938 312 c 0
 833.336914062 149.983398438 781.153320312 -37.759765625 624.158203125 -41 c 0
 554.272460938 -42.470703125 498.403320312 -12.5888671875 478.600585938 51 c 1
 455.575195312 -17 386.48046875 -41.2734375 328.158203125 -41 c 0
 236.216796875 -40.5693359375 153.448242188 9.8798828125 149.600585938 128 c 0
 145.065429688 267.220703125 284.571289062 328.831054688 395.600585938 332 c 0
 467.600585938 334 484.600585938 319 484.600585938 319 c 1
 494.600585938 293 l 1
EndSplineSet
Fore
SplineSet
334 764 m 1
 373 778 l 1
 461 746 440.103515625 644.362304688 475 586 c 0
 506.456054688 538.173828125 593.485351562 530.34765625 691 566 c 1
 714 524 l 1
 638.420898438 473.866210938 477.254882812 445.194335938 421 556 c 0
 388 621 396 728 334 764 c 1
46 223 m 0
 46 408 197.407226562 521 326 521 c 1
 333 507 340 482 332 452 c 1
 213.768554688 452 106 383 106 250 c 0
 106 140 166.8515625 74 264 74 c 0
 350.400390625 74 399 131 399 218 c 1
 412 223 427 226 440 223 c 1
 440 124 497.6640625 70 573 70 c 0
 692.8359375 70 740.767578125 202.649414062 742 355 c 0
 744.040039062 607.181640625 526 734.296875 334 763 c 1
 334 779 335 795 344 811 c 1
 625.447265625 770.130859375 812 577.024414062 812 341 c 0
 812 169.357421875 753.029296875 -30 569 -30 c 0
 473.94140625 -30 412.764648438 24 409 107 c 1
 427 107 l 1
 429.135742188 31 361.853515625 -29.34375 270 -30 c 0
 132.87890625 -31 46 67 46 223 c 0
EndSplineSet
EndChar

StartChar: si_Dda
Encoding: 40 3497 40
GlifName: si_D_da
Width: 913
VWidth: 16
Flags: HMW
LayerCount: 3
Back
SplineSet
453.30859375 715.259765625 m 4
 363.974609375 715.259765625 294.026367188 684.611328125 253.13671875 660.07421875 c 5
 239.989257812 668.690429688 230.484375 705.057617188 241.440429688 728.413085938 c 5
 298.615234375 755.336914062 357.857421875 769.006835938 454.857421875 769.006835938 c 4
 682.029296875 769.006835938 868.797851562 604.587890625 868.797851562 346.625 c 4
 868.797851562 150.35546875 802.99609375 -37 634.357421875 -37 c 4
 558.641601562 -37 498.451171875 -6.0986328125 476.790039062 56 c 5
 456.432617188 -6.640625 379.590820312 -37 320.315429688 -37 c 4
 201.836914062 -37 124.760742188 40.681640625 124.760742188 161.486328125 c 4
 124.760742188 301.767578125 249.002929688 381.260742188 346.790039062 382 c 5
 337.514648438 350.391601562 l 5
 261.80859375 350.391601562 192.787109375 266.797851562 192.787109375 191.115234375 c 4
 192.787109375 103.3359375 248.630859375 66 326.9921875 66 c 4
 398.512695312 66 460.790039062 106.407226562 460.790039062 200 c 5
 467.793945312 204.268554688 492.645507812 208.076171875 499.34765625 202.6796875 c 5
 499.34765625 107.482421875 565.836914062 66 634.434570312 66 c 4
 738.844726562 66 797.977539062 187.260742188 797.977539062 359.989257812 c 4
 797.977539062 566.508789062 670.763671875 715.259765625 453.30859375 715.259765625 c 4
62.34765625 386 m 5
 476.34765625 383 l 5
 471.34765625 341 l 5
 168.34765625 341 l 5
 64.34765625 324 l 5
 53.6669921875 338.057617188 46.69921875 367.249023438 62.34765625 386 c 5
438.34765625 363 m 5
 440.51953125 373.696289062 441.575195312 383.93359375 441.575195312 393.647460938 c 4
 441.575195312 457.63671875 395.768554688 493.885742188 321.638671875 493.885742188 c 4
 315.405273438 493.885742188 308.970703125 493.59375 302.34765625 493 c 5
 255.34765625 415 l 5
 225.34765625 418 201.34765625 432 201.34765625 469 c 4
 201.34765625 536 270.34765625 560 323.34765625 560 c 4
 413.426757812 560 483.915039062 509.989257812 483.915039062 410.237304688 c 4
 483.915039062 376.047851562 477.287109375 359.739257812 471.34765625 341 c 5
 438.34765625 363 l 5
EndSplineSet
Fore
SplineSet
37.5888671875 312 m 1
 35.5888671875 334 37.5888671875 356 41.5888671875 369 c 1
 468.588867188 369 l 1
 473.588867188 326 l 1
 158.588867188 326 l 1
 37.5888671875 312 l 1
403 348 m 0
 438.454545455 347.78671875 461.246753247 369.6 468 372 c 1
 434 351 l 1
 440.875 367.725806452 445 383.207305503 445 412 c 0
 445 477.006493506 385.555324929 506 336 506 c 0
 289.72 506 263.2 474.95 258 460 c 1
 257.5390625 477.506544682 250.777614522 499.139389752 309 522 c 1
 260 407 l 1
 215.681818182 409.031746032 195 438.629808986 195 471 c 0
 195 520.5 236.875 570 329 570 c 0
 416.011653167 570 491 508.088424733 491 415 c 0
 491 380.604651163 482.2 347.220930233 473 328 c 1
 459 337.090909091 372.997813809 348.180481901 403 348 c 0
108.198242188 167 m 0
 109.95245109 308.844317336 231.821365733 368.020247395 329.198242188 369 c 1
 329.198242188 331 l 1
 243.878856594 331 173.198242188 279.769586268 173.198242188 190 c 0
 173.198242188 124.6648125 219.289458403 74 301.198242188 74 c 0
 391.341833587 74 444.198242188 131 444.198242188 218 c 1
 457.198242188 223 472.198242188 226 485.198242188 223 c 1
 485.198242188 130.470703125 551.671875 80 624.198242188 80 c 0
 754.594099184 80 794.198242188 216.347218355 794.198242188 364 c 0
 794.198242188 602.346762177 643.699124897 718 436.198242188 718 c 0
 300.420464408 718 204.108203124 648 201.198242188 648 c 1
 186.198242188 664 190.198242188 694 195.198242188 714 c 1
 244.337083003 742.089512087 323.131638151 777 442.198242188 777 c 0
 683.046213033 777 862.198242188 618.211759514 862.198242188 354 c 0
 862.198242188 189.665260768 804.667312441 -20 626.198242188 -20 c 0
 513.177541333 -20 456.325439453 40 455.198242188 117 c 1
 473.198242188 117 l 1
 475.414479325 37 394.51301573 -19.2586595924 299.198242188 -20 c 0
 188.96731061 -20.9942491319 106.760254613 48.6393305942 108.198242188 167 c 0
EndSplineSet
EndChar

StartChar: si_Nna
Encoding: 42 3499 42
GlifName: si_N_na
Width: 1372
VWidth: 30
Flags: HMW
LayerCount: 3
Back
SplineSet
777.5 315 m 5
 775.5 478 866.5 512 916.5 512 c 4
 962.5 512 1024.5 482 1029.5 404 c 5
 1025.5 403 l 5
 1041.5 485 1111.5 516 1161.5 516 c 4
 1266.5 516 1351.5 442 1351.5 259 c 4
 1351.5 120 1301.5 -30 1145.5 -30 c 4
 1066.5 -30 976.5 8 976.5 162 c 5
 995.5 170 1015.5 167 1023.5 162 c 5
 1024.5 74 1079.5 39 1135.5 39 c 4
 1219.5 39 1246.78320312 146.994140625 1248.5 238 c 4
 1251.5 397 1210.5 460 1141.5 460 c 4
 1084.5 460 1054.5 388 1054.5 266 c 5
 1039.5 258 1015.5 255 1003.5 263 c 5
 1002.5 381.622070312 974.497070312 447.875976562 914.5 449 c 4
 811.5 450.9296875 818.5 289.7890625 787.5 174 c 5
 777.5 315 l 5
30.5 143 m 261
 219.5 320 879.5 746 1029.5 849 c 261
 1045.5 844 1063.5 827 1064.5 811 c 261
 946.5 730 340.5 360 136.5 187 c 261
 201.5 197 280.5 57 471.5 57 c 260
 634.5 57 725.5 175 725.5 300 c 260
 725.5 491 613.5 569 493.5 569 c 260
 359.5 569 249.5 458 249.5 357 c 260
 249.5 205 400.5 194 464.5 194 c 4
 510.5 194 546.5 226 546.5 269 c 260
 546.5 310 520.5 337 479.5 337 c 260
 438.5 337 411.5 304 411.5 263 c 260
 411.5 222 436.5 182 467.5 182 c 261
 467.5 152 l 261
 418.5 152 369.5 200 369.5 259 c 260
 369.5 328 424.5 385 493.5 385 c 260
 565.5 385 607.5 331 607.5 272 c 260
 607.5 200 554.5 137 455.5 137 c 260
 314.5 137 208.5 222 208.5 356 c 260
 208.5 515 343.5 622 500.5 622 c 260
 676.5 622 806.5 479 806.5 292 c 260
 806.5 173 740.5 -32 478.5 -32 c 260
 241.5 -32 229.5 143 126.5 143 c 260
 93.5 143 75.5 124 59.5 110 c 261
 35.5 118 26.5 132 30.5 143 c 261
EndSplineSet
Fore
SplineSet
0 1302 m 1049
798.5 286 m 1,0,1
 789.385575457 378.783750495 843.741149573 452 904.5 452 c 0,2,3
 961.319291352 452 1001.55579494 407.153440505 998.5 334 c 1,4,-1
 985.5 323 l 1,5,6
 994.022875817 453.052584135 1067.91993464 516 1148.5 516 c 0,7,8
 1232.66342747 516 1321.5 444.879377432 1321.5 269 c 0,9,10
 1321.5 125.190311419 1271.5 -30 1115.5 -30 c 0,11,12
 1046.5 -30 946.5 8 946.5 162 c 1,13,14
 965.5 170 985.5 167 993.5 162 c 1,15,16
 994.5 66.8455284553 1053.5 29 1110.5 29 c 0,17,18
 1204.5 29 1235.71939195 143.44487435 1237.5 239 c 0,19,20
 1240.22200787 385.074709323 1185.10986328 442 1122.5 442 c 0,21,22
 1069.42903191 442 1024.5 373.711365582 1024.5 258 c 1,23,24
 1017.5 239.922701322 985.5 237.615009014 973.5 243 c 1,25,26
 972.348484848 329.735076122 955.082809714 378.674944715 897.5 379 c 0,27,28
 847.850193299 379.280273438 815.415431701 317.116338315 803.5 215 c 1,29,-1
 798.5 286 l 1,0,1
294.5 339 m 256,30,31
 294.5 489.349609375 429.173648432 574.634699907 538.5 571 c 256,32,33
 688.892541822 566 810.5 458.420898438 810.5 274 c 256,34,35
 810.5 151.370117188 719.244140625 -35 517.5 -35 c 256,36,37
 261.552734375 -35 245.359375 164 106.5 164 c 256,38,39
 87.158203125 164 76.912109375 159.508789062 59.5 154 c 1,40,-1
 92.5 169 l 1,41,42
 83.30859375 160.87109375 58.9990234375 131.4609375 53.5 122 c 257,43,44
 38.0517578125 128.515625 21.5 146.7578125 21.5 165 c 257,45,46
 77.8474651185 230.360967221 225.000855426 395.796532136 359.5 532 c 0,47,48
 501.712715736 676.01478254 699.658351289 837.874872751 756.5 879 c 257,49,50
 781.892949695 869.887057231 804.5 835.791015625 804.5 817 c 257,51,52
 670.9951539 738.616210938 566.471757046 654.573822807 382.5 485 c 0,53,54
 274.222637195 385.196602842 166.870109675 257.79006208 108.5 189 c 1,55,-1
 76.5 194 l 257,56,57
 87.353515625 197.819335938 99.6044992781 211.321698796 131.5 210.76953125 c 0,58,59
 261.864257812 208.512695312 289.545898438 61 500.5 61 c 256,60,61
 679.458188221 61 751.5 179.858075711 751.5 304 c 256,62,63
 751.5 444.882260923 642.975636593 509.508282018 538.5 515 c 256,64,65
 411.950442454 521.652024371 342.5 437.38465507 342.5 351 c 256,66,67
 342.5 234.382051542 444.505217072 203 496.5 203 c 0,68,69
 537.272460938 203 565.5 231.439288072 565.5 268 c 256,70,71
 565.5 294.759765625 547.88671875 314 514.5 314 c 256,72,73
 479.558810764 314 454.5 282.589423076 454.5 250 c 256,74,75
 454.5 214.103591919 474.589285714 191 499.5 191 c 257,76,-1
 509.5 161 l 257,77,78
 464.178710938 161 412.5 192.745117188 412.5 252 c 256,79,80
 412.5 317.305555519 463.336931981 371 527.5 371 c 256,81,82
 591.645862926 371 632.5 330 632.5 272 c 256,83,84
 632.5 215.706984747 591.939996207 146.878121103 497.5 149 c 256,85,86
 382.190099379 151.436722736 294.5 231.336425782 294.5 339 c 256,30,31
EndSplineSet
Layer: 2
SplineSet
681.5 255 m 5
 678.923828125 455.229492188 778.099609375 512 842.5 512 c 4
 900.266601562 512 961.653320312 464.592773438 958.5 384 c 5
 935.5 373 l 5
 953.5 476.76953125 1032.25 516 1088.5 516 c 4
 1182.81738281 516 1271.5 442 1271.5 259 c 4
 1271.5 120 1221.5 -30 1065.5 -30 c 4
 986.5 -30 896.5 8 896.5 162 c 5
 915.5 170 935.5 167 943.5 162 c 5
 944.5 74 999.5 39 1055.5 39 c 4
 1139.5 39 1166.78515625 146.994140625 1168.5 238 c 4
 1171.38769531 391.270507812 1131.92089844 452 1065.5 452 c 4
 1005.87890625 452 974.5 397.814453125 974.5 306 c 5
 959.5 271.333007812 935.5 258.333007812 923.5 293 c 5
 922.5 392.490234375 894.497070312 448.0859375 834.5 449 c 4
 728.255859375 450.9296875 735.4765625 289.7890625 703.5 174 c 5
 681.5 255 l 5
-69.5 153 m 261
 119.5 327.528320312 799.5 757.438476562 949.5 859 c 261
 965.5 855.041992188 983.5 833.666992188 984.5 821 c 261
 867.745117188 738.702148438 248.34765625 332.291992188 46.5 187 c 261
 109.668945312 197 205.879882812 57 391.5 57 c 260
 554.5 57 645.5 175 645.5 300 c 260
 645.5 491 529.155273438 569 404.5 569 c 260
 279.287109375 569 176.5 486.584960938 176.5 377 c 260
 176.5 234.325195312 287.467773438 224 334.5 224 c 4
 380.5 224 416.5 260.266601562 416.5 309 c 260
 416.5 350 389.3359375 377 346.5 377 c 260
 299.470703125 377 268.5 339.541015625 268.5 293 c 260
 268.5 252 299.303710938 212 337.5 212 c 261
 337.5 182 l 261
 283.5 182 229.5 238.971679688 229.5 309 c 260
 229.5 372.5234375 283.168945312 425 350.5 425 c 260
 432.60546875 425 480.5 371 480.5 312 c 260
 480.5 234.666992188 429.940429688 167 335.5 167 c 260
 217.333984375 167 128.5 240.356445312 128.5 356 c 260
 128.5 515 259.338867188 622 411.5 622 c 260
 592.676757812 622 726.5 479 726.5 292 c 260
 726.5 173 640.5 -32 398.5 -32 c 260
 161.5 -32 129.5 153 26.5 153 c 260
 -6.5 153 -24.5 134 -40.5 120 c 261
 -64.5 128 -73.5 142 -69.5 153 c 261
EndSplineSet
Substitution2: "'ss02' Style Set 2 in Sinhala lookup 23-1" si_Nna.ss01
EndChar

StartChar: si_Tha
Encoding: 44 3502 44
GlifName: si_T_ha
Width: 831
VWidth: 16
Flags: HMW
LayerCount: 3
Fore
SplineSet
776 369 m 1
 776 134.365234375 638.544921875 -36 427 -36 c 0
 165.389648438 -36 48 108 48 253 c 0
 48 431.356445312 180.498046875 530 312 530 c 1
 330 521.23046875 334.25 491.626953125 327 473 c 1
 186.295898438 473 105 393.1171875 105 279 c 0
 105 153 226.620117188 64 419 64 c 0
 620.866210938 64 710.9296875 226 713 376 c 1
 715.987304688 626.2265625 505.896484375 755.862304688 320.698242188 784 c 1
 314.698242188 798 312.698242188 832 325.698242188 842 c 1
 616.698242188 792.10546875 775.698242188 599.512695312 776 369 c 1
320.698242188 785 m 1
 359.698242188 806 l 1
 447.698242188 774 429.13671875 673.697265625 461.698242188 614 c 0
 491.698242188 559 574.698242188 550 667.698242188 591 c 1
 690.698242188 554 l 1
 617.698242188 507 460.740234375 479.522460938 407.698242188 584 c 0
 374.698242188 649 382.698242188 749 320.698242188 785 c 1
EndSplineSet
EndChar

StartChar: si_Da
Encoding: 45 3503 45
GlifName: si_D_a
Width: 618
VWidth: 13
Flags: HMW
LayerCount: 3
Back
SplineSet
536.106445312 -389.28125 m 1
 392.545898438 -403.743164062 333.763671875 -298.6640625 330.015625 -231 c 4
 327.322265625 -146.361328125 383.14453125 -34.4345703125 523.015625 16 c 1
 535.015625 18.3330078125 543.015625 -0.3330078125 507.015625 2 c 1
 267.522460938 -90.2666015625 52.9150390625 -4.337890625 55.015625 165 c 0
 56.935546875 319.76171875 219.903320312 393.12109375 411.015625 394 c 0
 470.018554688 394.271484375 513.015625 385 513.015625 385 c 1
 513.015625 387.5 502.370117188 375.5 502.015625 378 c 1
 505.615234375 475 387.015625 506 332.015625 498 c 1
 276.015625 409 l 1
 230.015625 412 209.572265625 452.114257812 219.015625 488 c 0
 234.015625 545 287.015625 571 350.015625 571 c 0
 422.015625 571 520.015625 528 534.015625 444 c 0
 543.111328125 389.426757812 527.015625 345 527.015625 345 c 1
 527.015625 343 l 1
 287.473632812 364.4921875 176.551757812 306.422851562 166.015625 199 c 0
 152.364257812 59.8173828125 317.245117188 -31.3037109375 563.015625 57 c 1
 579.015625 23 l 1
 485.79296875 -18.275390625 439.576171875 -95.525390625 428.015625 -148 c 0
 412.9453125 -208.849609375 407.454101562 -324.783203125 559.374023438 -359.80859375 c 1
 536.106445312 -389.28125 l 1
EndSplineSet
Fore
SplineSet
50 183 m 0
 50 344.709960938 192.791992188 424 387 424 c 0
 460.818359375 424 513 415 513 415 c 1
 513 419.857421875 497.3125 390.747070312 498 398 c 0
 508 503.432617188 411.948242188 531.139648438 352 528 c 1
 296 439 l 1
 250.389648438 442.193359375 227 473.064453125 227 505 c 0
 227 568.360351562 286.330078125 601 357 601 c 0
 438.818359375 601 537 539 537 440 c 0
 537 400 529 376 527 373 c 1
 484.315429688 376 444.217773438 377 408 377 c 0
 235.71484375 377 141 306.219726562 141 199 c 0
 141 111.19921875 221.015625 47 358 47 c 0
 418.02734375 47 509.768554688 63.9228515625 563 91 c 1
 575 86.142578125 578 52.142578125 573 40 c 1
 473.9453125 -6.1376953125 421 -82.8603515625 421 -174 c 0
 421 -233 447 -304 559 -330 c 1
 558 -340 549 -351 536 -359 c 1
 527 -360 518 -361 510 -361 c 0
 388.47265625 -361 335 -263.590820312 335 -196 c 0
 335 -105.278320312 389.549804688 -10.373046875 523 37 c 1
 507 26 l 1
 436.4921875 -2.7373046875 368.088867188 -16 306 -16 c 0
 153.842773438 -16 50 62 50 183 c 0
EndSplineSet
EndChar

StartChar: si_Dha
Encoding: 46 3504 46
GlifName: si_D_ha
Width: 861
VWidth: 16
Flags: HMW
LayerCount: 3
Back
SplineSet
398.62109375 284 m 5
 263.125 301.37890625 136.086914062 252.458984375 140.62109375 158 c 4
 143.690429688 87.791015625 231.892578125 45.1572265625 377.62109375 46 c 4
 571.62109375 47.1220703125 679.62109375 174.791015625 679.62109375 339 c 4
 679.62109375 547.71875 570.5625 679.712890625 354.62109375 677 c 4
 231.684570312 675.456054688 144.931640625 606 141.62109375 606 c 5
 109.62109375 660 l 5
 151.857421875 688.125 232 735.633789062 370.62109375 735 c 4
 578.4375 734.018554688 742.62109375 582.319335938 742.62109375 331 c 4
 742.62109375 111.353515625 611.036132812 -48.5791015625 387.62109375 -58 c 4
 205.177734375 -65.2548828125 61.970703125 8.0341796875 58.62109375 137 c 4
 54.865234375 299.32421875 252.060546875 339.377929688 366.62109375 332 c 5
 366.62109375 402 316.62109375 438 224.62109375 438 c 5
 198.62109375 357 l 5
 147.62109375 350 113.381835938 378.857421875 121.62109375 425 c 4
 131.62109375 481 189.62109375 500 236.62109375 500 c 4
 312.62109375 500 402.620117188 463 406.62109375 359 c 4
 408.004882812 323.026367188 398.62109375 284 398.62109375 284 c 5
EndSplineSet
Fore
SplineSet
41 221 m 4
 41 410.848632812 185.3203125 511 315 511 c 4
 375 511 406 492 406 492 c 5
 411.5 478.444335938 409 449.599609375 400 439 c 5
 374.475585938 450 342.29296875 455 309 455 c 4
 209.569335938 455 108 373.774414062 108 244 c 4
 108 153.193359375 165.466796875 85 262 85 c 4
 357.110920009 85 397 143.741258741 397 235 c 5
 409.69047619 240 425.30952381 243 438 240 c 5
 438 150.065359477 477.483398438 80 578 80 c 4
 696.283203125 80 753 208.173828125 753 356 c 4
 753 599.733398438 581.943083935 715 383 715 c 4
 249.94140625 715 152.936523438 643 150 643 c 5
 135 659 139 689 144 709 c 5
 195.030273438 741 273.350585938 774 397 774 c 4
 639.56443549 774 820 611.009765625 820 358 c 4
 820 170.325195312 753.822265625 -20 576 -20 c 4
 470.396484375 -20 404.861328125 41.2119140625 405 116 c 5
 424 117 l 5
 425.963867188 48 360.029296875 -18.3857421875 266 -19 c 4
 124.4140625 -19.8583984375 41 76.830078125 41 221 c 4
EndSplineSet
EndChar

StartChar: si_Nda
Encoding: 47 3507 47
GlifName: si_N_da
Width: 687
VWidth: 13
Flags: HMW
LayerCount: 3
Fore
SplineSet
55.435546875 279 m 4
 53.2080078125 458.305664062 180.4609375 601.938476562 417.435546875 601 c 4
 469.435546875 531 l 5
 364.435546875 551 l 5
 214.741210938 544.853515625 104.952148438 416.77734375 108.435546875 258 c 4
 109.625976562 195.8828125 157.245117188 111.764648438 233.435546875 82 c 5
 200.435546875 42 l 5
 118.076171875 91.0830078125 56.7490234375 173.306640625 55.435546875 279 c 4
EndSplineSet
Refer: 45 3503 N 1 0 0 1 68.436 0 2
EndChar

StartChar: si_Pha
Encoding: 48 3509 48
GlifName: si_P_ha
Width: 832
VWidth: 16
Flags: HMW
LayerCount: 3
Back
SplineSet
366.474609375 671.124023438 m 1
 437.658203125 680 l 1
 436.500976562 652.919921875 471.834960938 567.0546875 511.658203125 549 c 0
 587.76171875 516.365234375 626.82421875 581.057617188 683.658203125 533 c 1
 700.658203125 500 l 1
 631.793945312 518.92578125 581.15234375 455.291015625 489.658203125 485.301757812 c 0
 399.135742188 516.791992188 420.080078125 651.103515625 366.474609375 671.124023438 c 1
435.163085938 668.212890625 m 0
 389.36328125 677.881835938 386.477539062 669.99609375 344.658203125 663 c 1
 345.658203125 731 l 1
 670.71484375 730.212890625 789.658203125 516.80859375 789.658203125 311 c 0
 789.658203125 91.0390625 669.627929688 -50.3818359375 479.658203125 -58 c 0
 270.94921875 -65.8603515625 156.022460938 17.8017578125 152.658203125 121 c 0
 148.272460938 269.0703125 301.62890625 309.060546875 414.658203125 303 c 5
 407.658203125 375.333007812 359.658203125 419 291.658203125 408 c 5
 265.658203125 327 l 1
 219.294921875 320 188.16796875 348.857421875 195.658203125 395 c 0
 205.049804688 451 259.51953125 470 303.658203125 470 c 0
 369.658203125 470 449.657226562 443 453.658203125 339 c 0
 455.041992188 303.026367188 445.658203125 252 445.658203125 252 c 1
 317.908203125 268.000976562 225.001953125 233.91015625 225.658203125 156 c 4
 226.198242188 85.6572265625 319.706054688 50.9384765625 463.658203125 52 c 0
 636.561523438 53.2998046875 727.658203125 160.372070312 727.658203125 346 c 0
 727.658203125 548.7109375 568.944335938 641.901367188 435.163085938 668.212890625 c 0
EndSplineSet
Fore
SplineSet
319.5 412 m 1
 326.76953125 412 334.038085938 412 340.5 411 c 1
 340.5 480.33984375 280.5 516 208.5 516 c 1
 148.5 435 l 1
 125.224609375 435 95.196535834 452.993993297 94.5 492 c 0
 93.5 548 150.5 581 209.5 581 c 0
 287.5 581 383.5 532 383.5 423 c 0
 383.5 385.861538462 375.5 352 375.5 352 c 1
 357.5 354 336.5 355 318.5 355 c 1
 225.849712665 355.583342634 112.5 310.34155971 112.5 217 c 0
 112.5 124.534955315 223.975841202 73 388.5 73 c 4
 622.473333333 73 714.917070759 221.493623758 716.5 370 c 0
 718.539451182 611.694300518 509.015625 765.098445596 333.5 796 c 1
 327.5 810 325.5 844 338.5 854 c 1
 598.906818182 810.46799117 777.5 611.309050773 777.5 361 c 0
 777.5 124 632.316438356 -36 393.5 -36 c 4
 154.18373494 -36 52.5 70.3744292237 52.5 188 c 0
 52.5 344.072631279 185.717773438 410.694492009 319.5 412 c 1
333.5 797 m 1
 372.5 818 l 1
 444.107843137 786 427.395629667 684.576016711 455.5 626 c 0
 486.519417476 573.391304348 572.339805825 564.782608696 668.5 604 c 1
 701.5 566 l 1
 624.114840989 519 455.210710239 490.206176801 401.5 596 c 0
 375.706896552 661 381.959770115 761 333.5 797 c 1
EndSplineSet
EndChar

StartChar: si_Ba
Encoding: 49 3510 49
GlifName: si_B_a
Width: 881
VWidth: 6
Flags: HMW
LayerCount: 3
Back
SplineSet
50.5 194 m 4
 50.5 370.166015625 168.9609375 485.158203125 313.5 486 c 4
 475.428710938 486.943359375 561.196289062 367.0859375 546.5 234 c 5
 542.763671875 226.838867188 538.602539062 222.532226562 534.5 220 c 5
 491.642578125 217.407226562 449.5 187.109375 449.5 143 c 4
 449.5 99.2822265625 491.698242188 71 563.5 71 c 4
 672.588867188 71 748.853515625 171.3984375 751.5 343 c 4
 754.6640625 548.19140625 625.75 704 374.5 704 c 4
 244.728515625 704 129.5 625 129.5 625 c 5
 118.010742188 635.227539062 106.334960938 660.014648438 112.5 694 c 5
 112.5 694 215.415039062 766 388.5 766 c 4
 615.084960938 766 820.5 606.782226562 820.5 345 c 4
 820.5 132.70703125 737.966796875 -28 576.5 -28 c 4
 452.041992188 -28 393.5 51.2978515625 393.5 123 c 4
 393.5 208.002929688 455.580078125 255 508.5 267 c 5
 506.5 252 l 5
 504.334960938 342.61328125 385.427734375 400.114257812 296.5 397 c 4
 172.805664062 392.688306925 100.5 314.04296875 100.5 193 c 4
 100.5 93.40625 155.807617188 17.80859375 228.5 20 c 4
 268.118164062 21.1943359375 289.5 44.2001953125 289.5 73 c 4
 289.5 102.64453125 269.192382812 124 241.5 124 c 4
 209.1328125 124 181.5 104.385742188 181.5 57 c 4
 181.5 33.2724609375 190.534179688 13.3935546875 217.5 9 c 5
 193.5 -2 l 5
 169.163085938 0.150390625 142.5 24.1748046875 142.5 69 c 4
 142.5 137.201171875 192.97265625 180 246.5 180 c 4
 298.745117188 180 344.5 142.959960938 344.5 81 c 4
 344.5 26.63671875 300.852539062 -27 227.5 -27 c 4
 96.661132812 -27 50.5 98.2099609375 50.5 194 c 4
EndSplineSet
Fore
SplineSet
50.5 194 m 0
 50.5 370.166015625 173.465155656 485.158203125 323.5 486 c 0
 485.428710938 486.943359375 571.196289062 367.0859375 556.5 234 c 1
 552.763671875 226.838867188 548.602539062 222.532226562 544.5 220 c 1
 496.600528493 217.407226562 449.5 187.109375 449.5 143 c 0
 449.5 99.2822265625 491.698242188 71 563.5 71 c 0
 678.391466507 71 758.71274518 171.3984375 761.5 343 c 4
 764.613706068 548.19140625 627.910477454 704 390.5 704 c 4
 270.26274713 704 163.5 634 163.5 634 c 5
 152.010742188 644.227539062 140.334960938 669.014648438 146.5 703 c 5
 146.5 703 246.431994452 766 414.5 766 c 4
 632.692925348 766 830.5 606.782226562 830.5 345 c 4
 830.5 132.70703125 744.58428855 -28 576.5 -28 c 0
 452.041992188 -28 393.5 51.2978515625 393.5 123 c 0
 393.5 208.002929688 460.978345788 255 518.5 267 c 1
 516.5 252 l 1
 514.334960938 342.61328125 395.427734375 400.114257812 306.5 397 c 0
 176.494728555 392.688306925 100.5 314.04296875 100.5 193 c 0
 100.5 93.40625 155.807617188 17.80859375 228.5 20 c 0
 268.118164062 21.1943359375 289.5 44.2001953125 289.5 73 c 0
 289.5 102.64453125 269.192382812 124 241.5 124 c 0
 209.1328125 124 181.5 104.385742188 181.5 57 c 0
 181.5 33.2724609375 190.534179688 13.3935546875 217.5 9 c 1
 193.5 -2 l 1
 169.163085938 0.150390625 142.5 24.1748046875 142.5 69 c 0
 142.5 137.201171875 192.97265625 180 246.5 180 c 0
 298.745117188 180 344.5 142.959960938 344.5 81 c 0
 344.5 26.63671875 300.852539062 -27 227.5 -27 c 0
 96.661132812 -27 50.5 98.2099609375 50.5 194 c 0
EndSplineSet
Layer: 2
SplineSet
41 221 m 4
 41 410.848632812 185.3203125 511 315 511 c 4
 375 511 406 492 406 492 c 5
 411.5 478.444335938 409 449.599609375 400 439 c 5
 374.475585938 450 342.29296875 455 309 455 c 4
 209.569335938 455 108 373.774414062 108 244 c 4
 108 153.193359375 165.466796875 85 262 85 c 4
 357.110920009 85 397 143.741258741 397 235 c 5
 409.69047619 240 425.30952381 243 438 240 c 5
 438 150.065359477 477.483398438 80 578 80 c 4
 696.283203125 80 753 208.173828125 753 356 c 4
 753 599.733398438 581.943083935 715 383 715 c 4
 249.94140625 715 152.936523438 643 150 643 c 5
 135 659 139 689 144 709 c 5
 195.030273438 741 273.350585938 774 397 774 c 4
 639.56443549 774 820 611.009765625 820 358 c 4
 820 170.325195312 753.822265625 -20 576 -20 c 4
 470.396484375 -20 404.861328125 41.2119140625 405 116 c 5
 424 117 l 5
 425.963867188 48 360.029296875 -18.3857421875 266 -19 c 4
 124.4140625 -19.8583984375 41 76.830078125 41 221 c 4
EndSplineSet
EndChar

StartChar: si_Bha
Encoding: 50 3511 50
GlifName: si_B_ha
Width: 1101
VWidth: 6
Flags: HMW
LayerCount: 3
Back
SplineSet
52.2685546875 373 m 5
 431.268554688 372 l 5
 426.268554688 331 l 5
 135.268554688 326 l 5
 51.2685546875 308 l 5
 52.2685546875 373 l 5
EndSplineSet
Refer: 57 3524 S 1 0 0 1 87.2688 0 2
Fore
SplineSet
53.56640625 336 m 1
 48.56640625 358 47.56640625 377 53.56640625 393 c 1
 432.56640625 393 l 1
 434.56640625 351 l 1
 138.56640625 351 l 1
 53.56640625 336 l 1
EndSplineSet
Refer: 57 3524 N 1 0 0 1 87.5664 -5 2
EndChar

StartChar: si_Ma
Encoding: 51 3512 51
GlifName: si_M_a
Width: 859
VWidth: 16
Flags: HMW
LayerCount: 3
Fore
SplineSet
50.00390625 286 m 4
 49.00390625 435 134.00390625 515 201.00390625 515 c 4
 246.612014358 515 275.406156959 489.004910787 276.00390625 424 c 4
 277.064402721 308.671584671 366.35870754 285.280522 430.00390625 286 c 4
 520.020507812 287.017593876 574.75020952 332.914073557 576.00390625 404 c 4
 577.40356583 483.362173938 522.004808829 521.587652422 457.00390625 518 c 4
 412.151367188 515.524414062 391.00390625 478.90625 391.00390625 452 c 4
 391.00390625 427 404.00390625 405 438.00390625 405 c 4
 473.00390625 405 490.00390625 436 490.00390625 463 c 4
 490.00390625 492 480.00390625 511 470.00390625 522 c 5
 500.00390625 531 l 5
 516.00390625 516 526.00390625 488 526.00390625 457 c 4
 526.00390625 402.6796875 491.717773438 360 436.00390625 360 c 4
 380.319335938 360 343.00390625 396.813476562 343.00390625 450 c 4
 343.00390625 511.401367188 394.220406955 564 468.00390625 564 c 4
 559.962504976 564 622.00390625 493.180379747 622.00390625 403 c 4
 622.00390625 314.366145833 559.688476562 221 432.00390625 221 c 4
 317.034179688 221 235.442279617 278.519705005 233.00390625 398 c 4
 232.00390625 447 220.00390625 462 195.00390625 462 c 4
 147.00390625 462 106.835399064 402.997904286 108.00390625 311 c 4
 110.0234375 152 257.418766305 68.1160138257 425.00390625 67 c 4
 638.665039062 65.5771484375 740.545671804 211.127025003 747.00390625 369 c 4
 754.678710938 556.612304688 629.979492188 710 398.00390625 710 c 4
 273.728515625 710 184.13671875 642 181.00390625 642 c 5
 171.00390625 648 156.00390625 680 163.00390625 705 c 5
 163.00390625 705 265.516591771 768.847268208 418.00390625 765 c 4
 657.595703125 758.955078125 809.00390625 589.61328125 809.00390625 374 c 4
 809.00390625 125.678710938 650.670898438 -35 429.00390625 -35 c 4
 184.850585938 -35 51.2052235094 107.003728344 50.00390625 286 c 4
EndSplineSet
Layer: 2
SplineSet
511.4375 418 m 5
 470.388671875 386.802734375 445.764648438 320.063476562 448.4375 258 c 4
 453.94140625 130.204101562 573.432617188 60.369140625 706.4375 60 c 4
 901.43359375 59.458984375 984.729492188 192.06640625 990.4375 317 c 4
 999.4375 514 894.435546875 663.875976562 697.4375 667 c 4
 576.436523438 668.918945312 482.4375 595 479.4375 595 c 5
 461.4375 621 l 4
 461.4375 621 566.435546875 706.665039062 713.4375 706 c 4
 934.4375 705 1072.4375 549 1062.4375 312 c 4
 1053.62695312 103.185546875 930.4375 -59 709.4375 -59 c 4
 486.4375 -59 386.907226562 63.16796875 384.4375 209 c 4
 382.09765625 347.161132812 443.375 412.219726562 496.4375 451 c 4
 511.4375 450.357421875 l 5
 526.900390625 436 l 5
 524.109375 339.133789062 571.381835938 230.7109375 704.4375 230 c 4
 799.44140625 229.4921875 823.4375 298 823.4375 343 c 4
 823.4375 396.241210938 778.444335938 441.466796875 715.4375 442 c 4
 672.63671875 442.362304688 651.700195312 421.0390625 651.4375 396 c 4
 651.153320312 368.926757812 667.4375 353 696.4375 351.561523438 c 4
 754.474609375 348.682617188 741.446289062 415.986328125 742.4375 445.561523438 c 5
 742.952148438 440.146484375 781.396484375 443.584960938 769.4375 435.561523438 c 5
 785.6875 412.91796875 783.869140625 308.831054688 692.4375 310 c 4
 637.360351562 310.704101562 611.17578125 346.096679688 610.4375 385.856445312 c 4
 609.432617188 440.03125 654.4375 481 717.4375 481 c 4
 787.4375 481 868.4375 438 866.4375 334 c 4
 865.487304688 284.586914062 830.4375 184 697.4375 184 c 4
 567.225585938 184 482.586914062 277.543945312 490.4375 419 c 5
 511.4375 418 l 5
EndSplineSet
EndChar

StartChar: si_Mba
Encoding: 52 3513 52
GlifName: si_M_ba
Width: 865
VWidth: 16
Flags: HMW
LayerCount: 3
Back
SplineSet
682.331054688 -43.013671875 m 0
 850.649414062 -43.013671875 906.6015625 190.034179688 906.6015625 317.23046875 c 0
 906.6015625 538.0703125 777.10546875 743.002929688 506.830078125 743.002929688 c 0
 337.494140625 743.002929688 215.577148438 657 215.577148438 657 c 1
 250.577148438 600 l 1
 253.854492188 600 345.978515625 680.51953125 486.577148438 682 c 0
 751.358398438 684.788085938 835.870117188 534.267578125 835.870117188 325.692382812 c 4
 835.870117188 203.387695312 786.274414062 55.2900390625 670.848632812 55.2900390625 c 0
 616.751953125 55.2900390625 579.951171875 81.6787109375 576.577148438 124.466796875 c 1
 588.83984375 146.537109375 618.577148438 164.547851562 618.577148438 206 c 0
 618.577148438 242.514648438 576.616210938 273.0390625 501.826171875 273.0390625 c 0
 437.514648438 273.0390625 399.553710938 238.702148438 399.553710938 200.985351562 c 0
 399.553710938 164.037109375 423.147460938 139.123046875 443.577148438 125.828125 c 1
 427.806640625 74.7548828125 392.463867188 53.9873046875 331.228515625 53.9873046875 c 0
 243.010742188 53.9873046875 196.57421875 135.182617188 196.57421875 225.384765625 c 0
 196.57421875 328.625 237.400390625 408.010742188 305.637695312 408.010742188 c 0
 341.763671875 408.010742188 348.577148438 371.577148438 348.577148438 328 c 0
 348.577148438 285.559570312 391.823242188 226 515.0625 226 c 0
 625.016601562 226 677.81640625 310.2734375 677.81640625 377.76953125 c 0
 677.81640625 460.4921875 620.237304688 513 545.577148438 513 c 0
 461.125976562 513 428.567382812 452.721679688 428.567382812 413.915039062 c 0
 428.567382812 349.384765625 474.15234375 321.98046875 515.62890625 321.98046875 c 0
 574.938476562 321.98046875 600.79296875 371.37109375 600.79296875 418.228515625 c 0
 600.79296875 436.395507812 596.90625 454.181640625 589.577148438 468.561523438 c 1
 547.577148438 473.561523438 l 1
 558.833007812 459.3125 564.07421875 442.65625 564.07421875 427.069335938 c 0
 564.07421875 398.484375 546.520507812 373.55859375 515.954101562 373.55859375 c 0
 481.98828125 373.55859375 468.569335938 399.428710938 468.569335938 419.184570312 c 0
 468.569335938 443.725585938 491.037109375 473.001953125 529.051757812 473.001953125 c 0
 607.251953125 473.001953125 629.803710938 404.42578125 623.803710938 356.34375 c 0
 619.19140625 319.385742188 599.611328125 272.963867188 509.80859375 272.963867188 c 0
 439.689453125 272.963867188 395.396484375 296.475585938 395.396484375 350 c 0
 395.396484375 419.559570312 358.408203125 456.045898438 312.426757812 456.045898438 c 0
 215.139648438 456.045898438 128.491210938 350.512695312 128.491210938 202.122070312 c 0
 128.491210938 101.249023438 170.270507812 -42.017578125 325.4921875 -42.017578125 c 0
 417.124023438 -42.017578125 489.583007812 20.4423828125 489.583007812 149.018554688 c 0
 489.583007812 150 455.568359375 167.112304688 455.568359375 195.217773438 c 0
 455.568359375 222.396484375 498.637695312 225.1015625 511.330078125 225.1015625 c 0
 516.6484375 225.1015625 562.598632812 219.705078125 562.598632812 194.515625 c 0
 562.598632812 161.596679688 530.577148438 149 530.577148438 149 c 1
 530.413085938 144.627929688 530.33203125 140.3359375 530.33203125 136.122070312 c 0
 530.33203125 12.9931640625 599.407226562 -43.013671875 682.331054688 -43.013671875 c 0
EndSplineSet
Fore
SplineSet
97.4912109375 282 m 4
 97.4912109375 164 161.491210938 65 279.491210938 65 c 4
 315.491210938 65 339.491210938 73 354.491210938 86 c 5
 334.491210938 94 315.491210938 105 315.491210938 134 c 4
 315.491210938 174 354.491210938 206 429.491210938 206 c 4
 496.491210938 206 539.491210938 176 539.491210938 138 c 4
 539.491210938 105 511.491210938 91 492.491210938 86 c 5
 504.491210938 75 534.491210938 65 578.491210938 65 c 4
 697.491210938 65 755.491210938 225 754.491210938 356 c 4
 753.045898438 545.416992188 647.672851562 712 413.491210938 712 c 4
 283.940429688 712 195.7578125 646 192.491210938 646 c 5
 182.491210938 652 167.491210938 684 174.491210938 709 c 5
 174.491210938 709 277.560546875 772.959960938 435.491210938 769 c 4
 670.874023438 763.150390625 815.040039062 576.7265625 817.491210938 361 c 4
 819.491210938 185 764.491210938 -33 583.491210938 -33 c 4
 503.491210938 -33 445.491210938 1 448.491210938 99 c 5
 448.491210938 99 490.491210938 106 490.491210938 129 c 4
 490.491210938 155 458.491210938 162 426.491210938 162 c 4
 393.491210938 162 363.491210938 155 363.491210938 129 c 4
 363.491210938 106 399.491210938 100 399.491210938 99 c 4
 399.491210938 0 329.491210938 -32 263.491210938 -32 c 4
 106.491210938 -32 41.1026857379 110.995954963 39.4912109375 252 c 4
 37.4912109375 427 128.491210938 531 195.491210938 531 c 4
 240.491210938 531 268.8984375 505.004882812 269.491210938 440 c 4
 270.55859375 316.314453125 360.43359375 301.153320312 424.491210938 302 c 4
 504.5078125 303.069335938 558.586914062 348.676757812 560.491210938 416 c 4
 562.46875 485.809570312 506.463867188 528.209960938 441.491210938 524 c 4
 396.638671875 521.524414062 375.491210938 484.90625 375.491210938 458 c 4
 375.491210938 433 388.491210938 411 422.491210938 411 c 4
 457.491210938 411 474.491210938 442 474.491210938 469 c 4
 474.491210938 498 464.491210938 517 454.491210938 528 c 5
 484.491210938 537 l 5
 500.491210938 522 510.491210938 494 510.491210938 463 c 4
 510.491210938 408.6796875 475.205078125 366 419.491210938 366 c 4
 366.806640625 366 328.491210938 400.813476562 328.491210938 454 c 4
 328.491210938 519.401367188 379.478515625 570 451.491210938 570 c 4
 549.241210938 570 606.491210938 490.5 606.491210938 411 c 4
 606.491210938 326.03515625 543.17578125 240 425.491210938 240 c 4
 318.521484375 240 230.067382812 287.772460938 227.491210938 414 c 4
 226.491210938 463 214.491210938 478 189.491210938 478 c 4
 141.491210938 478 97.4912109375 388.912109375 97.4912109375 282 c 4
EndSplineSet
EndChar

StartChar: si_Ya
Encoding: 53 3514 53
GlifName: si_Y_a
Width: 906
VWidth: 6
Flags: HMW
LayerCount: 3
Back
SplineSet
534.0546875 366 m 1xfe
 666.288085938 410.743164062 831.0546875 353.65625 831.0546875 178 c 0
 831.0546875 41.892578125 750.36328125 -53 622.0546875 -53 c 0
 513.431640625 -53 448.95703125 13 447.0546875 108 c 1
 445.0546875 105 480.0546875 111 478.0546875 108 c 1
 471.130859375 27 415.16796875 -51.3505859375 296.0546875 -52 c 0
 149.0703125 -52.837890625 67.765625 49.0859375 67.0546875 178 c 0
 66.3125 339.895507812 178.115234375 459.76953125 310.0546875 464 c 0
 336.060546875 464.833984375 363.0546875 463 387.0546875 453 c 1
 378.0546875 388 l 5
 345.229492188 402.400390625 320.048828125 404.036132812 277.0546875 401 c 4
 208.569335938 396.028320312 127.497070312 344.875976562 129.0546875 219 c 0
 130.189453125 124.959960938 194.83203125 62.5048828125 292.0546875 61 c 0
 371.553710938 59.796875 439.78125 93 442.0546875 197 c 1
 478.0546875 197 l 1
 478.0546875 100 548.987304688 56 630.0546875 56 c 0
 734.275390625 56 769.944335938 116.850585938 771.0546875 188 c 0xfd
 772.250976562 267.428710938 711.828125 384.211914062 514.0546875 321 c 1
 509.0546875 349.743164062 506.7578125 349.853515625 505.0546875 380 c 0
 495.639648438 484.619140625 579.442382812 548.891601562 666.0546875 549 c 0
 737.259765625 549.086914062 803.0546875 514 803.0546875 434 c 0
 803.0546875 338 710.0546875 312 710.0546875 312 c 1
 684.0546875 329 l 1
 684.0546875 329 735.263671875 342.997070312 736.0546875 402 c 0
 736.698242188 449.994140625 685.15625 479.125 641.0546875 479 c 0
 590.16015625 478.870117188 544.59765625 453 539.0546875 401 c 0
 535.0546875 355 552.0546875 339 552.0546875 339 c 1
 534.0546875 366 l 1xfe
EndSplineSet
Fore
SplineSet
50.025390625 218 m 0
 48.44140625 370.408203125 129.349609375 467.067382812 238 500.907226562 c 0
 286.43359375 512.997070312 353.450195312 515.569335938 395.025390625 493 c 1
 398.833007812 474.161132812 388.91015625 444.57421875 383.025390625 437 c 1
 247.385742188 496.954101562 108.5625 422.8203125 107.025390625 246 c 0
 106.055664062 143.946289062 175.890625 74 290.025390625 74 c 0
 366.456054688 74 442.065429688 112.321289062 444.025390625 219 c 1
 449.025390625 225 468.025390625 235 483.025390625 229 c 1
 483.025390625 121.538085938 546.131835938 70 641.025390625 70 c 0
 742.999023438 70 793.840820312 148.954101562 795.025390625 229 c 0
 796.088867188 299.083984375 747.159179688 377 628.025390625 377 c 0
 599.025390625 377 566.025390625 372 528.025390625 359 c 1
 523.025390625 378.54296875 518.025390625 399.114257812 518.025390625 431 c 0
 518.025390625 530 598.432617188 589 685.025390625 589 c 0
 753.87890625 589 824.025390625 552.782226562 824.025390625 470 c 0
 824.025390625 384.088867188 732.025390625 352 732.025390625 352 c 1
 707.025390625 369 l 1
 707.025390625 369 756.025390625 389 756.025390625 448 c 0
 756.025390625 495 711.025390625 524 660.025390625 524 c 0
 607.100585938 524 558.025390625 490 558.025390625 429 c 0
 558.025390625 391.530273438 574.025390625 378 574.025390625 378 c 1
 532.025390625 393 l 1
 548.025390625 406 l 1
 577.025390625 416 606.025390625 421 636.025390625 421 c 0
 748.145507812 421 855.025390625 355 855.025390625 205 c 0
 855.025390625 69 756.498046875 -24 642.025390625 -24 c 0
 522.890625 -24 454.791015625 35.8740234375 450.025390625 146 c 1
 450.025390625 145 451.025390625 145 453.025390625 145 c 0
 459.025390625 145 472.025390625 147 478.025390625 147 c 0
 480.025390625 147 481.107421875 146.997070312 481.025390625 146 c 0
 474.171875 58.291015625 406.509765625 -23 289.025390625 -23 c 0
 132.80078125 -23 51.4384765625 84.34765625 50.025390625 218 c 0
EndSplineSet
EndChar

StartChar: si_La
Encoding: 54 3517 54
GlifName: si_L_a
Width: 929
VWidth: 25
Flags: HMW
LayerCount: 3
Back
SplineSet
357.5 341 m 1
 446.166992188 336.596679688 534.833007812 339.290039062 623.5 341 c 1
 623.5 294 l 1
 357.5 294 l 1
 357.5 341 l 1
622.5 295 m 1
 550.209960938 295 539.5 262 539.5 239 c 0
 539.5 191.264648438 597.500976562 166.736328125 647.5 168 c 0
 733.0859375 170.1640625 783.5 218.852539062 783.5 300 c 0
 783.5 409.952148438 683.022460938 509.96875 508.5 510 c 0
 311.967773438 510.034179688 186.524414062 333.000976562 179.5 145 c 0
 172.034179688 -54.8193359375 282.590820312 -214.833984375 484.5 -232 c 4
 640.89453125 -245.295898438 746.864257812 -168.98046875 792.5 -115 c 0
 838.5 -172 l 0
 795.673828125 -220.060546875 667.952148438 -297.584960938 491.5 -294 c 0
 241.176757812 -288.915039062 69.2578125 -139.141601562 68.5 89 c 0
 67.564453125 370.686523438 266.369140625 564 515.5 564 c 0
 735.043945312 564 851.5 422 851.5 296 c 0
 851.5 155.9453125 764.5 83 644.5 83 c 0
 517.012695312 83 469.50390625 152.776367188 468.5 213 c 0
 467.5 273 510.5 323 550.5 327 c 1
 622.5 295 l 1
EndSplineSet
Fore
SplineSet
372.5 344 m 1
 372.478515625 360.45703125 375.004882812 376.1953125 388.5 389 c 1
 674.5 389 l 1
 673.873046875 367.072265625 669.6875 349.7109375 654.5 344 c 1
 372.5 344 l 1
50.5 133 m 0
 50.5 411.850585938 275.744140625 594 518.5 594 c 0
 762.109375 594 876.5 452.751953125 876.5 328 c 0
 876.5 203.173828125 777.956054688 135 667.5 135 c 0
 546.989257812 135 504.5 198 504.5 257 c 0
 504.5 327 557.5 363 595.5 367 c 1
 653.5 345 l 1
 576.5 345 554.5 319.515625 554.5 287 c 0
 554.5 236.375 606.141601562 215 673.5 215 c 0
 736.859375 215 805.5 253.534179688 805.5 340 c 0
 805.5 446.272460938 718.478515625 539 516.5 539 c 0
 304.930664062 539 144.5 375.733398438 144.5 158 c 0
 144.5 -61.994140625 294.612304688 -214.201171875 514.5 -217 c 4
 678.692382812 -218.930664062 771.112304688 -151.737304688 818.5 -99 c 5
 833.5 -107.326171875 844.409179688 -129.18359375 848.5 -150 c 5
 805.776367188 -194.963867188 709.948242188 -283 510.5 -283 c 4
 217.275390625 -283 50.5 -113.663085938 50.5 133 c 0
EndSplineSet
Layer: 2
SplineSet
352.5 344 m 5
 352.478515625 360.45703125 355.004882812 376.1953125 368.5 389 c 5
 654.5 389 l 5
 653.873046875 367.072265625 649.6875 349.7109375 634.5 344 c 5
 352.5 344 l 5
50.5 142 m 4
 50.5 420.850585938 265.471679688 594 518.5 594 c 4
 749.180664062 594 857.5 457 857.5 336 c 4
 857.5 206 758.484375 135 647.5 135 c 4
 526.989257812 135 484.5 198 484.5 257 c 4
 484.5 327 537.5 363 575.5 367 c 5
 633.5 345 l 5
 556.5 345 534.5 319.515625 534.5 287 c 4
 534.5 236.375 586.141601562 215 653.5 215 c 4
 717.33984375 215 786.5 256 786.5 348 c 4
 786.5 450 705.19921875 539 516.5 539 c 4
 293.4453125 539 147.5 380.733398438 147.5 167 c 4
 147.5 -42.419921875 282.607421875 -195.208984375 514.5 -198 c 4
 669.5703125 -199.748046875 775.745117188 -130.75390625 820.5 -83 c 5
 835.5 -91.326171875 846.409179688 -113.18359375 850.5 -134 c 5
 809.224609375 -175.751953125 705.051757812 -264 508.5 -264 c 4
 227.293945312 -264 50.5 -95.2470703125 50.5 142 c 4
EndSplineSet
EndChar

StartChar: si_Sha
Encoding: 55 3521 55
GlifName: si_S_ha
Width: 985
VWidth: 6
Flags: HMW
LayerCount: 3
Back
SplineSet
892.334960938 287.131835938 m 5x9c
 889.387695312 202.45703125 l 5
 862.8671875 208.05078125 772.361328125 180.313476562 748.004882812 144 c 0
 703.302734375 74.296875 760.693359375 25.1318359375 703.946289062 -23.029296875 c 1
 658.600585938 -14.3720703125 l 1
 698.58984375 40.443359375 644.146484375 100.857421875 688.790039062 176.172851562 c 0
 737.661132812 258.620117188 863.774414062 237.546875 892.334960938 287.131835938 c 5x9c
719.764648438 17.6123046875 m 0
 822.735351562 29.5859375 875.627929688 108.114257812 875.627929688 229.600585938 c 0
 875.627929688 353.83984375 795.364257812 445.533203125 655.942382812 445.533203125 c 0
 575.075195312 445.533203125 464.370117188 397.33203125 457.8828125 254.823242188 c 1
 407.615234375 238.01171875 l 1
 403.662109375 437.1640625 534.456054688 542.603515625 674.684570312 542.603515625 c 0xdc
 846.6484375 542.603515625 939.875 411.889648438 939.875 267.375 c 0
 939.875 101.1640625 855.114257812 -54.5166015625 683.416015625 -55.814453125 c 0
 632.540039062 -56.19921875 592.66015625 -45.9150390625 574.6875 -36.138671875 c 1
 599.45703125 40.328125 l 1
 621.021484375 24.771484375 676.092773438 12.5341796875 719.764648438 17.6123046875 c 0
130.979492188 245.841796875 m 0
 130.229492188 128.7109375 199.219726562 50.8837890625 327.004882812 47.5908203125 c 0
 433.431640625 44.8486328125 504.637695312 87.9111328125 507.004882812 160 c 0
 508.32421875 200.172851562 481.772460938 237 408.004882812 237 c 1
 459.004882812 291 l 1
 508.004882812 290 570.657226562 244.21484375 571.004882812 160 c 0
 571.456054688 47.953125 492.599609375 -55.0048828125 327.603515625 -55.0048828125 c 0
 159.696289062 -55.0048828125 73 61.9140625 73 221.564453125 c 0
 73 428.865234375 229.293945312 536 356.004882812 538 c 0
 363.884765625 462.879882812 l 0xbc
 268.920898438 462.879882812 132.064453125 415.424804688 130.979492188 245.841796875 c 0
EndSplineSet
Fore
SplineSet
395 269 m 1
 400.991210938 467.4453125 518.68359375 577 668 577 c 0
 840.014648438 577 935 440.494140625 935 298 c 0
 935 123.552734375 848.256835938 -29 668 -29 c 0
 675 28 l 0
 820.145507812 30.703125 866 152.2578125 866 269 c 0
 866 418.08203125 761.276367188 487 654 487 c 0
 545.865234375 487 444.379882812 428.76953125 438 263 c 1
 426.272460938 261.799804688 404.727539062 263.200195312 395 269 c 1
50 252 m 0
 50 456.634765625 217.0625 572.083984375 347 574 c 1
 355 555 349 520 343 511 c 1
 251.340820312 511 113.4375 447.711914062 109 279 c 0
 106.014648438 162.1953125 180.270507812 75.2666015625 316 72 c 0
 440.200195312 69.01171875 510 133.153320312 510 199 c 0
 510 256.887695312 478.875 287 420 287 c 1
 431 332 l 1
 506.131835938 333.567382812 562 280.876953125 562 198 c 0
 562 86.869140625 475.8828125 -25 318 -25 c 0
 145.854492188 -25 50 91.1943359375 50 252 c 0
658 15 m 1
 672 45.9453125 655.846679688 94.7060546875 658 136 c 0
 666 289.44140625 842 292.495117188 881 297 c 1
 881 237 l 1
 802.458984375 237 732.35546875 229.602539062 717 124 c 0
 708.484375 65.4375 722.59765625 -28.3564453125 664 -30 c 1
 649.716796875 -15.6728515625 651.901367188 -11.90234375 658 15 c 1
EndSplineSet
EndChar

StartChar: si_Ssa
Encoding: 56 3522 56
GlifName: si_S_sa
Width: 841
VWidth: 6
Flags: HMW
LayerCount: 3
Back
SplineSet
507.016601562 352 m 1xff80
 457.016601562 333 l 1
 449.016601562 358 441.528320312 375.002929688 442.016601562 417 c 0
 443.016601562 503 514.016601562 556 585.016601562 556 c 0
 658.016601562 556 710.016601562 507 710.016601562 427 c 0
 710.016601562 359 623.016601562 309 623.016601562 309 c 1
 587.016601562 326 l 1
 621.068359375 347.129882812 655.901367188 377.10546875 656.016601562 417 c 0
 656.150390625 463 622.016601562 494 573.016601562 494 c 0
 524.984375 494 480.016601562 452 480.016601562 409 c 0
 480.016601562 357 507.016601562 352 507.016601562 352 c 1xff80
124.016601562 209 m 0
 123.016601562 124 208.016601562 45 393.016601562 45 c 0
 568.016601562 45 668.467773438 127.008789062 670.016601562 216 c 0
 671.791992188 318.00390625 554.016601562 348 457.016601562 333 c 1
 477.016601562 373 l 1
 622.016601562 402 745.223632812 330.994140625 741.016601562 193 c 0xff40
 736.016601562 29 569.016601562 -59 388.016601562 -59 c 0
 194.016601562 -59 43.1591796875 32.998046875 45.0166015625 180 c 0
 47.0166015625 330.426757812 202.016601562 399.4609375 321.016601562 373 c 1
 297.016601562 345 l 1
 304.016601562 365 317.389648438 386.33203125 313.016601562 415 c 0
 304.016601562 474 244.016601562 505 176.016601562 490 c 0
 209.016601562 511 l 1
 154.016601562 409 l 1
 113.016601562 411 86.6171875 436.013671875 88.0166015625 471 c 0
 90.0166015625 521 147.016601562 557 207.016601562 557 c 0
 277.016601562 557 348.909179688 516.997070312 351.016601562 439 c 0
 352.016601562 402 346.016601562 370 337.016601562 333 c 1
 213.016601562 359 124.934570312 287.000976562 124.016601562 209 c 0
648.016601562 323 m 1
 557.806640625 270.456054688 522.510742188 251.752929688 399.016601562 246 c 0
 368.159179688 244.5625 317.151367188 242.704101562 316.016601562 200 c 0
 315.3203125 173.78515625 352.4140625 147.779296875 419.016601562 148 c 0
 457.728515625 148.127929688 499.22265625 171.149414062 499.30078125 212 c 0
 499.364257812 245.018554688 470.301757812 262.201171875 458.016601562 270 c 1
 492.016601562 290 l 1
 491.661132812 268.418945312 538.73828125 261.372070312 539.875976562 195 c 0
 540.79296875 141.533203125 483.875976562 95.91015625 389.016601562 94 c 0
 284.798828125 91.9013671875 233.958007812 135.838867188 235.016601562 190 c 0
 236.385742188 259.994140625 319.200195312 277.727539062 389.016601562 281 c 0
 547.551757812 288.431640625 574.90234375 327.166015625 621.016601562 345.561523438 c 1
 648.016601562 323 l 1
EndSplineSet
Fore
SplineSet
253 215 m 0
 253 283.956054688 322.647385334 308.781063162 432 309 c 0
 591.79667887 309.357570843 627.807531381 335.641171212 672 366 c 1
 706 350 l 1
 654.4375 304.950671684 569.016265933 271.126695149 442 273 c 0
 371.124023438 274.045898438 293 266.045898438 293 228 c 0
 293 199.173828125 338.05859375 177 426 177 c 0
 468.162109375 177 548 192.803710938 548 236 c 0
 548 264.448242188 515.633789062 279.103515625 501 286 c 1
 535 306 l 1
 535 289.021484375 583 284.169921875 583 230 c 0
 583 172.833186999 518.590563965 123 421 123 c 4
 319.924954045 123 253 162.482504986 253 215 c 0
EndSplineSet
Refer: 1 3508 N 1 0 0 1 0 0 2
EndChar

StartChar: si_Ha
Encoding: 57 3524 57
GlifName: si_H_a
Width: 1016
VWidth: 6
Flags: HMW
LayerCount: 3
Back
SplineSet
314.504882812 336 m 1
 332.189453125 423.088867188 275.856445312 479.735351562 178.504882812 471 c 1
 128.504882812 389 l 1
 98.5048828125 392 74.5048828125 409 74.5048828125 446 c 0
 74.5048828125 513 146.504882812 538 199.504882812 538 c 0
 279.504882812 538 355.161132812 488.983398438 359.504882812 404 c 0
 362.071289062 353.791015625 352.504882812 331.083007812 345.504882812 309 c 1
 314.504882812 336 l 1
688.264648438 3.6123046875 m 0
 795.282226562 12.49609375 851.127929688 99.1904296875 851.127929688 236.600585938 c 0
 851.127929688 356.831054688 790.029296875 434.868164062 658.442382812 436.533203125 c 0
 577.49609375 437.557617188 438.870117188 390.266601562 452.3828125 254.823242188 c 1
 405.115234375 244.01171875 l 1
 391.162109375 427.034179688 519.956054688 542.603515625 660.184570312 542.603515625 c 0
 835.177734375 542.603515625 915.375 412.364257812 915.375 268.375 c 0
 915.375 76.21875 818.827148438 -52.93359375 644.916015625 -54.814453125 c 0
 604.041015625 -55.275390625 574.16015625 -45.9150390625 556.1875 -36.138671875 c 1
 581.95703125 29.328125 l 1
 603.521484375 13.771484375 634.608398438 -0.669921875 688.264648438 3.6123046875 c 0
107.479492188 186.841796875 m 0
 106.203125 90.6962890625 184.778320312 50.7744140625 302.504882812 46.5908203125 c 0
 367.958984375 44.2646484375 475.771484375 73.1357421875 477.504882812 155 c 0
 478.82421875 217.323242188 451.272460938 238.487304688 405.504882812 243 c 1
 448.504882812 291 l 1
 489.504882812 281.302734375 540.157226562 242.743164062 540.504882812 152 c 0
 540.956054688 37.15234375 463.099609375 -53.0048828125 298.103515625 -53.0048828125 c 0
 140.196289062 -53.0048828125 50.5 28.916015625 50.5 151.564453125 c 0
 50.5 318.865234375 193.793945312 380 340.504882812 372 c 0
 344.384765625 309.879882812 l 0
 219.420898438 329.879882812 108.938476562 286.419921875 107.479492188 186.841796875 c 0
EndSplineSet
Fore
SplineSet
297 370 m 4
 332.454545455 369.78671875 355.246753247 391.6 362 394 c 5
 328 373 l 5
 339.875 390 347 405.735294118 347 435 c 4
 347 496.548701299 288.10068892 524 239 524 c 4
 181.72 524 166.2 492.95 161 478 c 5
 160.5390625 495.506544682 153.777614522 517.139389752 212 540 c 5
 167 425 l 5
 119.954545455 427.031746032 98 456.629808986 98 489 c 4
 98 538.5 139.875 588 232 588 c 4
 320.922622084 588 387 528.587412587 387 444 c 4
 387 404.069767442 374.633333333 365.313953488 366 343 c 5
 352.2 355.272727273 267.426060868 370.184748256 297 370 c 4
412.5 269 m 1
 418.491210938 467.4453125 536.18359375 577 685.5 577 c 0
 864.514648438 577 959.5 437.494140625 959.5 295 c 0
 959.5 120.014648438 871.756835938 -30 691.5 -30 c 0
 649.037109375 -30 610.611328125 -20.5712890625 595.5 -12 c 1
 588.5 -4.94140625 584.5 30.3525390625 604.5 48 c 1
 619.0859375 39.1943359375 651.246090562 26.109544186 698.5 27 c 0
 841.376953125 29.6923828125 887.5 147.749023438 887.5 264 c 0
 887.5 414.430664062 787.424804688 487 665.5 487 c 0
 560.369140625 487 461.702148438 428.76953125 455.5 263 c 1
 443.772460938 261.799804688 422.227539062 263.200195312 412.5 269 c 1
56.5 177 m 0
 56.5 336.190865653 211.638251544 417.676680988 341.5 395 c 4
 347.405273438 393.940429688 356.5 392 362.5 392 c 5
 366.5 343 l 5
 345.5 350 323.5 353 304.5 353 c 4
 209.33984375 353 124.5 302.033457299 124.5 214 c 0
 124.5 124.604492188 204.293943005 69.3979405986 329.5 70 c 0
 455.618164062 70.6064453125 514.5 139 514.5 204 c 0
 514.5 258.741210938 481.825195312 288.793945312 442.5 286 c 1
 441.5 330 l 1
 521.3671875 335.823242188 572.5 268.41796875 572.5 190 c 0
 572.5 86.4912109375 501.791992188 -24 321.5 -24 c 0
 160.043945312 -24 56.5 59.271484375 56.5 177 c 0
EndSplineSet
EndChar

StartChar: si_Lla
Encoding: 58 3525 58
GlifName: si_L_la
Width: 878
VWidth: 25
Flags: HMW
LayerCount: 3
Back
SplineSet
146.5078125 100 m 4
 148.834960938 -77.560546875 288.48828125 -211.909179688 501.5078125 -214 c 4
 659.671875 -215.50390625 762.861328125 -141.15234375 808.5078125 -93 c 5
 823.5078125 -101.326171875 834.416992188 -123.18359375 838.5078125 -144 c 5
 796.266601562 -185.751953125 689.657226562 -274 488.5078125 -274 c 4
 243.512695312 -274 59.2314453125 -157.001953125 57.5078125 69 c 4
 56.0751953125 250.844726562 152.513671875 351.313476562 253.5078125 383 c 4
 308.4765625 394.831054688 362.319335938 394 413.5078125 395 c 4
 517.975585938 397.333007812 708.274414062 400.1171875 760.5078125 396 c 5
 740.5078125 388 l 5
 740.5078125 487.778320312 697.514648438 523.006835938 639.5078125 525 c 4
 597.471679688 526.565429688 546.708007812 500.795898438 547.5078125 442 c 5
 532.174804688 438.856445312 516.840820312 440.220703125 501.5078125 449 c 5
 492.450195312 496.395507812 461.908203125 529 402.5078125 529 c 4
 343.3046875 529 291.5078125 484.678710938 291.5078125 386 c 4
 291.5078125 224.900390625 435.631835938 181.37109375 531.5078125 180 c 4
 626.436523438 178.720703125 700.515625 208.059570312 751.5078125 241 c 5
 759.487304688 231.000976562 765.1640625 213.611328125 762.5078125 200 c 5
 724.056640625 152.947265625 648.880859375 99.9296875 523.5078125 102 c 4
 376.764648438 104.422851562 241.5078125 207.434570312 241.5078125 369 c 4
 241.5078125 504.341796875 304.428710938 594 408.5078125 594 c 4
 495.387695312 594 533.5078125 520.0078125 533.5078125 479 c 4
 533.5078125 482.0625 530.840820312 484.46875 525.5078125 486 c 5
 518.5078125 489 l 5
 518.33984375 522.416015625 565.900390625 591.998046875 644.5078125 591 c 4
 757.857421875 589.587890625 807.40625 463.150390625 785.5078125 345 c 5
 727.059570312 349.6875 464.248046875 350.568359375 340.5078125 347 c 4
 190.819335938 342.68359375 145.048828125 209.112304688 146.5078125 100 c 4
EndSplineSet
Fore
SplineSet
146.5078125 100 m 0
 148.834960938 -77.560546875 288.48828125 -211.909179688 501.5078125 -214 c 0
 659.671875 -215.50390625 762.861328125 -141.15234375 808.5078125 -93 c 1
 823.5078125 -101.326171875 834.416992188 -123.18359375 838.5078125 -144 c 1
 796.266601562 -185.751953125 689.657226562 -274 488.5078125 -274 c 0
 243.512695312 -274 59.4391532573 -157.00027356 57.5078125 69 c 0
 55.4905726484 305.051953322 207.153320312 409.052734375 424.5078125 413 c 0
 552.954101562 415.333007812 689.28515625 394.1171875 738.5078125 386 c 1
 716.5078125 378 l 1
 732.5078125 476.778320312 682.028320312 523.006835938 635.5078125 525 c 4
 593.471679688 526.565429688 546.708007812 500.795898438 547.5078125 442 c 1
 532.174804688 438.856445312 516.840820312 440.220703125 501.5078125 449 c 1
 492.450195312 496.395507812 461.908203125 529 402.5078125 529 c 0
 343.3046875 529 281.5078125 484.678710938 281.5078125 386 c 0
 281.5078125 224.900390625 415.631835938 172.37109375 511.5078125 171 c 0
 606.436523438 169.720703125 680.515625 199.059570312 731.5078125 232 c 1
 739.487304688 222.000976562 745.1640625 204.611328125 742.5078125 191 c 1
 704.056640625 143.947265625 628.880859375 90.9296875 503.5078125 93 c 0
 356.764648438 95.4228515625 231.5078125 207.434570312 231.5078125 369 c 0
 231.5078125 504.341796875 304.428710938 594 408.5078125 594 c 0
 495.387695312 594 533.5078125 520.0078125 533.5078125 479 c 0
 533.5078125 482.0625 530.840820312 484.46875 525.5078125 486 c 1
 518.5078125 489 l 1
 518.33984375 522.416015625 562.899414062 591.946289062 641.5078125 591 c 4
 758.779296875 589.587890625 792.299804688 433.150390625 763.5078125 335 c 1
 707.686523438 342.6875 528.715342015 366.433284497 410.5078125 364 c 0
 200.819335938 359.68359375 145.048828125 209.112304688 146.5078125 100 c 0
EndSplineSet
Layer: 2
SplineSet
146.5078125 100 m 4
 148.834960938 -77.560546875 288.48828125 -211.909179688 501.5078125 -214 c 4
 659.671875 -215.50390625 762.861328125 -141.15234375 808.5078125 -93 c 5
 823.5078125 -101.326171875 834.416992188 -123.18359375 838.5078125 -144 c 5
 796.266601562 -185.751953125 689.657226562 -274 488.5078125 -274 c 4
 243.512695312 -274 59.2314453125 -157.001953125 57.5078125 69 c 4
 56.0751953125 250.844726562 152.513671875 351.313476562 253.5078125 383 c 4
 308.4765625 394.831054688 362.319335938 394 413.5078125 395 c 4
 517.975585938 397.333007812 708.274414062 400.1171875 760.5078125 396 c 5
 740.5078125 388 l 5
 740.5078125 487.778320312 697.514648438 523.006835938 639.5078125 525 c 4
 597.471679688 526.565429688 546.708007812 500.795898438 547.5078125 442 c 5
 532.174804688 438.856445312 516.840820312 440.220703125 501.5078125 449 c 5
 492.450195312 496.395507812 461.908203125 529 402.5078125 529 c 4
 343.3046875 529 291.5078125 484.678710938 291.5078125 386 c 4
 291.5078125 224.900390625 435.631835938 181.37109375 531.5078125 180 c 4
 626.436523438 178.720703125 700.515625 208.059570312 751.5078125 241 c 5
 759.487304688 231.000976562 765.1640625 213.611328125 762.5078125 200 c 5
 724.056640625 152.947265625 648.880859375 99.9296875 523.5078125 102 c 4
 376.764648438 104.422851562 241.5078125 207.434570312 241.5078125 369 c 4
 241.5078125 504.341796875 304.428710938 594 408.5078125 594 c 4
 495.387695312 594 533.5078125 520.0078125 533.5078125 479 c 4
 533.5078125 482.0625 530.840820312 484.46875 525.5078125 486 c 5
 518.5078125 489 l 5
 518.33984375 522.416015625 565.900390625 591.998046875 644.5078125 591 c 4
 757.857421875 589.587890625 807.40625 463.150390625 785.5078125 345 c 5
 727.059570312 349.6875 464.248046875 350.568359375 340.5078125 347 c 4
 190.819335938 342.68359375 145.048828125 209.112304688 146.5078125 100 c 4
EndSplineSet
EndChar

StartChar: si_Fa
Encoding: 59 3526 59
GlifName: si_F_a
Width: 952
VWidth: 6
Flags: HMW
LayerCount: 3
Back
SplineSet
383.5 -13 m 1
 354.381835938 -25.3193359375 319.134765625 -34.6181640625 268.5 -33.93359375 c 0
 128.443359375 -32.0400390625 54.5 85.7529296875 54.5 228 c 0
 54.5 384 142.5 520 278.5 522 c 0
 403.486328125 523.837890625 451.5 437 453.5 362 c 1
 455.5 365 420.5 359 422.5 362 c 1
 429.5 443 502.502929688 521.33203125 603.5 522 c 0
 754.500976562 522.999023438 816.934570312 373.00390625 817.5 254 c 0
 818.331054688 78.9990234375 729.455078125 -30.02734375 612.5 -33 c 0
 576.497070312 -33.9150390625 530.5 -27 506.5 -17 c 1
 525.5 45 l 1
 551.5 23 590.5 17 624.5 20 c 0
 684.565429688 25.2998046875 748.099609375 89.994140625 746.5 224 c 0
 745.305664062 323.990234375 698.546875 407.399414062 600.5 409 c 0
 530.5390625 410.141601562 470.5 357 468.5 273 c 1
 412.5 273 l 1
 412.5 370 342.448242188 416.880859375 272.5 414 c 0
 161.522460938 409.428710938 127.196289062 303.002929688 124.5 219 c 0
 121.329101562 120.224609375 163.103515625 20.6630859375 279.5 20 c 0
 305.912109375 19.849609375 332.151367188 22.8125 364.5 45 c 1
 383.5 -13 l 1
EndSplineSet
Fore
SplineSet
53.5 268 m 0
 53.5 430.33984375 152.258789062 572 306.5 572 c 0
 439.202148438 572 490.32421875 475.25 492.5 392 c 1
 492.5 413 491.5 413 489.5 413 c 0
 484.700195312 413 474.299804688 391 469.5 391 c 0
 467.5 391 466.415039062 391.00390625 466.5 392 c 0
 474.692382812 481.606445312 570.3671875 569 679.5 569 c 0
 834.75390625 569 898.5 420.666992188 898.5 302 c 0
 898.5 113.649414062 803.405273438 -3 674.5 -3 c 0
 639.5 -3 598.5 4 575.5 13 c 1
 574.889648438 32.650390625 576.126953125 55.71484375 594.5 71 c 1
 616.5 54.9228515625 647.5 49 677.5 49 c 0
 756.088867188 49 824.5 133.31640625 824.5 289 c 0
 824.5 387.663085938 771.465820312 471 657.5 471 c 0
 575.23046875 471 504.884765625 405.529296875 502.5 303 c 1
 461.5 303 l 1
 461.5 418.333007812 382.201171875 476 300.5 476 c 0
 172.576171875 476 122.5 353.658203125 122.5 256 c 0
 122.5 155.936656174 169.333984375 59 293.5 59 c 0
 318.560546875 59 342.65625 60.92 373.5 75 c 1
 391.611328125 51.830078125 393.8671875 35.1279296875 392.5 17 c 1
 366.026932566 5 333.881510417 -4 288.5 -4 c 4
 133.979340278 -4 53.5 118.50390625 53.5 268 c 0
EndSplineSet
EndChar

StartChar: si_Halant
Encoding: 60 3530 60
GlifName: si_H_alant
Width: 1
VWidth: -6
Flags: HMW
LayerCount: 3
Back
SplineSet
-53.5 866 m 1
 -53.5 820.333007812 -53.5 774.666992188 -53.5 729 c 1
 -37.5 708 -18.5185546875 706.276367188 -5.5 707 c 0
 12.5 708 27.5 727 24.5 767 c 0
 21.5 806 -6.5 850 -53.5 866 c 1
-75.5 685 m 1
 -75.671875 683.069335938 -55.8134765625 688.06640625 -55.927734375 686 c 1
 -58.4755859375 639.911132812 -47.1142578125 532.184570312 -38.5 514 c 1
 -97.5 514 l 1
 -104.5 565 -102.5 670 -102.5 737 c 1
 -103.5 920 l 1
 -27.5 911 87.5 868 83.5 743 c 0
 81.5 689 43.546875 657 0.5 657 c 0
 -40.5 657 -66.5 679 -75.5 685 c 1
EndSplineSet
Fore
SplineSet
-102.5 484 m 1
 -102.5 894 l 1
 -90.5 901 -77.5 896 -68.5 894 c 1
 -40.5 875 -16.5 865 11.5 851 c 0
 36.5 838 103.5 810 103.5 733 c 0
 103.5 674 60.5 647 5.5 647 c 0
 -34.5 647 -62.5 663 -71.5 675 c 1
 -55.5 676 l 1
 -55.5 671 -58.5 665 -58.5 659 c 2
 -58.5 484 l 1
 -73.5 484 -69.5 480 -102.5 484 c 1
-53.5 707 m 1
 -39.5 688 -15.5 686 -2.5 686 c 0
 23.5 686 44.5 701 44.5 735 c 0
 44.5 801 -38.5 823 -53.5 840 c 1
 -53.5 707 l 1
EndSplineSet
EndChar

StartChar: si_MatraAa
Encoding: 61 3535 61
GlifName: si_M_atraA_a
Width: 388
VWidth: 19
Flags: HMW
LayerCount: 3
Back
SplineSet
16.712890625 440 m 1
 42.712890625 419 l 1
 59.9462890625 430.538085938 94.1865234375 450.502929688 140.712890625 444 c 0
 218.721679688 431.5859375 253.8671875 350.3984375 250.712890625 231 c 0
 247.685546875 124.423828125 206.677734375 26.69140625 129.712890625 17 c 0
 89.9140625 12.62109375 48.6650390625 26.9599609375 37.712890625 33 c 1
 15.712890625 7 l 1
 28.509765625 -10.5 74.583984375 -35.92578125 132.712890625 -33 c 0
 270.646484375 -26.056640625 337.500976562 122.322265625 340.712890625 234 c 0
 344.782226562 378.272460938 277.040039062 493.89453125 150.712890625 499 c 0
 99.796875 501.081054688 45.4365234375 474.416992188 16.712890625 440 c 1
EndSplineSet
Fore
SplineSet
6.712890625 43 m 1
 4.712890625 55 9.712890625 74 22.712890625 83 c 1
 43.712890625 60 76.712890625 45 118.712890625 45 c 0
 210.712890625 45 256.712890625 146 256.712890625 265 c 4
 256.712890625 383 217.712890625 488 116.712890625 488 c 0
 78.712890625 488 37.712890625 464 22.712890625 447 c 1
 12.712890625 457 7.712890625 472 12.712890625 489 c 1
 39.712890625 513 91.712890625 539 140.712890625 539 c 0
 284.712890625 539 337.712890625 410 337.712890625 272 c 0
 337.712890625 149 285.712890625 -3 130.712890625 -3 c 0
 66.712890625 -3 21.712890625 25 6.712890625 43 c 1
EndSplineSet
EndChar

StartChar: si_MatraAe
Encoding: 62 3536 62
GlifName: si_M_atraA_e
Width: 350
VWidth: 25
Flags: HMW
LayerCount: 3
Back
SplineSet
-570.583007812 96 m 0x40
 -585.829101562 7.5224609375 -577.51953125 -89.5732421875 -475.583007812 -97 c 0
 -411.890625 -101.640625 -380.583007812 -71.2119140625 -357.583007812 -51 c 1
 -336.583007812 -73 l 1
 -351.46875 -116.75 -423.754882812 -174.841796875 -504.583007812 -173 c 0
 -641.514648438 -169.87890625 -670.033203125 -73.234375 -655.583007812 40 c 0
 -639.615234375 174.331054688 -543.233398438 293.0390625 -505.419921875 332 c 1x40
 -552.154296875 329.587890625 -642.509765625 326.22265625 -700.583007812 323.856445312 c 1
 -699.583007812 388.116210938 l 5x80
 -676.673828125 388.107421875 -488.15234375 387.998046875 -454.583007812 388 c 5
 -454.583007812 323 l 1
 -503.70703125 285.021484375 -556.515625 177.639648438 -570.583007812 96 c 0x40
EndSplineSet
Fore
SplineSet
15.958984375 389 m 1
 15.2587890625 406 14.8037109375 424.33984375 22.958984375 444 c 1
 294.958984375 444 l 1
 295.354492188 424.892578125 291.583984375 404.123046875 285.958984375 390 c 1
 222.133789062 331.627929688 144.958984375 190.243164062 144.958984375 74 c 0
 144.958984375 -1.24609375 178.345703125 -60 281.958984375 -60 c 0
 310.322753906 -60 333.504638672 -49.2 344.958984375 -42 c 5
 350.672851562 -46.5712890625 352.482421875 -64.7138671875 350.958984375 -76 c 5
 338.99535006 -93.2336963718 301.111463341 -123 241.958984375 -123 c 0
 120.435546875 -123 59.958984375 -53.7353515625 59.958984375 34 c 0
 59.958984375 186.778320312 187.25390625 360.109375 246.958984375 407 c 1
 243.958984375 391 l 1
 15.958984375 389 l 1
EndSplineSet
EndChar

StartChar: si_MatraAae
Encoding: 63 3537 63
GlifName: si_M_atraA_ae
Width: 417
VWidth: 19
Flags: HMW
LayerCount: 3
Back
SplineSet
60.2421875 412 m 1xc0
 294.2421875 412 l 1xc0
 294.2421875 358 l 1
 201.2421875 324.43359375 l 5
 112.2421875 303 l 1
 50.2421875 309 l 1
 174.2421875 355.081054688 l 1
 258.2421875 372 l 1xa0
 228.2421875 364 l 1
 60.2421875 364 l 1
 60.2421875 412 l 1xc0
191.2421875 88 m 0
 172.345703125 4.6083984375 176.40625 -90.5087890625 274.2421875 -97 c 0
 337.962890625 -101.227539062 369.2421875 -71.2119140625 392.2421875 -51 c 1
 413.2421875 -73 l 1
 398.356445312 -116.75 326.0703125 -174.842773438 245.2421875 -173 c 0
 108.310546875 -169.87890625 74.46484375 -72.42578125 94.2421875 40 c 0
 113.28515625 148.252929688 213.053710938 232.37890625 264.405273438 262 c 1
 212.856445312 261.661132812 114.296875 261.188476562 50.2421875 260.856445312 c 1
 50.2421875 309.116210938 l 1
 73.1513671875 309.107421875 270.673828125 308.998046875 304.2421875 309 c 1
 304.2421875 253 l 1
 259.204101562 225.39453125 207.055664062 157.787109375 191.2421875 88 c 0
EndSplineSet
Fore
SplineSet
20.2421875 390 m 1
 20.2421875 441 l 1
 249.2421875 441 l 1
 250.2421875 423 248.2421875 406 244.2421875 388 c 1
 92.2421875 293 l 1
 40.2421875 299 l 1
 179.2421875 390 l 1
 20.2421875 390 l 1
184.2421875 60 m 0
 184.2421875 -13 216.2421875 -60 306.2421875 -60 c 0
 344.060546875 -60 374.969726562 -48 390.2421875 -40 c 1
 395.956054688 -44.5712890625 397.765625 -62.7138671875 396.2421875 -74 c 1
 381.973632812 -95.6337890625 336.791015625 -133 266.2421875 -133 c 0
 159.325195312 -133 105.2421875 -82 105.2421875 13 c 0
 105.2421875 114 190.2421875 240 254.2421875 296 c 1
 202.2421875 290 104.2421875 268 40.2421875 253 c 1
 36.626953125 259.256835938 29.9560546875 276.809570312 40.2421875 299 c 1
 63.2421875 299 263.2421875 343 300.2421875 340 c 1
 300.2421875 317 298.2421875 301 293.2421875 283 c 1
 261.2421875 260 184.2421875 156 184.2421875 60 c 0
EndSplineSet
EndChar

StartChar: si_MatraIi
Encoding: 65 3539 65
GlifName: si_M_atraI_i
Width: 0
VWidth: 2
Flags: HMW
LayerCount: 3
Back
SplineSet
-175 531 m 21
 -238 551 -281.833007812 588.24609375 -276 655 c 4
 -267 758 -129 802 12 800 c 4
 116 799 259.903320312 764.702148438 276 659 c 4
 285.955078125 593.627929688 241 543 206 529 c 13
 187 554 l 21
 210 574 224.749023438 594.73046875 215 635 c 4
 200.84375 693.477539062 78 701.96875 10 703 c 4
 -84.994140625 704.44140625 -204 706 -213 641 c 4
 -220.40625 587.510742188 -181 576 -158 566 c 13
 -175 531 l 21
EndSplineSet
Fore
SplineSet
-277 673 m 0
 -277 785 -137 830 3 830 c 0
 111 830 259 798 276 689 c 0
 277 683 277 677 277 671 c 0
 277 615 238 572 206 559 c 9
 187 584 l 17
 205 600 218 616 218 642 c 0
 218 725.262695312 89.037109375 731.837890625 10 733 c 4
 -4 733 -19 733 -34 733 c 0
 -124 733 -214 727 -214 658 c 0
 -214 615 -179 605 -158 596 c 9
 -175 561 l 17
 -234 580 -277 614 -277 673 c 0
EndSplineSet
EndChar

StartChar: si_MatraU
Encoding: 66 3540 66
GlifName: si_M_atraU_
Width: 0
VWidth: 30
Flags: HMW
AnchorPoint: "si_MaU" 317 199 mark 0
LayerCount: 3
Back
SplineSet
-103 -115 m 17
 -76.2275390625 -160 l 1
 -76.23046875 -152.99609375 -142.8125 -191.887695312 -142.809570312 -226 c 0
 -142.805664062 -272.552734375 -118.69921875 -285.247070312 -67 -285.247070312 c 1
 250 -287 l 9
 250 169 l 25
 307 169 l 25
 313 -367 l 17
 313 -367 37.0048828125 -369.6796875 -139 -370.586914062 c 0
 -219 -371 -260.244140625 -321.6015625 -261 -271 c 0
 -262.62890625 -161.938476562 -103 -115 -103 -115 c 17
EndSplineSet
Fore
SplineSet
-323 -239 m 0
 -323 -131 -165 -85 -165 -85 c 1
 -138 -130 l 2
 -138 -129 -138 -129 -139 -129 c 0
 -148 -129 -205 -165 -205 -196 c 0
 -205 -243 -181 -255 -129 -255 c 2
 267 -257 l 9
 267 199 l 25
 317 199 l 29
 323 -337 l 17
 323 -337 -26 -341 -202 -341 c 0
 -282 -341 -323 -291 -323 -239 c 0
EndSplineSet
EndChar

StartChar: si_MatraUu
Encoding: 67 3542 67
GlifName: si_M_atraU_u
Width: 0
VWidth: 30
Flags: HMW
AnchorPoint: "si_MaU" 281 199 mark 0
LayerCount: 3
Back
SplineSet
-189 -165 m 25
 -177 -251 l 25
 347 -247 l 25
 341 129 l 25
 254 129 l 25
 254 -167 l 25
 -189 -165 l 25
EndSplineSet
Fore
SplineSet
-287 -249 m 0
 -287 -157 -176 -95 -176 -95 c 1
 -143 -129 l 1
 -151 -129 -195 -171 -195 -210 c 0
 -195 -244 -172 -267 -137 -267 c 0
 -72 -267 -20 -206 64 -206 c 0
 141 -206 194 -240 234 -267 c 1
 234 199 l 25
 281 199 l 25
 287 -347 l 1
 225 -346 l 1
 173 -311 113 -280 59 -280 c 0
 -35 -280 -88 -351 -182 -351 c 0
 -252 -351 -287 -301 -287 -249 c 0
EndSplineSet
EndChar

StartChar: si_MatraR
Encoding: 68 3544 68
GlifName: si_M_atraR_
Width: 443
VWidth: 19
Flags: HMW
LayerCount: 3
Back
SplineSet
13.5 449 m 1
 33.5 419 l 1
 50.7333984375 430.538085938 84.9287109375 450.171875 131.5 444 c 0
 202.543945312 434.5859375 237.454101562 350.3984375 234.5 231 c 0
 232.173828125 126.416015625 206.185546875 33.541015625 141.5 21 c 0
 96.38671875 13.5322265625 56.5986328125 27.0791015625 30.5 43 c 1
 7.5 13 l 1
 23.09375 -5.28515625 67.83984375 -35.6494140625 140.5 -33 c 0
 283.439453125 -27.787109375 340.365234375 122.322265625 343.5 234 c 0
 347.826171875 378.272460938 291.056640625 498.89453125 141.5 499 c 0
 92.8291015625 499.034179688 40.9375 473.166992188 13.5 449 c 1
EndSplineSet
Fore
SplineSet
32.5 108 m 0
 32.5 26.2187042236 100.549979968 -10 178.5 -10 c 0
 339.256382893 -10 392.5 149.724609375 392.5 269 c 0
 392.5 428.23046875 339.498994431 569 180.5 569 c 4
 127.652157738 569 83.4453125 544.04 57.5 521 c 5
 51.2731490119 503.454347211 61.74538679 481.174040232 66.5 479 c 1
 84.5 492.846153846 116.9 515 162.5 515 c 0
 264.413085938 515 313.5 405.909179688 313.5 265 c 0
 313.5 145.208007812 283.251882103 43 189.5 43 c 0
 150.385057471 43 106.5 64 106.5 121 c 0
 106.5 174.326923077 155.467389788 212 209.5 215 c 0
 257.932252056 217.122326587 303.938366168 206.771428571 343.5 191 c 1
 333.5 251 l 1
 303.25 261 255.819115246 268.261717156 212.5 266 c 0
 120.239025297 259.594594595 32.5 208.999815245 32.5 108 c 0
EndSplineSet
EndChar

StartChar: si_MatraE
Encoding: 69 3545 69
GlifName: si_M_atraE_
Width: 702
VWidth: 20
Flags: HMW
LayerCount: 3
Back
SplineSet
301.5 157 m 4
 243.581054688 160.048828125 213.5 204 213.5 247 c 4
 213.5 321 284.49609375 364.286132812 354.5 365 c 0
 445.500976562 365.928710938 540.037109375 304.978515625 534.5 172 c 0
 530.155273438 72 449.787109375 -44 269.5 -44 c 0
 94.51171875 -44 -6.455078125 78.4462890625 8.5 244 c 0
 24.6884765625 424.993164062 155.26953125 546 335.5 546 c 0
 457.98046875 546 524.5 489 524.5 489 c 0
 485.5 427 l 1
 483.5 427 433.251953125 479.645507812 326.5 487 c 0
 197.578125 495.052734375 76.029296875 413.663085938 66.5 284 c 0
 55.4072265625 133.064453125 167.833007812 55.640625 263.5 48 c 0
 368.229492188 39.6357421875 459.397460938 65.0263671875 475.5 174 c 0
 488.454101562 266.267578125 420.495117188 330.3359375 351.5 329 c 0
 295.44921875 328 269.5 297 269.5 263 c 0
 269.5 239 290.645507812 216.83203125 323.5 216 c 0
 359.735351562 215.200195312 379.5 236 379.5 256 c 0
 379.5 323.307617188 332.021484375 331 323.5 331 c 1
 350.5 337 383.02734375 334.682617188 384.5 333 c 0
 393.5 322.713867188 417.5 306.713867188 417.5 253 c 0
 417.5 208 377.5 153 301.5 157 c 4
EndSplineSet
Fore
SplineSet
50.5 237 m 0
 50.5 449 216.099609375 568 395.5 568 c 0
 541.10546875 568 651.416015625 489.767578125 681.5 438 c 1
 679.383789062 415.791992188 670.899414062 389.779296875 661.5 386 c 1
 661.5 386 562.443359375 510 386.5 510 c 0
 236.303710938 510 113.5 424.086914062 113.5 271 c 0
 113.5 137.369140625 208.288085938 57 346.5 57 c 0
 448.293945312 57 539.53515625 105.958984375 540.5 206 c 0
 541.2578125 285.002929688 479.5 339 416.5 339 c 0
 359.5 339 332.5 307 332.5 273 c 0
 332.5 248 347.5 218 381.5 218 c 0
 416.5 218 435.5 244 435.5 276 c 0
 435.5 323 405.5 351 396.5 351 c 1
 447.5 343 l 0
 456.5 333 477.5 317 477.5 263 c 0
 477.5 220 447.5 169 376.5 169 c 0
 313.5 169 277.5 215 277.5 260 c 0
 277.5 335 348.5 381 419.5 381 c 0
 508.983398438 381 600.5 317 600.5 193 c 0
 600.5 83.0400390625 520.866210938 -36 338.5 -36 c 0
 172.173828125 -36 50.5 81.1494140625 50.5 237 c 0
EndSplineSet
Substitution2: "'ss01' Style Set 1 in Sinhala lookup 22-1" si_MatraE.ss01
EndChar

StartChar: si_MatraLs
Encoding: 75 3551 75
GlifName: si_M_atraL_s
Width: 635
VWidth: 19
Flags: HMW
LayerCount: 3
Back
Refer: 61 3535 N 1 0 0 1 87 0 2
Fore
SplineSet
45 386 m 0
 45 269 101.374023438 193 225 193 c 0
 297.743164062 193 377 236 377 318 c 0
 377 371.8046875 338 417 271 417 c 0
 254 417 235 413 235 413 c 1
 235 380 l 1
 295.829101562 380 321 350.461914062 321 316 c 0
 321 284.591796875 301.061523438 244 226 244 c 0
 153.909179688 244 94 290 94 398 c 0
 94 460 122 509 152 560 c 1
 142 567 122 573 104 564 c 1
 71.490234375 522 45 451 45 386 c 0
161 81 m 1
 180 7 250 -33 342 -33 c 0
 520.392578125 -33 585 112 585 287 c 0
 585 535 458 573 384 573 c 0
 276 573 210 494 210 402 c 0
 210 394 210 387 211 379 c 1
 251 379 l 1
 249 389.240234375 249 400.759765625 249 411 c 0
 249 459.75 298 516 358 516 c 0
 466 516 493 396 493 298 c 0
 493 170.166992188 467.849609375 19 345 19 c 0
 275.475585938 19 227.841796875 40.1943359375 208 90 c 1
 193.791015625 96 165.372070312 93 161 81 c 1
EndSplineSet
EndChar

StartChar: si_VI
Encoding: 78 -1 78
GlifName: si_V_I_
Width: 821
VWidth: 16
Flags: HMW
LayerCount: 3
Back
SplineSet
327 341 m 4
 362.454545455 340.78671875 385.246753247 362.6 392 365 c 5
 358 344 l 5
 364.875 359.629032258 369 374.095351044 369 401 c 4
 369 466.006493506 309.555324929 495 260 495 c 4
 213.72 495 187.2 463.95 182 449 c 5
 181.5390625 466.506544682 174.777614522 488.139389752 233 511 c 5
 184 400 l 5
 139.681818182 401.904761905 119 429.652945924 119 460 c 4
 119 509.5 160.875 559 253 559 c 4
 340.011653167 559 415 497.088424733 415 404 c 4
 415 371.186046512 406.2 339.337209302 397 321 c 5
 383 330.090909091 296.997813809 341.180481901 327 341 c 4
50.5 172 m 4
 50.5 333.733668342 211.885742188 377 335.5 377 c 4
 344.5 377 353.5 377 361.5 376 c 5
 404.5 369 l 4
 404.5 337.941176471 396.5 321 396.5 321 c 5
 378.5 323 357.5 324 339.5 324 c 4
 217.6171875 324 110.5 287.414634146 110.5 199 c 4
 110.5 119.673333333 220.499113684 61.2365867478 390.5 62 c 4
 595.872070312 63.0066586538 708.5 206.916009615 708.5 386 c 4
 708.5 593.150390625 576.989606379 718 359.5 718 c 4
 246.127906977 718 166.313953488 660 164.5 660 c 5
 153.5 667.5 144.5 694.8125 148.5 722 c 5
 186.970588235 748.526315789 263.911764706 776 366.5 776 c 4
 595.465309723 776 770.5 629 770.5 374 c 4
 770.5 136.577669903 638.323242188 -37 382.5 -37 c 4
 201.5 -37 50.5 44.3579753939 50.5 172 c 4
EndSplineSet
Fore
SplineSet
335 326 m 4
 370.454545455 325.78671875 393.246753247 347.6 400 350 c 5
 366 329 l 5
 372.875 344.629032258 377 359.095351044 377 386 c 4
 377 451.006493506 317.555324929 480 268 480 c 4
 221.72 480 195.2 448.95 190 434 c 5
 189.5390625 451.506544682 182.777614522 473.139389752 241 496 c 5
 192 385 l 5
 147.681818182 386.904761905 127 414.652945924 127 445 c 4
 127 494.5 168.875 544 261 544 c 4
 348.011653167 544 423 482.088424733 423 389 c 4
 423 356.186046512 414.2 324.337209302 405 306 c 5
 391 315.090909091 304.997813809 326.180481901 335 326 c 4
388.5 63 m 4
 601.833848826 64.970486818 699.531391731 206.054716253 702.5 364 c 4
 705.39792964 519.017937978 579.425996629 609.828620849 468.997070312 624 c 4
 401.475585938 632.483398438 347.932307448 629.215163297 294.997070312 633.013671875 c 4
 213.178710938 638.884765625 136.212693828 659.09878229 125.997070312 734 c 4
 112.799804688 830.762695312 223.0234375 930 406.997070312 930 c 4
 597.576171875 930 690.997070312 838.48046875 690.997070312 748 c 4
 690.997070312 670.827148438 620.997070312 626.046875 569.997070312 627 c 5
 537.997070312 663 l 5
 585.20703125 653.03515625 623.997070312 689.233398438 623.997070312 732 c 4
 623.997070312 795.888671875 534.37890625 848 398.997070312 848 c 4
 245.065429688 848 175.722087718 811.595669526 176.997070312 753 c 4
 178.020507812 705.96484375 229.045843534 696.211425131 298.997070312 688.356445312 c 4
 347.411132812 682.919921875 413.429746701 687.581443913 482.997070312 677 c 4
 618.759137335 656.350093936 771.731192675 546.388578509 770.408203125 357.204101562 c 4
 768.786927641 125.365419018 631.04566025 -36 384.5 -36 c 4
 198.102409639 -36 60.5 42.6330671271 60.5 166 c 4
 60.5 320.633165829 220.753210664 362 343.5 362 c 4
 359.423076923 362 375.346153846 362 389.5 360 c 5
 412.5 354 l 4
 412.5 322.941176471 404.5 306 404.5 306 c 5
 386.5 308 365.5 309 347.5 309 c 4
 226.681666212 309 120.5 275.048780487 120.5 193 c 4
 120.5 117.726520681 216.219034837 61.4336456181 388.5 63 c 4
EndSplineSet
Ligature2: "si_abvs_1 subtable" si_Va si_MatraI
LCarets2: 1 0
Ligature2: "'abvs' Above Base Substitutions in Sinhala lookup 0-1" si_Va si_MatraI
EndChar

StartChar: si_SI
Encoding: 79 -1 79
GlifName: si_S_I_
Width: 948
VWidth: 6
Flags: HMW
LayerCount: 3
Back
Refer: 562 -1 N 1 0 0 1 30.5876 0 2
Refer: 6 3523 N 1 0 0 1 -0.412363 0 2
Fore
SplineSet
214.176757812 674 m 4
 214.176757812 782.946692079 325.890564952 897 531.176757812 897 c 4
 717.512908839 897 839.190875209 799.74587504 837.176757812 681 c 4
 836.091587308 617.021841922 788.10324755 554.702479338 731.176757812 553 c 5
 720.176757812 581 l 5
 750.871546075 589.607743275 779.906874386 624.049289316 779.176757812 668 c 4
 777.94405915 742.204564449 671.131307962 805 521.176757812 805 c 4
 360.65386363 805 271.174670005 742.325027476 268.176757812 671 c 4
 266.30051208 626.361174771 286.998186384 596.728737491 319.176757812 587 c 5
 305.176757812 558 l 5
 256.953274184 566.848855537 214.176757812 610.38396067 214.176757812 674 c 4
EndSplineSet
Refer: 6 3523 N 1 0 0 1 -0.412363 0 2
Ligature2: "si_abvs_1 subtable" si_Sa si_MatraI
LCarets2: 1 0
Ligature2: "'abvs' Above Base Substitutions in Sinhala lookup 0-1" si_Sa si_MatraI
EndChar

StartChar: si_MatraU.alt
Encoding: 81 -1 81
GlifName: si_M_atraU_.alt
Width: 860
VWidth: 16
Flags: HMW
LayerCount: 3
Back
SplineSet
177.759765625 -218.512695312 m 4
 177.759765625 -266.21875 209.48046875 -295 281.516601562 -295 c 4
 282.994140625 -295 284.48828125 -295.02734375 286 -295 c 6
 623 -295 l 13
 615 209 l 29
 682 209 l 29
 686 -375 l 21
 222 -375 l 6
 221.638671875 -375.001953125 221.27734375 -375.001953125 220.91796875 -375.001953125 c 4
 120.701171875 -375.001953125 89.9794921875 -317.9296875 89.9794921875 -265.305664062 c 4
 89.9794921875 -158.131835938 186 -110 186 -110 c 5
 222.772460938 -135 l 5
 200.514648438 -147.05078125 177.759765625 -178.7890625 177.759765625 -218.512695312 c 4
EndSplineSet
Fore
SplineSet
99 -231 m 0
 99 -131.329101562 214 -95 214 -95 c 1
 223.44140625 -99.4765625 234.080078125 -111.609375 234 -123 c 1
 216 -133 182 -163 182 -202 c 0
 182 -243 213 -259 280 -259 c 2
 704 -262 l 1
 704 210 l 1
 752 210 l 1
 761 -330 l 1
 248 -334 l 2
 140.006835938 -334.919921875 99 -287.483398438 99 -231 c 0
EndSplineSet
EndChar

StartChar: si_MatraUu.alt
Encoding: 82 -1 82
GlifName: si_M_atraU_u.alt
Width: 0
VWidth: 30
Flags: HMW
LayerCount: 3
Fore
SplineSet
-349 -221 m 0
 -349 -145 -286 -95 -228 -78 c 1
 -217 -82.6640625 -203.666992188 -91.998046875 -202 -110 c 1
 -249 -124 -276 -158 -276 -191 c 0
 -276 -231 -240 -252 -194 -252 c 0
 -93.0458984375 -252 -23.1494140625 -193 96 -193 c 4
 182 -193 235 -211 306 -245 c 1
 306 237 l 1
 349 237 l 1
 349 -329 l 1
 331 -334 l 1
 245.954101562 -299.505859375 193.021484375 -262 86 -262 c 4
 -54.9755859375 -262 -103.821289062 -334 -221 -334 c 0
 -319 -334 -349 -277 -349 -221 c 0
EndSplineSet
EndChar

StartChar: si_Rakar.alt
Encoding: 84 -1 84
GlifName: si_R_akar
Width: 776
VWidth: 6
Flags: HMW
LayerCount: 3
Back
SplineSet
711.5 217 m 13
 737.5 210 l 29
 737.5 210 739.291015625 163.739257812 734.5 103 c 4
 719.038085938 -88.955078125 625.283203125 -308.122070312 362.5 -309 c 4
 141.577148438 -309.663085938 34.4091796875 -199.176757812 28.5 -179 c 13
 65.5 -158 l 29
 65.5 -158 153.912109375 -207.192382812 363.5 -203 c 4
 651.986328125 -194.912109375 702.400390625 43.61328125 711.5 217 c 13
EndSplineSet
Fore
SplineSet
38.5 -169 m 5
 45.5 -155 60.5 -151 75.5 -148 c 5
 119.067382812 -181.02734375 206.201171875 -235 353.5 -235 c 4
 638.40625 -235 696.749023438 24.6201171875 705.5 247 c 13
 737.5 240 l 21
 737.5 240 737.5 231 737.5 217 c 4
 737.5 198 737.5 168 734.5 133 c 4
 719.5 -81.46875 662.5 -320 359.5 -320 c 4
 177.5 -320 63.5 -225.729492188 38.5 -169 c 5
EndSplineSet
EndChar

StartChar: si_KI
Encoding: 86 -1 86
GlifName: si_K_I_
Width: 1100
VWidth: 6
Flags: HMW
LayerCount: 3
Back
Refer: 573 -1 N 1 0 0 1 639.815 0 2
Refer: 7 3482 N 1 0 0 1 -0.184304 0 2
Fore
SplineSet
333.815429688 429 m 1
 365.619048541 649.874382739 530.746243588 841 744.815429688 841 c 0
 871.831709954 841 974.815429688 763.993586961 974.815429688 650 c 0
 974.815429688 564.512769954 916.996961803 499.89061878 832.815429688 501 c 1
 842.815429688 539 l 1
 879.53980297 538.132898668 911.815429688 572.856100643 911.815429688 626 c 0
 911.815429688 699.232421875 840.076965403 747 714.815429688 747 c 0
 554.182690996 747 426.243868824 637.545892296 375.815429688 439 c 1
 333.815429688 429 l 1
EndSplineSet
Refer: 7 3482 N 1 0 0 1 -0.184704 0 2
LCarets2: 1 0
Ligature2: "si_abvs_1 subtable" si_Ka si_MatraI
EndChar

StartChar: si_KIi
Encoding: 87 -1 87
GlifName: si_K_I_i
Width: 1082
VWidth: 6
Flags: HMW
LayerCount: 3
Back
Refer: 7 3482 N 1 0 0 1 -0.183819 0 2
Fore
SplineSet
331.815429688 429 m 5
 363 656.843720059 493.591796875 854 734.815429688 854 c 4
 851.874999998 854 964.815429688 779.575301671 964.815429688 651 c 4
 964.815429688 566.660249552 904.553927949 502.905509803 816.815429688 504 c 5
 827.815429688 544 l 5
 868.797701322 543.083065258 904.815429688 579.801853554 904.815429688 636 c 4
 904.815429688 716.423844267 818.012893758 762 716.815429688 762 c 4
 554.287319449 762 414.34959802 677.687033215 373.815429688 439 c 5
 331.815429688 429 l 5
904.779296875 634 m 4
 904.779296875 544 910.779296875 510 840.779296875 510 c 4
 786.864257812 510 734.779296875 538.208007812 734.779296875 597 c 4
 734.779296875 689.73828125 823.376953125 735.784179688 911.779296875 707 c 5
 904.779296875 670 l 5
 848.52734375 684.944335938 789.246104305 665.868765142 788.779296875 604 c 4
 788.48046875 564.39453125 817.685546875 552 842.779296875 552 c 4
 876.995117188 552 904.779296875 586.729492188 904.779296875 634 c 4
EndSplineSet
Refer: 7 3482 N 1 0 0 1 -0.184219 0 2
LCarets2: 1 0
Ligature2: "si_abvs_2 subtable" si_Ka si_MatraIi
EndChar

StartChar: si_KU
Encoding: 88 -1 88
GlifName: si_K_U_
Width: 1093
VWidth: 6
Flags: HMW
LayerCount: 3
Back
SplineSet
812.296875 9 m 0xbe
 922.133789062 22.0703125 957.416992188 174.231445312 931.296875 279 c 0
 901.471679688 398.631835938 776.525390625 466.868164062 641.296875 462 c 0
 542.2109375 458.697265625 465.256835938 431.771484375 371.296875 374 c 1
 354.296875 362 365.296875 367 351.296875 355 c 1
 254.296875 276 172.296875 211 72.296875 79 c 1
 72.296875 79 37.423828125 98.5439453125 43.296875 107 c 0
 143.296875 251 233.296875 322 331.296875 413 c 1
 338.296875 419 347.296875 420 354.296875 425 c 1
 452.157226562 505 572.469726562 555.573242188 688.296875 561 c 0
 878.225585938 570.465820312 1017.296875 450 1031.296875 282 c 0
 1044.85253906 112.560546875 943.936523438 -33 791.296875 -33 c 0
 812.296875 9 l 0xbe
304.296875 377 m 1
 316.296875 400 320.296875 421 319.296875 439 c 0
 317.296875 481 281.057617188 505.678710938 231.296875 501 c 0
 197.231445312 497.796875 161.296875 470 167.296875 426 c 1
 207.296875 371 l 1
 193.296875 347 170.298828125 335.022460938 148.296875 336 c 0
 103.296875 338 83.296875 369 83.296875 415 c 0
 83.296875 495 150.280273438 563.181640625 247.296875 559 c 0
 330.223632812 555.42578125 379.296875 480 352.296875 416 c 0
 337.296875 380 352.296875 404 339.296875 387 c 1
 304.296875 377 l 1
123.296875 165 m 1
 131.296875 169 140.296875 172 147.296875 172 c 0
 195.296875 173 204.296875 72 287.296875 72 c 0
 336.296875 72 386.296875 101 387.296875 197 c 1
 422.296875 197 l 0
 423.296875 94 483.293945312 71.1669921875 543.296875 72 c 0
 603.299804688 72.8330078125 654.296875 118 654.296875 194 c 0
 654.296875 273 582.296875 340 468.296875 345 c 0
 406.356445312 347.716796875 330.296875 329 297.296875 311 c 1
 351.296875 364 l 1
 364.296875 368 398.29296875 390.330078125 475.296875 391 c 0
 590.296875 392 712.296875 332 712.296875 182 c 0
 712.296875 48 637.291992188 -34.9423828125 532.296875 -36 c 0
 446.990234375 -36.859375 414.018554688 8.326171875 395.296875 49 c 1
 413.296875 49 l 1
 396.034179688 7.81640625 353.250976562 -36 288.296875 -36 c 0xde
 130.293945312 -36 176.296875 169 111.296875 130 c 0
 123.296875 165 l 1
EndSplineSet
Refer: 575 -1 S 1 0 0 1 811.297 1 2
Fore
SplineSet
947.279296875 251 m 0
 940.02734375 406.19140625 793.594726562 497.498046875 620.279296875 492 c 0
 527.010742188 489.041015625 432.584960938 460.513671875 341.279296875 388 c 0
 324.978515625 375.06640625 335.279296875 381 321.279296875 369 c 0
 225.819335938 292.077148438 145.692382812 179.516601562 82.279296875 51 c 1
 82.279296875 51 48.123046875 66 57.279296875 93 c 1
 116.814453125 224.041015625 219.0546875 349.654296875 308.279296875 426 c 0
 309.717773438 427.231445312 312.98828125 425.615234375 314.279296875 427 c 0
 404.799804688 524.137695312 525.463867188 581 660.279296875 581 c 0
 864.909179688 581 1021.57617188 437.78515625 1020.27929688 257 c 0
 1019.27929688 122.171875 957.901367188 -21 800.279296875 -21 c 0
 799.279296875 29 l 0
 911.551757812 30.1259765625 952.279296875 144 947.279296875 251 c 0
541.315429688 -19 m 0
 453.956054688 -20.263671875 405.56640625 37.7373046875 406.315429688 89 c 1
 416.315429688 89 l 1
 420.861328125 28.84375 364.65234375 -14.28125 301.5 -13.9140625 c 0
 182.259765625 -13.2216796875 175.5625 134.112304688 94.279296875 81 c 1
 93.279296875 110 l 1
 101.8515625 118 118.565429688 132 147.279296875 132 c 0
 204.522460938 132 232.956054688 79.5126953125 297.5 77.4013671875 c 0
 338.200195312 76.0703125 389.369140625 101.732421875 390.315429688 197 c 1
 401.315429688 201 416.315429688 205 425.315429688 202 c 1
 426.377929688 115.71875 478.4921875 74 541.315429688 74 c 0
 599.5 74 648.279296875 122.46484375 648.279296875 200 c 0
 648.279296875 305 549.279296875 366 447.279296875 366 c 0
 354.279296875 366 294.279296875 337.266601562 261.279296875 317 c 1
 301.279296875 365 l 1
 314.279296875 370 366.279296875 412 466.279296875 412 c 0
 583.279296875 412 712.279296875 335 712.279296875 201 c 0
 712.279296875 98.5439453125 649.508789062 -17.4345703125 541.315429688 -19 c 0
68.279296875 455 m 0
 68.279296875 516.485351562 115.279296875 574 202.279296875 574 c 0
 293.100585938 574 336.279296875 501.23046875 320.279296875 428 c 0
 307.329101562 368.727539062 267.6640625 365.881835938 262.279296875 351 c 0
 248.279296875 350 l 1
 267.731445312 369.963867188 280.279296875 409.892578125 280.279296875 436 c 0
 280.279296875 479.202148438 246.77734375 504.005859375 217.279296875 504.045898438 c 0
 202.255859375 504.06640625 182.270507812 497.665039062 174.279296875 484 c 1
 153.279296875 379 l 1
 88.197265625 377.70703125 68.279296875 419.03515625 68.279296875 455 c 0
EndSplineSet
Refer: 575 -1 N 1 0 0 1 903.631 -5 2
LCarets2: 1 0
Ligature2: "si_blws_1 subtable" si_Ka si_MatraU
EndChar

StartChar: si_KUu
Encoding: 89 -1 89
GlifName: si_K_U_u
Width: 1126
VWidth: 6
Flags: HMW
LayerCount: 3
Back
Refer: 7 3482 N 1 0 0 1 -12.3692 0 2
Fore
SplineSet
948.779296875 251 m 0
 944.762695312 406.30859375 795.094726562 497.498046875 621.779296875 492 c 0
 528.510742188 489.041015625 434.084960938 460.513671875 342.779296875 388 c 0
 326.478515625 375.06640625 336.779296875 381 322.779296875 369 c 0
 227.319335938 292.077148438 142.192382812 178.516601562 78.779296875 50 c 1
 78.779296875 50 44.623046875 65 53.779296875 92 c 1
 113.779296875 223.43359375 211.779296875 340.395507812 311.779296875 427 c 0
 313.60546875 427.5 316.45822486 426.643654746 317.779296875 428 c 0
 411.776367188 524.506835938 527.743164062 581 661.779296875 581 c 0
 866.409179688 581 1023.07617188 439.995117188 1021.77929688 262 c 0
 1020.77929688 119.897143468 959.401367188 -31 801.779296875 -31 c 0
 800.779296875 17 l 0
 913.051757812 18.2030982449 951.779296875 127.054794521 948.779296875 251 c 0
542.815429688 -19 m 0
 455.456054688 -20.263671875 415.06640625 37.7373046875 415.815429688 89 c 1
 425.815429688 89 l 1
 428.444335938 51.89453125 387.113674458 -19.5306354767 306 -18.6435546875 c 0
 245.368164062 -17.98046875 211.705078125 2.7177734375 188.779296875 47 c 0
 163.89709598 95.0611432781 120.779296875 106 90.779296875 80 c 1
 89.779296875 109 l 1
 98.3515625 117 115.065429688 131 143.779296875 131 c 0
 221.240234375 131 213.541015625 75 305.815429688 75 c 0
 364 75 402.874023438 102.2578125 403.815429688 197 c 1
 414.815429688 201 429.815429688 205 438.815429688 202 c 1
 439.877929688 115.71875 479.9921875 74 542.815429688 74 c 0
 601 74 649.779296875 122.46484375 649.779296875 200 c 0
 649.779296875 305 550.779296875 366 448.779296875 366 c 0
 355.779296875 366 295.779296875 337.266601562 262.779296875 317 c 1
 302.779296875 365 l 1
 315.779296875 370 367.779296875 412 467.779296875 412 c 0
 584.779296875 412 713.779296875 335 713.779296875 201 c 0
 713.779296875 98.5439453125 651.008789062 -17.4345703125 542.815429688 -19 c 0
69.779296875 455 m 0
 69.779296875 516.485351562 116.779296875 574 203.779296875 574 c 0
 294.600585938 574 337.779296875 501.23046875 321.779296875 428 c 0
 308.829101562 368.727539062 269.1640625 365.881835938 263.779296875 351 c 0
 249.779296875 350 l 1
 269.231445312 369.963867188 281.779296875 409.892578125 281.779296875 436 c 0
 281.779296875 479.202148438 248.27734375 504.005859375 218.779296875 504.045898438 c 0
 203.755859375 504.06640625 183.770507812 497.665039062 175.779296875 484 c 1
 154.779296875 379 l 1
 89.697265625 377.70703125 69.779296875 419.03515625 69.779296875 455 c 0
EndSplineSet
Refer: 644 -1 N 1 0 0 1 529.63 -8 2
LCarets2: 1 0
Ligature2: "si_blws_3 subtable" si_Ka si_MatraUu
EndChar

StartChar: si_KRa
Encoding: 92 -1 92
GlifName: si_K_R_a
Width: 1077
VWidth: 6
Flags: HMW
LayerCount: 3
Back
Refer: 7 3482 N 1 0 0 1 -20.1843 0 2
Fore
SplineSet
193.815429688 -169 m 1
 199.815429688 -159 212.815429688 -148 230.815429688 -148 c 1
 230.815429688 -148 314.146484375 -254 550.815429688 -254 c 0
 857.620117188 -254 988.342773438 8.9150390625 997.815429688 281 c 1
 1018.81542969 302 l 1
 1023.00097656 277.482421875 1026.47851562 223.6796875 1021.81542969 168 c 0
 1005.63378906 -25.23046875 896.178710938 -343 579.815429688 -343 c 0
 310.6484375 -343 199.315429688 -195 193.815429688 -169 c 1
EndSplineSet
Refer: 7 3482 N 1 0 0 1 -0.184704 0 2
LCarets2: 3 0 0 0
Ligature2: "si_rakaar subtable" si_Ka si_Halant zwj si_Ra
EndChar

StartChar: si_Kh.halant
Encoding: 95 -1 95
GlifName: si_K_h.halant
Width: 881
VWidth: 6
Flags: HMW
LayerCount: 3
Back
Refer: 28 3483 N 1 0 0 1 -14.5 0 2
Fore
SplineSet
199.5 844 m 0
 199.5 844 265.961914062 886.249023438 383.5 885 c 0
 791.557617188 880.6640625 818.5 521.135742188 818.5 374 c 1
 773.5 474 l 1
 773.5 474 769.528320312 810.99609375 378.5 821 c 0
 340.499023438 821.96484375 319.5 818 319.5 818 c 1
 331.5 852 l 1
 318.5 788 294.5 703 192.5 662 c 1
 167.5 687 l 1
 264.5 725 281.5 833 288.5 858 c 1
 300.5 816 l 1
 247.336914062 801.810546875 247.336914062 800.865234375 203.5 781 c 1
 195.5 788 193.5 818 199.5 844 c 0
820.5 344 m 1
 820.5 126 722.5 -25 556.5 -25 c 0
 491.5 -25 434.5 7 430.5 48 c 1
 459.5 34 l 1
 447.5 12 437.5 -4 403.5 -62 c 1
 373.5 -41 l 1
 408.260742188 19 481.145507812 146.017578125 475.5 238 c 0
 469.327148438 338.579101562 391.5 397 295.5 397 c 0
 183.21484375 397 100.5 315.661132812 100.5 184 c 0
 100.5 84.40625 155.807617188 16.80859375 228.5 19 c 0
 268.118164062 20.1943359375 288.5 50.2001953125 288.5 79 c 0
 288.5 108.64453125 268.192382812 130 240.5 130 c 0
 208.1328125 130 180.5 110.385742188 180.5 63 c 0
 180.5 39.2724609375 190.534179688 12.3935546875 217.5 8 c 1
 193.5 -3 l 1
 169.163085938 -0.849609375 141.5 30.1748046875 141.5 75 c 0
 141.5 143.201171875 191.97265625 186 245.5 186 c 0
 297.745117188 186 343.5 148.959960938 343.5 87 c 0
 343.5 33.109375 300.852539062 -27 227.5 -27 c 0
 105.661132812 -27 50.5 90.2099609375 50.5 186 c 0
 50.5 372.166015625 168.96484375 484.610351562 313.5 486 c 0
 417.5 487 536.5 420 536.5 254 c 0
 536.5 174 493.5 98 466.5 60 c 1
 476.5 123 l 1
 489.5 90 509.5 71 559.5 71 c 0
 660.5 71 749.5 180 750.5 343 c 1
 753.891601562 542.500976562 632.385742188 694 394.5 694 c 0
 280.619140625 694 179.5 625 179.5 625 c 1
 168.010742188 633.745117188 156.334960938 654.940429688 162.5 684 c 1
 162.5 684 254.228515625 756 408.5 756 c 0
 624.594726562 756 820.5 590.5546875 820.5 344 c 1
EndSplineSet
LCarets2: 1 0
Ligature2: "si_halant_1 subtable" si_Kha si_Halant
EndChar

StartChar: si_KhI
Encoding: 96 -1 96
GlifName: si_K_hI_
Width: 881
VWidth: 6
Flags: HMW
LayerCount: 3
Back
Refer: 28 3483 N 1 0 0 1 0 0 2
Fore
SplineSet
820.5 344 m 1
 820.5 606.782226562 615.084960938 766 388.5 766 c 0
 215.415039062 766 112.5 694 112.5 694 c 1
 106.334960938 660.014648438 118.010742188 635.227539062 129.5 625 c 1
 129.5 625 244.728515625 704 374.5 704 c 0
 625.75 704 754.08203125 548.184570312 750.5 343 c 1
 749.5 180 660.5 71 559.5 71 c 0
 509.5 71 489.5 90 476.5 123 c 1
 466.5 60 l 1
 493.5 98 536.5 174 536.5 254 c 0
 536.5 420 417.5 487 313.5 486 c 0
 168.9609375 485.158203125 50.5 372.166015625 50.5 186 c 0
 50.5 90.2099609375 105.661132812 -27 227.5 -27 c 0
 300.852539062 -27 343.5 33.109375 343.5 87 c 0
 343.5 148.959960938 297.745117188 186 245.5 186 c 0
 191.97265625 186 141.5 143.201171875 141.5 75 c 0
 141.5 30.1748046875 169.163085938 -0.849609375 193.5 -3 c 1
 217.5 8 l 1
 190.534179688 12.3935546875 180.5 39.2724609375 180.5 63 c 0
 180.5 110.385742188 208.1328125 130 240.5 130 c 0
 268.192382812 130 288.5 108.64453125 288.5 79 c 0
 288.5 50.2001953125 268.118164062 20.1943359375 228.5 19 c 0
 155.807617188 16.80859375 100.5 84.40625 100.5 184 c 0
 100.5 315.661132812 183.21484375 397 295.5 397 c 0
 391.5 397 469.327148438 338.579101562 475.5 238 c 0
 480.84765625 146 408.260742188 19 373.5 -41 c 1
 403.5 -62 l 1
 437.5 -4 447.5 12 459.5 34 c 1
 430.5 48 l 1
 434.5 7 491.5 -25 556.5 -25 c 0
 722.5 -25 820.5 126 820.5 344 c 1
EndSplineSet
LCarets2: 1 0
Ligature2: "si_abvs_1 subtable" si_Kha si_MatraI
EndChar

StartChar: si_KhU
Encoding: 98 -1 98
GlifName: si_K_hU_
Width: 881
VWidth: 6
Flags: HMW
LayerCount: 3
Back
Refer: 81 -1 N 1 0 0 1 400 0 2
Refer: 28 3483 N 1 0 0 1 -340 0 2
Fore
SplineSet
115.5 -231 m 4
 115.5 -131.329101562 230.5 -95 230.5 -95 c 5
 239.94140625 -99.4765625 250.580078125 -111.609375 250.5 -123 c 5
 232.5 -133 198.5 -163 198.5 -202 c 4
 198.5 -243 229.5 -259 296.5 -259 c 6
 741.5 -262 l 1
 741.5 210 l 1
 789.5 210 l 1
 798.5 -330 l 1
 264.5 -334 l 6
 156.506835938 -334.919921875 115.5 -287.483398438 115.5 -231 c 4
EndSplineSet
Refer: 28 3483 N 1 0 0 1 0 0 2
LCarets2: 1 0
Ligature2: "si_blws_1 subtable" si_Kha si_MatraU
EndChar

StartChar: si_KhUu
Encoding: 99 -1 99
GlifName: si_K_hU_u
Width: 880
VWidth: 6
Flags: HMW
LayerCount: 3
Back
Refer: 28 3483 N 1 0 0 1 0 0 2
Fore
SplineSet
789.5 -330 m 1
 760.5 -349 l 1
 679.371450407 -311.505859375 603.845278533 -283 508.5 -283 c 0
 413.770326594 -283 336.049099952 -347 235.5 -347 c 0
 141.5 -347 102.5 -294 102.5 -238 c 0
 102.5 -162 165.5 -112 223.5 -95 c 1
 234.5 -99.6640625 244.833007812 -106.998046875 246.5 -125 c 1
 199.5 -139 175.5 -175 175.5 -208 c 0
 175.5 -248 201.5 -277 247.5 -277 c 0
 342.078053043 -277 416.928443668 -216 514.5 -216 c 0
 610.055555555 -216 660.055555555 -234 734.5 -262 c 1
 736.5 210 l 1
 784.5 210 l 1
 789.5 -330 l 1
EndSplineSet
Refer: 28 3483 N 1 0 0 1 0 0 2
LCarets2: 1 0
Ligature2: "si_blws_3 subtable" si_Kha si_MatraUu
EndChar

StartChar: si_GI
Encoding: 105 -1 105
GlifName: si_G_I_
Width: 985
VWidth: 6
Flags: HMW
LayerCount: 3
Back
SplineSet
395 277 m 5
 400.991210938 475.4453125 518.68359375 585 668 585 c 4
 840.014648438 585 935 448.494140625 935 306 c 4
 935 131.552734375 848.256835938 -21 668 -21 c 4
 625.537109375 -21 587.111328125 -11.5712890625 572 -3 c 5
 565 4.05859375 561 39.3525390625 581 57 c 5
 595.5859375 48.1943359375 627.745117188 35.1416015625 675 36 c 4
 820.145507812 38.703125 866 160.2578125 866 277 c 4
 866 426.08203125 761.276367188 495 654 495 c 4
 545.865234375 495 444.379882812 436.76953125 438 271 c 5
 426.272460938 269.799804688 404.727539062 271.200195312 395 277 c 5
50 260 m 4
 50 464.634765625 217.0625 580.083984375 347 582 c 5
 355 563 349 528 343 519 c 5
 251.340820312 519 113.4375 455.711914062 109 287 c 4
 106.014648438 170.1953125 180.270507812 83.2666015625 316 80 c 4
 440.200195312 77.01171875 510 141.153320312 510 207 c 4
 510 264.887695312 478.875 295 420 295 c 5
 431 340 l 5
 506.131835938 341.567382812 562 288.876953125 562 206 c 4
 562 94.869140625 475.8828125 -17 318 -17 c 4
 145.854492188 -17 50 99.1943359375 50 260 c 4
342 693 m 4
 342 828.342773438 465.844726562 899 628 899 c 4
 804.3125 899 900 808 900 698 c 4
 900 619.98046875 834 545 771 545 c 5
 743 569 l 5
 743 569 846 581.141601562 846 684 c 4
 846 767 731.424804688 807.225585938 616 808 c 4
 464.888671875 809 392 759 392 687 c 4
 392 602.67578125 504.032226562 568.041015625 638 569 c 5
 634 527 l 5
 429.116210938 527.9765625 342 598.282226562 342 693 c 4
EndSplineSet
Fore
SplineSet
371 697 m 4
 371 822.48771712 488.78239729 888 643 888 c 4
 821.905330882 888 919 801.980099502 919 698 c 4
 919 619.98046875 853 545 790 545 c 5
 762 569 l 5
 762 569 865 573.402547554 865 677 c 4
 865 755.983870968 743.450662365 794.263057586 621 795 c 4
 485.404567174 795.809917355 420 755.314049587 420 697 c 4
 420 615.529661017 517.933486566 563.959745763 657 569 c 5
 653 531 l 5
 475.132779057 531.9765625 371 592.282226562 371 697 c 4
395 277 m 1
 400.991210938 475.4453125 518.68359375 585 668 585 c 0
 840.014648438 585 935 448.494140625 935 306 c 0
 935 131.552734375 848.256835938 -21 668 -21 c 0
 625.537109375 -21 587.111328125 -11.5712890625 572 -3 c 1
 565 4.05859375 561 39.3525390625 581 57 c 1
 595.5859375 48.1943359375 627.745117188 35.1416015625 675 36 c 0
 820.145507812 38.703125 866 160.2578125 866 277 c 0
 866 426.08203125 761.276367188 495 654 495 c 0
 545.865234375 495 444.379882812 436.76953125 438 271 c 1
 426.272460938 269.799804688 404.727539062 271.200195312 395 277 c 1
50 260 m 0
 50 464.634765625 205.8125 580.083984375 327 582 c 1
 335 563 329 528 323 519 c 1
 239.174938235 519 113.058226496 455.711914062 109 287 c 0
 106.014648438 170.1953125 180.270507812 83.2666015625 316 80 c 0
 440.200195312 77.01171875 510 141.153320312 510 207 c 0
 510 264.887695312 478.875 295 420 295 c 1
 431 340 l 1
 506.131835938 341.567382812 562 288.876953125 562 206 c 0
 562 94.869140625 475.8828125 -17 318 -17 c 0
 145.854492188 -17 50 99.1943359375 50 260 c 0
EndSplineSet
LCarets2: 1 0
Ligature2: "si_abvs_1 subtable" si_Ga si_MatraI
EndChar

StartChar: si_GIi
Encoding: 106 -1 106
GlifName: si_G_I_i
Width: 985
VWidth: 6
Flags: HMW
LayerCount: 3
Back
Refer: 29 3484 N 1 0 0 1 -0.5 0 2
Fore
SplineSet
395 277 m 1
 400.991210938 475.4453125 518.68359375 585 668 585 c 0
 840.014648438 585 935 448.494140625 935 306 c 0
 935 131.552734375 848.256835938 -21 668 -21 c 0
 625.537109375 -21 587.111328125 -11.5712890625 572 -3 c 1
 565 4.05859375 561 39.3525390625 581 57 c 1
 595.5859375 48.1943359375 627.745117188 35.1416015625 675 36 c 0
 820.145507812 38.703125 866 160.2578125 866 277 c 0
 866 426.08203125 761.276367188 495 654 495 c 0
 545.865234375 495 444.379882812 436.76953125 438 271 c 1
 426.272460938 269.799804688 404.727539062 271.200195312 395 277 c 1
50 260 m 0
 50 464.634765625 205.8125 580.083984375 327 582 c 1
 335 563 329 528 323 519 c 1
 239.174938235 519 113.058226496 455.711914062 109 287 c 0
 106.014648438 170.1953125 180.270507812 83.2666015625 316 80 c 0
 440.200195312 77.01171875 510 141.153320312 510 207 c 0
 510 264.887695312 478.875 295 420 295 c 1
 431 340 l 1
 506.131835938 341.567382812 562 288.876953125 562 206 c 0
 562 94.869140625 475.8828125 -17 318 -17 c 0
 145.854492188 -17 50 99.1943359375 50 260 c 0
886.997070312 658 m 4
 886.997070312 579.551757812 826.999023438 545.03125 776 546 c 5
 741.13671875 546 676.497070312 558.463867188 676.497070312 637 c 4
 676.497070312 698.344726562 733.5703125 737.040039062 786.497070312 739 c 4
 813.497070312 740 844.497070312 733 855.497070312 729 c 5
 863.497070312 685 l 5
 853.497070312 692 827.497070312 699 808.497070312 699 c 4
 760.615234375 699 732.497070312 670.689453125 732.497070312 636 c 4
 732.497070312 609.145507812 749.811523438 591.533203125 780.497070312 590 c 5
 814.16015625 590.03515625 850.997070312 621.233398438 850.997070312 664 c 4
 886.997070312 658 l 4
355 701 m 4
 355 810.487304688 465.782226562 885 620 885 c 4
 808.905273438 885 900 786.98046875 900 683 c 4
 900 604.98046875 844 545 781 545 c 5
 753 569 l 5
 753 569 852 573.40234375 852 677 c 4
 852 755.983398438 715.450195312 794.262695312 603 795 c 4
 467.405273438 795.888671875 410 752.314453125 410 694 c 4
 410 612.529296875 498.93359375 563.959960938 638 569 c 5
 634 526 l 5
 456.1328125 526.9765625 355 596.282226562 355 701 c 4
EndSplineSet
LCarets2: 1 0
Ligature2: "si_abvs_2 subtable" si_Ga si_MatraIi
EndChar

StartChar: si_GU
Encoding: 107 -1 107
GlifName: si_G_U_
Width: 988
VWidth: 6
Flags: HMW
LayerCount: 3
Back
SplineSet
661.759765625 8.6123046875 m 0xee
 794.73046875 0.5859375 852.623046875 108.114257812 852.623046875 229.600585938 c 0
 852.623046875 353.83984375 772.359375 445.533203125 632.9375 445.533203125 c 0
 552.0703125 445.533203125 441.365234375 397.33203125 434.877929688 254.823242188 c 1
 384.610351562 238.01171875 l 1
 380.657226562 437.1640625 511.451171875 542.603515625 651.6796875 542.603515625 c 0
 823.643554688 542.603515625 916.870117188 411.889648438 916.870117188 267.375 c 0
 916.870117188 101.1640625 843.109375 -54.5166015625 660.411132812 -45.814453125 c 4
 661.759765625 8.6123046875 l 0xee
107.974609375 245.841796875 m 0
 107.224609375 128.7109375 176.21484375 50.8837890625 304 47.5908203125 c 0
 410.426757812 44.8486328125 481.6328125 87.9111328125 484 160 c 0
 485.319335938 200.172851562 458.767578125 237 385 237 c 1
 436 291 l 1
 485 290 547.65234375 244.21484375 548 160 c 0
 548.451171875 47.953125 469.594726562 -55.0048828125 304.598632812 -55.0048828125 c 0
 136.69140625 -55.0048828125 49.9951171875 61.9140625 49.9951171875 221.564453125 c 0
 49.9951171875 428.865234375 206.2890625 536 333 538 c 0
 340.879882812 462.879882812 l 0xde
 245.916015625 462.879882812 109.059570312 415.424804688 107.974609375 245.841796875 c 0
EndSplineSet
Refer: 575 -1 N 1 0 0 1 661 1 2
Fore
SplineSet
50 252 m 0
 50 459 206 566 333 568 c 1
 333 493 l 1
 238 493 108 445 108 274 c 0
 108 155 181 77 314 77 c 0
 415 77 484 121 484 193 c 0
 484 232 457 267 385 267 c 1
 436 321 l 1
 485 320 548 274 548 189 c 0
 548 77 470 -25 305 -25 c 0
 137 -25 50 92 50 252 c 0
387 269 m 1
 387 462 514 573 652 573 c 0
 824 573 917 442 917 297 c 0
 917 137.587890625 847 -11 675 -11 c 4
 670 -11 665 -11 660 -11 c 5
 660 39 l 1
 665 39 671 38 676 38 c 0
 799 38 853 143 853 260 c 0
 853 384 772 476 633 476 c 0
 552 476 441 428 435 285 c 1
 387 269 l 1
EndSplineSet
Refer: 575 -1 N 1 0 0 1 734 1 2
LCarets2: 1 0
Ligature2: "si_blws_1 subtable" si_Ga si_MatraU
EndChar

StartChar: si_NgI
Encoding: 125 -1 125
GlifName: si_N_gI_
Width: 1088
VWidth: 6
Flags: HMW
LayerCount: 3
Fore
SplineSet
462 693 m 0
 462 828.342773438 585.844726562 899 748 899 c 0
 924.3125 899 1020 808 1020 698 c 0
 1020 619.98046875 954 545 891 545 c 1
 863 569 l 1
 863 569 966 581.141601562 966 684 c 0
 966 767 851.424804688 807.225585938 736 808 c 0
 584.888671875 809 512 759 512 687 c 0
 512 602.67578125 624.032226562 568.041015625 758 569 c 1
 754 527 l 1
 549.116210938 527.9765625 462 598.282226562 462 693 c 0
EndSplineSet
Refer: 32 3487 N 1 0 0 1 0.0003554 0 2
LCarets2: 1 0
Ligature2: "si_abvs_1 subtable" si_Nga si_MatraI
EndChar

StartChar: si_C.halant
Encoding: 132 -1 132
GlifName: si_C_.halant
Width: 877
VWidth: 16
Flags: HMW
LayerCount: 3
Back
Refer: 5 3488 N 1 0 0 1 1.25034 0 2
Fore
SplineSet
-507.18359375 787 m 1048
EndSplineSet
Refer: 5 3488 N 1 0 0 1 1.25034 0 2
Refer: 576 -1 N 1 0 0 1 83.8168 0 2
Ligature2: "si_halant_1 subtable" si_Ca si_Halant
EndChar

StartChar: si_CI
Encoding: 133 -1 133
GlifName: si_C_I_
Width: 877
VWidth: 16
Flags: HMW
LayerCount: 3
Back
SplineSet
285.3671875 325.6328125 m 5
 221.80397124 309.48112349 175.06640625 268.879944249 175.06640625 197 c 4
 175.06640625 122.053333333 281.529746396 50.1864350784 446.06640625 51 c 4
 651.438476562 52.009765625 764.06640625 196.36328125 764.06640625 376 c 4
 764.06640625 583.150390625 636.32421875 708 425.06640625 708 c 4
 300.06640625 708 212.06640625 647 210.06640625 647 c 5
 199.06640625 654.5 190.06640625 681.8125 194.06640625 709 c 5
 236.06640625 737 320.06640625 766 432.06640625 766 c 4
 655.364257812 766 826.06640625 619 826.06640625 364 c 4
 826.06640625 126 693.889648438 -48 438.06640625 -48 c 4
 261.973032756 -48 115.06640625 49.2477876106 115.06640625 174 c 4
 115.06640625 279.107850383 180.883403848 333.535827173 259.052204213 358.46084684 c 5
 285.3671875 325.6328125 l 5
382.56640625 340 m 4
 418.020507812 339.787109375 440.813476562 361.599609375 447.56640625 364 c 5
 413.56640625 343 l 5
 420.44140625 358.903097588 424.56640625 373.623697917 424.56640625 401 c 4
 424.56640625 466.006835938 365.122070312 495 315.56640625 495 c 4
 269.286132812 495 242.766601562 463.950195312 237.56640625 449 c 5
 237.10546875 466.506835938 230.34375 488.139648438 288.56640625 511 c 5
 239.56640625 400 l 5
 195.248046875 401.904296875 174.56640625 429.653320312 174.56640625 460 c 4
 174.56640625 509.5 216.44140625 559 308.56640625 559 c 4
 395.578125 559 470.56640625 497.088867188 470.56640625 404 c 4
 470.56640625 370.791180346 461.766601562 338.557840738 452.56640625 320 c 5
 438.56640625 329.090820312 352.563235492 340.180159516 382.56640625 340 c 4
42.5888671875 306 m 5
 40.5888671875 328 42.5888671875 350 46.5888671875 363 c 5
 447.588867188 363 l 5
 452.588867188 320 l 5
 173.588867188 320 l 5
 42.5888671875 306 l 5
EndSplineSet
Fore
SplineSet
825.049804688 345 m 0
 820.070608008 136.418408172 693.21936414 -38 438.06640625 -38 c 0
 251.973032756 -38 115.06640625 54.8672566371 115.06640625 174 c 0
 115.06640625 277.398468541 180.883199795 330.94127648 259.051757812 355.4609375 c 1
 285.3671875 325.6328125 l 1
 221.80397124 310.360073587 175.06640625 267.968348133 175.06640625 204 c 0
 175.06640625 130.593333333 271.529541571 60.2410970194 446.06640625 61 c 0
 650.781979755 61.8901228929 761.157111973 206.969335134 763.049804688 351 c 0
 766.146472046 586.651067518 569.110722819 657.52383312 347.049804688 653.013671875 c 0
 264.071289062 651.328339361 182.897373736 666.458952512 176.049804688 753 c 0
 167.560546875 860.2890625 281.076171875 949 465.049804688 949 c 0
 655.62890625 949 745.049804688 853.48046875 745.049804688 763 c 0
 745.049804688 687.102539062 675.049804688 643.063476562 624.049804688 644 c 1
 592.049804688 681 l 1
 639.259765625 659.681640625 678.049804688 705.491210938 678.049804688 747 c 0
 678.049804688 810.888671875 592.431640625 867 457.049804688 867 c 0
 303.118164062 867 229.776037645 830.595717194 231.049804688 772 c 0
 232.072265625 724.96484375 282.785209812 703.147282328 353.049804688 707.356445312 c 0
 606.351147258 722.530326791 831.790391412 627.367297231 825.049804688 345 c 0
382.56640625 340 m 0
 418.020507812 339.787109375 440.813476562 361.599609375 447.56640625 364 c 1
 413.56640625 343 l 1
 420.44140625 358.903097588 424.56640625 373.623697917 424.56640625 401 c 0
 424.56640625 466.006835938 365.122070312 495 315.56640625 495 c 0
 269.286132812 495 242.766601562 463.950195312 237.56640625 449 c 1
 237.10546875 466.506835938 230.34375 488.139648438 288.56640625 511 c 1
 239.56640625 400 l 1
 195.248046875 401.904296875 174.56640625 429.653320312 174.56640625 460 c 0
 174.56640625 509.5 216.44140625 559 308.56640625 559 c 0
 395.578125 559 470.56640625 497.088867188 470.56640625 404 c 0
 470.56640625 370.791180346 461.766601562 338.557840738 452.56640625 320 c 1
 438.56640625 329.090820312 352.563235492 340.180159516 382.56640625 340 c 0
42.5888671875 306 m 1
 40.5888671875 328 42.5888671875 350 46.5888671875 363 c 1
 447.588867188 363 l 1
 452.588867188 320 l 1
 173.588867188 320 l 1
 42.5888671875 306 l 1
EndSplineSet
LCarets2: 1 0
Ligature2: "si_abvs_1 subtable" si_Ca si_MatraI
EndChar

StartChar: si_CUu
Encoding: 136 -1 136
GlifName: si_C_U_u
Width: 877
VWidth: 16
Flags: HMW
LayerCount: 3
Back
Refer: 5 3488 N 1 0 0 1 -148.5 0 2
Fore
SplineSet
798.5 -330 m 1
 769.5 -349 l 1
 698.029296875 -311.505859375 631.495117188 -283 547.5 -283 c 0
 452.770507812 -283 375.048828125 -347 274.5 -347 c 0
 180.5 -347 141.5 -294 141.5 -238 c 0
 141.5 -162 204.5 -112 262.5 -95 c 1
 273.5 -99.6640625 283.833007812 -106.998046875 285.5 -125 c 1
 238.5 -139 214.5 -175 214.5 -208 c 0
 214.5 -248 240.5 -277 286.5 -277 c 0
 381.078125 -277 455.928710938 -216 553.5 -216 c 0
 636.025390625 -216 679.20703125 -234 743.5 -262 c 1
 741.5 210 l 1
 789.5 210 l 1
 798.5 -330 l 1
EndSplineSet
Refer: 5 3488 N 1 0 0 1 0.5 0 2
LCarets2: 1 0
Ligature2: "si_blws_3 subtable" si_Ca si_MatraUu
EndChar

StartChar: si_ChI
Encoding: 143 -1 143
GlifName: si_C_hI_
Width: 855
VWidth: 6
Flags: HMW
LayerCount: 3
Back
Refer: 33 3489 N 1 0 0 1 0.000130067 0 2
Fore
SplineSet
354.5 715 m 4
 354.5 832.641462862 433.646420599 936 563.5 936 c 4
 668.779041249 936 735.500518336 865.796100769 730.5 782 c 5
 688.5 776 l 5
 687.430302542 825.593220339 617.988437898 853 551.5 853 c 4
 470.880859375 853 413.5 795.994478666 413.5 708 c 4
 413.5 630.753582019 459.681818182 575 540.5 575 c 4
 542.5 575 545.5 575 547.5 575 c 5
 543.5 545 l 5
 530.5 540 521.5 537 509.5 537 c 4
 450.26433121 537 354.5 589.88538297 354.5 715 c 4
EndSplineSet
Refer: 33 3489 N 1 0 0 1 0.000130067 0 2
Ligature2: "si_abvs_1 subtable" si_Cha si_MatraI
EndChar

StartChar: si_ChU
Encoding: 145 -1 145
GlifName: si_C_hU_
Width: 855
VWidth: 6
Flags: HMW
LayerCount: 3
Back
Refer: 33 3489 N 1 0 0 1 0.000130067 0 2
Fore
SplineSet
54.4306640625 -231 m 0
 54.4306640625 -131.329101562 169.430664062 -95 169.430664062 -95 c 1
 178.872070312 -99.4765625 189.510742188 -111.609375 189.430664062 -123 c 1
 171.430664062 -133 137.430664062 -163 137.430664062 -202 c 0
 137.430664062 -243 168.43359375 -258.546875 235.430664062 -259 c 2
 679.430664062 -262 l 1
 679.430664062 190 l 1
 727.430664062 190 l 1
 736.430664062 -330 l 1
 203.430664062 -334 l 2
 95.4365234375 -334.810546875 54.4306640625 -287.483398438 54.4306640625 -231 c 0
EndSplineSet
Refer: 33 3489 N 1 0 0 1 0.000130067 0 2
LCarets2: 1 0
Ligature2: "si_blws_1 subtable" si_Cha si_MatraU
EndChar

StartChar: si_J.halant
Encoding: 147 -1 147
GlifName: si_J_.halant
Width: 841
VWidth: 6
Flags: HMW
LayerCount: 3
Back
Refer: 34 3490 N 1 0 0 1 -4.24996 0 2
Fore
SplineSet
448.154296875 444 m 1
 448.154296875 974 l 1
 460.154296875 981 465.154296875 976 474.154296875 974 c 1
 502.154296875 955 526.380010724 945.442628799 554.154296875 931 c 0
 579.154296875 918 646.154296875 890 646.154296875 813 c 0
 646.154296875 754 603.154296875 727 548.154296875 727 c 0
 508.154296875 727 480.154296875 743 471.154296875 755 c 1
 490.154296875 756 l 1
 490.154296875 751 487.154296875 745 487.154296875 739 c 2
 487.154296875 394 l 1
 470.904296875 394 483.904296875 440 448.154296875 444 c 1
490.154296875 787 m 1
 503.330767463 768 525.919002757 766 538.154296875 766 c 0
 564.154296875 766 585.154296875 781 585.154296875 815 c 0
 585.154296875 881 504.695113202 903 490.154296875 920 c 1
 490.154296875 787 l 1
EndSplineSet
Refer: 34 3490 S 1 0 0 1 -4.24996 0 2
LCarets2: 1 0
Ligature2: "si_halant_1 subtable" si_Ja si_Halant
EndChar

StartChar: si_JI
Encoding: 148 -1 148
GlifName: si_J_I_
Width: 841
VWidth: 6
Flags: HMW
LayerCount: 3
Back
Refer: 34 3490 N 1 0 0 1 -4.24996 0 2
Fore
SplineSet
383.5 713 m 0
 383.5 830.641462862 466.433330676 934 602.5 934 c 0
 707.779041249 934 774.500518336 863.796100769 769.5 780 c 1
 727.5 774 l 1
 726.430302542 823.593220339 656.988437898 851 590.5 851 c 0
 504.038892663 851 442.5 793.994478666 442.5 706 c 0
 442.5 628.753582019 492.318181818 573 579.5 573 c 0
 581.5 573 584.5 573 586.5 573 c 1
 582.5 543 l 1
 569.5 538 560.5 535 548.5 535 c 0
 485.442675159 535 383.5 587.88538297 383.5 713 c 0
EndSplineSet
Refer: 34 3490 N 1 0 0 1 -4.24996 0 2
LCarets2: 1 0
Ligature2: "si_abvs_1 subtable" si_Ja si_MatraI
EndChar

StartChar: si_JIi
Encoding: 149 -1 149
GlifName: si_J_I_i
Width: 841
VWidth: 6
Flags: HMW
LayerCount: 3
Back
Refer: 34 3490 N 1 0 0 1 -4.24996 0 2
Fore
SplineSet
543.154296875 548 m 5
 486.2421875 546.436523438 354.434570312 567.110351562 353.666992188 708 c 0
 352.995117188 831.041992188 451.125976562 930.4453125 575.76171875 930.4453125 c 0
 674.139648438 930.4453125 727.65625 868.206054688 727.65625 813.780273438 c 0
 727.65625 736.600585938 655.58203125 686.86328125 603.8046875 686.86328125 c 0
 551.021484375 686.86328125 515.40625 718.944335938 515.40625 767.743164062 c 0
 515.40625 844.90625 603.55078125 896.037109375 668.939453125 879.461914062 c 1
 641.553710938 858.975585938 l 1
 615.927734375 863.123046875 568.588867188 832.892578125 568.154296875 781 c 0
 567.893554688 753.1796875 588.591796875 737.447265625 614.16015625 737.447265625 c 0
 640.97265625 737.447265625 671.553710938 756.709960938 671.553710938 795.874023438 c 0
 671.553710938 826.049804688 662.858398438 866.889648438 582.985351562 866.889648438 c 0
 477.646484375 866.889648438 398.224609375 791.485351562 398.750976562 709 c 0
 399.302734375 617.340820312 491.569335938 573.809570312 548.154296875 587 c 1
 543.154296875 548 l 5
EndSplineSet
Refer: 34 3490 N 1 0 0 1 -4.24996 0 2
LCarets2: 1 0
Ligature2: "si_abvs_2 subtable" si_Ja si_MatraIi
EndChar

StartChar: si_JU
Encoding: 150 -1 150
GlifName: si_J_U_
Width: 841
VWidth: 6
Flags: HMW
LayerCount: 3
Back
Refer: 81 -1 N 1 0 0 1 692.75 0 2
Refer: 34 3490 N 1 0 0 1 -4.24996 0 2
Fore
SplineSet
53.154296875 -231 m 0
 53.154296875 -131.329101562 168.154296875 -95 168.154296875 -95 c 1
 177.595703125 -99.4765625 188.234375 -111.609375 188.154296875 -123 c 1
 170.154296875 -133 136.154296875 -163 136.154296875 -202 c 0
 136.154296875 -243 167.157226562 -258.546875 234.154296875 -259 c 2
 708.154296875 -262 l 5
 708.154296875 190 l 5
 756.154296875 190 l 5
 765.154296875 -330 l 5
 202.154296875 -334 l 2
 94.16015625 -334.810546875 53.154296875 -287.483398438 53.154296875 -231 c 0
EndSplineSet
Refer: 34 3490 N 1 0 0 1 -4.24996 0 2
LCarets2: 1 0
Ligature2: "si_blws_1 subtable" si_Ja si_MatraU
EndChar

StartChar: si_JUu
Encoding: 151 -1 151
GlifName: si_J_U_u
Width: 861
VWidth: 6
Flags: HMW
LayerCount: 3
Back
Refer: 34 3490 N 1 0 0 1 -4.24996 0 2
Fore
SplineSet
771 -330 m 1
 742 -349 l 1
 667.632162873 -311.505859375 598.399838655 -283 511 -283 c 0
 410.024414062 -283 327.178710938 -347 220 -347 c 0
 126 -347 87 -294 87 -238 c 0
 87 -162 150 -112 208 -95 c 1
 219 -99.6640625 229.333007812 -106.998046875 231 -125 c 1
 184 -139 160 -175 160 -208 c 0
 160 -248 186 -277 232 -277 c 0
 332.954101562 -277 412.850585938 -216 517 -216 c 0
 603.434343434 -216 648.661616162 -234 716 -262 c 1
 714 200 l 1
 762 200 l 1
 771 -330 l 1
EndSplineSet
Refer: 34 3490 N 1 0 0 1 -4.24996 0 2
Ligature2: "si_blws_3 subtable" si_Ja si_MatraUu
EndChar

